IBM Plex Sans Hebrew-Bold.ufo
<glyph name="exclam" format="1">
  <advance width="320"/>
  <unicode hex="0021"/>
  <outline>
    <contour>
      <point x="193" y="220" type="line"/>
      <point x="239" y="504" type="line"/>
      <point x="239" y="698" type="line"/>
      <point x="83" y="698" type="line"/>
      <point x="83" y="504" type="line"/>
      <point x="130" y="220" type="line"/>
    </contour>
    <contour>
      <point x="160" y="-12" type="curve" smooth="yes"/>
      <point x="223" y="-12"/>
      <point x="249" y="21"/>
      <point x="249" y="64" type="curve" smooth="yes" name="hr01"/>
      <point x="249" y="88" type="line" smooth="yes"/>
      <point x="249" y="131"/>
      <point x="223" y="164"/>
      <point x="160" y="164" type="curve" smooth="yes"/>
      <point x="97" y="164"/>
      <point x="71" y="131"/>
      <point x="71" y="88" type="curve" smooth="yes"/>
      <point x="71" y="64" type="line" smooth="yes"/>
      <point x="71" y="21"/>
      <point x="97" y="-12"/>
    </contour>
  </outline>
</glyph>
<glyph name="numbersign" format="1">
  <advance width="632"/>
  <unicode hex="0023"/>
  <outline>
    <contour>
      <point x="336" y="0" type="line" name="hr00"/>
      <point x="429" y="0" type="line"/>
      <point x="459" y="173" type="line"/>
      <point x="576" y="173" type="line"/>
      <point x="576" y="263" type="line"/>
      <point x="475" y="263" type="line"/>
      <point x="504" y="435" type="line"/>
      <point x="621" y="435" type="line"/>
      <point x="621" y="525" type="line"/>
      <point x="520" y="525" type="line"/>
      <point x="550" y="698" type="line"/>
      <point x="456" y="698" type="line"/>
      <point x="426" y="525" type="line"/>
      <point x="266" y="525" type="line"/>
      <point x="296" y="698" type="line"/>
      <point x="203" y="698" type="line"/>
      <point x="173" y="525" type="line"/>
      <point x="56" y="525" type="line"/>
      <point x="56" y="435" type="line"/>
      <point x="157" y="435" type="line"/>
      <point x="128" y="263" type="line"/>
      <point x="11" y="263" type="line"/>
      <point x="11" y="173" type="line"/>
      <point x="112" y="173" type="line"/>
      <point x="82" y="0" type="line"/>
      <point x="176" y="0" type="line"/>
      <point x="206" y="173" type="line"/>
      <point x="366" y="173" type="line"/>
    </contour>
    <contour>
      <point x="221" y="263" type="line"/>
      <point x="251" y="435" type="line"/>
      <point x="411" y="435" type="line"/>
      <point x="381" y="263" type="line"/>
    </contour>
  </outline>
</glyph>
<glyph name="dollar" format="1">
  <advance width="601"/>
  <unicode hex="0024"/>
  <outline>
    <contour>
      <point x="364" y="-82" type="line" name="hr00"/>
      <point x="364" y="14" type="line"/>
      <point x="497" y="36"/>
      <point x="559" y="119"/>
      <point x="559" y="217" type="curve" smooth="yes"/>
      <point x="559" y="319"/>
      <point x="492" y="376"/>
      <point x="352" y="408" type="curve"/>
      <point x="352" y="574" type="line"/>
      <point x="400" y="563"/>
      <point x="432" y="541"/>
      <point x="456" y="514" type="curve"/>
      <point x="547" y="596" type="line"/>
      <point x="503" y="646"/>
      <point x="444" y="677"/>
      <point x="364" y="686" type="curve"/>
      <point x="364" y="780" type="line"/>
      <point x="250" y="780" type="line"/>
      <point x="250" y="686" type="line"/>
      <point x="121" y="671"/>
      <point x="52" y="601"/>
      <point x="52" y="496" type="curve" smooth="yes"/>
      <point x="52" y="399"/>
      <point x="113" y="333"/>
      <point x="263" y="302" type="curve"/>
      <point x="263" y="122" type="line"/>
      <point x="207" y="130"/>
      <point x="160" y="157"/>
      <point x="122" y="197" type="curve"/>
      <point x="32" y="115" type="line"/>
      <point x="82" y="60"/>
      <point x="149" y="19"/>
      <point x="250" y="10" type="curve"/>
      <point x="250" y="-82" type="line"/>
    </contour>
    <contour>
      <point x="190" y="500" type="curve" smooth="yes"/>
      <point x="190" y="539"/>
      <point x="212" y="566"/>
      <point x="263" y="576" type="curve"/>
      <point x="263" y="428" type="line"/>
      <point x="212" y="442"/>
      <point x="190" y="462"/>
    </contour>
    <contour>
      <point x="421" y="206" type="curve" smooth="yes"/>
      <point x="421" y="168"/>
      <point x="399" y="137"/>
      <point x="352" y="124" type="curve"/>
      <point x="352" y="282" type="line"/>
      <point x="409" y="265"/>
      <point x="421" y="235"/>
    </contour>
  </outline>
</glyph>
<glyph name="ampersand" format="1">
  <advance width="721"/>
  <unicode hex="0026"/>
  <outline>
    <contour>
      <point x="539" y="0" type="line"/>
      <point x="718" y="0" type="line"/>
      <point x="579" y="151" type="line"/>
      <point x="598" y="183"/>
      <point x="613" y="221"/>
      <point x="624" y="262" type="curve"/>
      <point x="687" y="262" type="line"/>
      <point x="687" y="385" type="line"/>
      <point x="520" y="385" type="line"/>
      <point x="517" y="338"/>
      <point x="508" y="289"/>
      <point x="491" y="246" type="curve"/>
      <point x="383" y="363" type="line"/>
      <point x="459" y="408"/>
      <point x="522" y="462"/>
      <point x="522" y="550" type="curve" smooth="yes"/>
      <point x="522" y="652"/>
      <point x="435" y="710"/>
      <point x="321" y="710" type="curve" smooth="yes"/>
      <point x="193" y="710"/>
      <point x="112" y="635"/>
      <point x="112" y="543" type="curve" smooth="yes"/>
      <point x="112" y="479"/>
      <point x="151" y="421"/>
      <point x="190" y="377" type="curve"/>
      <point x="109" y="330"/>
      <point x="50" y="278"/>
      <point x="50" y="183" type="curve" smooth="yes" name="hr01"/>
      <point x="50" y="71"/>
      <point x="133" y="-12"/>
      <point x="287" y="-12" type="curve" smooth="yes" name="hr02"/>
      <point x="384" y="-12"/>
      <point x="443" y="21"/>
      <point x="487" y="57" type="curve"/>
    </contour>
    <contour>
      <point x="317" y="597" type="curve" smooth="yes"/>
      <point x="353" y="597"/>
      <point x="381" y="576"/>
      <point x="381" y="540" type="curve" smooth="yes"/>
      <point x="381" y="536" type="line" smooth="yes"/>
      <point x="381" y="496"/>
      <point x="357" y="470"/>
      <point x="310" y="442" type="curve"/>
      <point x="269" y="488"/>
      <point x="253" y="510"/>
      <point x="253" y="536" type="curve" smooth="yes"/>
      <point x="253" y="540" type="line" smooth="yes"/>
      <point x="253" y="576"/>
      <point x="281" y="597"/>
    </contour>
    <contour>
      <point x="309" y="111" type="curve" smooth="yes" name="hr03"/>
      <point x="237" y="111"/>
      <point x="201" y="148"/>
      <point x="201" y="199" type="curve" smooth="yes"/>
      <point x="201" y="209" type="line" smooth="yes"/>
      <point x="201" y="245"/>
      <point x="218" y="271"/>
      <point x="263" y="298" type="curve"/>
      <point x="410" y="139" type="line"/>
      <point x="383" y="121"/>
      <point x="349" y="111"/>
    </contour>
  </outline>
</glyph>
<glyph name="quotesingle" format="1">
  <advance width="268"/>
  <unicode hex="0027"/>
  <outline>
    <contour>
      <point x="200" y="414" type="line" name="hr00"/>
      <point x="200" y="740" type="line"/>
      <point x="68" y="740" type="line"/>
      <point x="68" y="414" type="line"/>
    </contour>
  </outline>
</glyph>
<glyph name="parenleft" format="1">
  <advance width="338"/>
  <unicode hex="0028"/>
  <outline>
    <contour>
      <point x="37" y="312" type="curve" smooth="yes" name="hr00"/>
      <point x="37" y="117"/>
      <point x="114" y="-54"/>
      <point x="211" y="-138" type="curve"/>
      <point x="351" y="-138" type="line"/>
      <point x="245" y="-41"/>
      <point x="177" y="100"/>
      <point x="177" y="276" type="curve" smooth="yes"/>
      <point x="177" y="346" type="line" smooth="yes"/>
      <point x="177" y="516"/>
      <point x="244" y="660"/>
      <point x="351" y="760" type="curve"/>
      <point x="212" y="760" type="line"/>
      <point x="112" y="673"/>
      <point x="37" y="505"/>
    </contour>
  </outline>
</glyph>
<glyph name="asterisk" format="1">
  <advance width="601"/>
  <unicode hex="002A"/>
  <outline>
    <contour>
      <point x="300" y="401" type="line" name="hr00"/>
      <point x="408" y="239" type="line"/>
      <point x="512" y="308" type="line"/>
      <point x="386" y="461" type="line"/>
      <point x="569" y="516" type="line"/>
      <point x="530" y="630" type="line"/>
      <point x="356" y="557" type="line"/>
      <point x="365" y="747" type="line"/>
      <point x="236" y="747" type="line"/>
      <point x="245" y="557" type="line"/>
      <point x="71" y="630" type="line"/>
      <point x="32" y="516" type="line"/>
      <point x="215" y="461" type="line"/>
      <point x="88" y="308" type="line"/>
      <point x="192" y="238" type="line"/>
    </contour>
  </outline>
</glyph>
<glyph name="plus" format="1">
  <advance width="600"/>
  <unicode hex="002B"/>
  <outline>
    <contour>
      <point x="364" y="63" type="line" name="hr00"/>
      <point x="364" y="247" type="line"/>
      <point x="533" y="247" type="line"/>
      <point x="533" y="365" type="line"/>
      <point x="364" y="365" type="line"/>
      <point x="364" y="549" type="line"/>
      <point x="236" y="549" type="line"/>
      <point x="236" y="365" type="line"/>
      <point x="67" y="365" type="line"/>
      <point x="67" y="247" type="line"/>
      <point x="236" y="247" type="line"/>
      <point x="236" y="63" type="line"/>
    </contour>
  </outline>
</glyph>
<glyph name="comma" format="1">
  <advance width="310"/>
  <unicode hex="002C"/>
  <outline>
    <contour>
      <point x="157" y="169" type="curve" smooth="yes" name="hr00"/>
      <point x="97" y="169"/>
      <point x="69" y="135"/>
      <point x="69" y="89" type="curve" smooth="yes"/>
      <point x="69" y="69" type="line" smooth="yes"/>
      <point x="69" y="30"/>
      <point x="90" y="-1"/>
      <point x="136" y="-9" type="curve"/>
      <point x="119" y="-62"/>
      <point x="85" y="-103"/>
      <point x="38" y="-147" type="curve"/>
      <point x="138" y="-147" type="line"/>
      <point x="202" y="-98"/>
      <point x="245" y="-12"/>
      <point x="245" y="69" type="curve" smooth="yes"/>
      <point x="245" y="89" type="line" smooth="yes"/>
      <point x="245" y="135"/>
      <point x="217" y="169"/>
    </contour>
  </outline>
</glyph>
<glyph name="hyphen" format="1">
  <advance width="403"/>
  <unicode hex="002D"/>
  <outline>
    <contour>
      <point x="350" y="233" type="line" name="hr00"/>
      <point x="350" y="377" type="line"/>
      <point x="53" y="377" type="line"/>
      <point x="53" y="233" type="line"/>
    </contour>
  </outline>
</glyph>
<glyph name="period" format="1">
  <advance width="310"/>
  <unicode hex="002E"/>
  <outline>
    <contour>
      <point x="155" y="-11" type="curve" smooth="yes" name="hr00"/>
      <point x="215" y="-11"/>
      <point x="243" y="23"/>
      <point x="243" y="69" type="curve" smooth="yes"/>
      <point x="243" y="89" type="line" smooth="yes"/>
      <point x="243" y="135"/>
      <point x="215" y="169"/>
      <point x="155" y="169" type="curve" smooth="yes"/>
      <point x="95" y="169"/>
      <point x="67" y="135"/>
      <point x="67" y="89" type="curve" smooth="yes"/>
      <point x="67" y="69" type="line" smooth="yes"/>
      <point x="67" y="23"/>
      <point x="95" y="-11"/>
    </contour>
  </outline>
</glyph>
<glyph name="zero" format="1">
  <advance width="600"/>
  <unicode hex="0030"/>
  <outline>
    <contour>
      <point x="300" y="-12" type="curve" smooth="yes" name="hr00"/>
      <point x="483" y="-12"/>
      <point x="569" y="121"/>
      <point x="569" y="349" type="curve" smooth="yes"/>
      <point x="569" y="577"/>
      <point x="483" y="710"/>
      <point x="300" y="710" type="curve" smooth="yes"/>
      <point x="117" y="710"/>
      <point x="31" y="577"/>
      <point x="31" y="349" type="curve" smooth="yes"/>
      <point x="31" y="121"/>
      <point x="117" y="-12"/>
    </contour>
    <contour>
      <point x="300" y="115" type="curve" smooth="yes"/>
      <point x="220" y="115"/>
      <point x="194" y="177"/>
      <point x="194" y="283" type="curve" smooth="yes"/>
      <point x="194" y="415" type="line" smooth="yes"/>
      <point x="194" y="521"/>
      <point x="220" y="583"/>
      <point x="300" y="583" type="curve" smooth="yes"/>
      <point x="380" y="583"/>
      <point x="406" y="521"/>
      <point x="406" y="415" type="curve" smooth="yes"/>
      <point x="406" y="283" type="line" smooth="yes"/>
      <point x="406" y="177"/>
      <point x="380" y="115"/>
    </contour>
  </outline>
</glyph>
<glyph name="one" format="1">
  <advance width="600"/>
  <unicode hex="0031"/>
  <outline>
    <contour>
      <point x="580" y="0" type="line" name="hr00"/>
      <point x="580" y="121" type="line"/>
      <point x="432" y="121" type="line"/>
      <point x="432" y="698" type="line"/>
      <point x="202" y="698" type="line"/>
      <point x="35" y="478" type="line"/>
      <point x="131" y="403" type="line"/>
      <point x="273" y="589" type="line"/>
      <point x="282" y="589" type="line"/>
      <point x="282" y="121" type="line"/>
      <point x="94" y="121" type="line"/>
      <point x="94" y="0" type="line"/>
    </contour>
  </outline>
</glyph>
<glyph name="three" format="1">
  <advance width="600"/>
  <unicode hex="0033"/>
  <outline>
    <contour>
      <point x="197" y="422" type="line"/>
      <point x="197" y="297" type="line"/>
      <point x="260" y="297" type="line" smooth="yes"/>
      <point x="336" y="297"/>
      <point x="382" y="268"/>
      <point x="382" y="211" type="curve" smooth="yes"/>
      <point x="382" y="205" type="line" smooth="yes"/>
      <point x="382" y="147"/>
      <point x="342" y="110"/>
      <point x="274" y="110" type="curve" smooth="yes"/>
      <point x="199" y="110"/>
      <point x="157" y="151"/>
      <point x="127" y="208" type="curve"/>
      <point x="16" y="122" type="line"/>
      <point x="61" y="51"/>
      <point x="132" y="-12"/>
      <point x="274" y="-12" type="curve" smooth="yes"/>
      <point x="432" y="-12"/>
      <point x="539" y="69"/>
      <point x="539" y="194" type="curve" smooth="yes"/>
      <point x="539" y="290"/>
      <point x="477" y="347"/>
      <point x="394" y="362" type="curve"/>
      <point x="394" y="368" type="line"/>
      <point x="466" y="381"/>
      <point x="527" y="436"/>
      <point x="527" y="525" type="curve" smooth="yes" name="hr01"/>
      <point x="527" y="637"/>
      <point x="430" y="710"/>
      <point x="280" y="710" type="curve" smooth="yes"/>
      <point x="160" y="710"/>
      <point x="92" y="662"/>
      <point x="39" y="593" type="curve"/>
      <point x="133" y="505" type="line"/>
      <point x="168" y="558"/>
      <point x="219" y="588"/>
      <point x="275" y="588" type="curve" smooth="yes"/>
      <point x="334" y="588"/>
      <point x="369" y="554"/>
      <point x="369" y="504" type="curve" smooth="yes"/>
      <point x="369" y="497" type="line" smooth="yes"/>
      <point x="369" y="454"/>
      <point x="336" y="422"/>
      <point x="262" y="422" type="curve" smooth="yes"/>
    </contour>
  </outline>
</glyph>
<glyph name="four" format="1">
  <advance width="600"/>
  <unicode hex="0034"/>
  <outline>
    <contour>
      <point x="480" y="0" type="line" name="hr00"/>
      <point x="480" y="134" type="line"/>
      <point x="568" y="134" type="line"/>
      <point x="568" y="250" type="line"/>
      <point x="480" y="250" type="line"/>
      <point x="480" y="698" type="line"/>
      <point x="302" y="698" type="line"/>
      <point x="30" y="262" type="line"/>
      <point x="30" y="134" type="line"/>
      <point x="337" y="134" type="line"/>
      <point x="337" y="0" type="line"/>
    </contour>
    <contour>
      <point x="327" y="543" type="line"/>
      <point x="337" y="543" type="line"/>
      <point x="337" y="250" type="line"/>
      <point x="150" y="250" type="line"/>
    </contour>
  </outline>
</glyph>
<glyph name="six" format="1">
  <advance width="600"/>
  <unicode hex="0036"/>
  <outline>
    <contour>
      <point x="304" y="-12" type="curve" smooth="yes" name="hr00"/>
      <point x="463" y="-12"/>
      <point x="566" y="90"/>
      <point x="566" y="233" type="curve" smooth="yes"/>
      <point x="566" y="365"/>
      <point x="477" y="450"/>
      <point x="362" y="450" type="curve" smooth="yes"/>
      <point x="273" y="450"/>
      <point x="232" y="398"/>
      <point x="208" y="345" type="curve"/>
      <point x="199" y="348" type="line"/>
      <point x="227" y="481"/>
      <point x="329" y="576"/>
      <point x="499" y="698" type="curve"/>
      <point x="292" y="698" type="line"/>
      <point x="173" y="617"/>
      <point x="42" y="461"/>
      <point x="42" y="265" type="curve" smooth="yes"/>
      <point x="42" y="97"/>
      <point x="138" y="-12"/>
    </contour>
    <contour>
      <point x="304" y="105" type="curve" smooth="yes"/>
      <point x="238" y="105"/>
      <point x="198" y="143"/>
      <point x="198" y="211" type="curve" smooth="yes"/>
      <point x="198" y="229" type="line" smooth="yes"/>
      <point x="198" y="297"/>
      <point x="238" y="335"/>
      <point x="304" y="335" type="curve" smooth="yes"/>
      <point x="370" y="335"/>
      <point x="410" y="297"/>
      <point x="410" y="229" type="curve" smooth="yes"/>
      <point x="410" y="211" type="line" smooth="yes"/>
      <point x="410" y="143"/>
      <point x="370" y="105"/>
    </contour>
  </outline>
</glyph>
<glyph name="seven" format="1">
  <advance width="600"/>
  <unicode hex="0037"/>
  <outline>
    <contour>
      <point x="324" y="0" type="line" name="hr00"/>
      <point x="549" y="568" type="line"/>
      <point x="549" y="698" type="line"/>
      <point x="55" y="698" type="line"/>
      <point x="55" y="449" type="line"/>
      <point x="182" y="449" type="line"/>
      <point x="182" y="576" type="line"/>
      <point x="400" y="576" type="line"/>
      <point x="166" y="0" type="line"/>
    </contour>
  </outline>
</glyph>
<glyph name="eight" format="1">
  <advance width="600"/>
  <unicode hex="0038"/>
  <outline>
    <contour>
      <point x="300" y="-12" type="curve" smooth="yes"/>
      <point x="465" y="-12"/>
      <point x="560" y="74"/>
      <point x="560" y="191" type="curve" smooth="yes"/>
      <point x="560" y="280"/>
      <point x="506" y="337"/>
      <point x="423" y="360" type="curve"/>
      <point x="423" y="368" type="line"/>
      <point x="491" y="393"/>
      <point x="539" y="445"/>
      <point x="539" y="526" type="curve" smooth="yes" name="hr01"/>
      <point x="539" y="633"/>
      <point x="454" y="710"/>
      <point x="300" y="710" type="curve" smooth="yes"/>
      <point x="146" y="710"/>
      <point x="61" y="633"/>
      <point x="61" y="526" type="curve" smooth="yes"/>
      <point x="61" y="445"/>
      <point x="109" y="393"/>
      <point x="177" y="368" type="curve"/>
      <point x="177" y="360" type="line"/>
      <point x="94" y="337"/>
      <point x="40" y="280"/>
      <point x="40" y="191" type="curve" smooth="yes" name="hr02"/>
      <point x="40" y="74"/>
      <point x="135" y="-12"/>
    </contour>
    <contour>
      <point x="300" y="103" type="curve" smooth="yes"/>
      <point x="234" y="103"/>
      <point x="197" y="137"/>
      <point x="197" y="192" type="curve" smooth="yes"/>
      <point x="197" y="212" type="line" smooth="yes"/>
      <point x="197" y="267"/>
      <point x="234" y="301"/>
      <point x="300" y="301" type="curve" smooth="yes"/>
      <point x="366" y="301"/>
      <point x="403" y="267"/>
      <point x="403" y="212" type="curve" smooth="yes"/>
      <point x="403" y="192" type="line" smooth="yes"/>
      <point x="403" y="137"/>
      <point x="366" y="103"/>
    </contour>
    <contour>
      <point x="300" y="411" type="curve" smooth="yes"/>
      <point x="237" y="411"/>
      <point x="202" y="443"/>
      <point x="202" y="495" type="curve" smooth="yes" name="hr03"/>
      <point x="202" y="511" type="line" smooth="yes"/>
      <point x="202" y="563"/>
      <point x="237" y="595"/>
      <point x="300" y="595" type="curve" smooth="yes"/>
      <point x="363" y="595"/>
      <point x="398" y="563"/>
      <point x="398" y="511" type="curve" smooth="yes"/>
      <point x="398" y="495" type="line" smooth="yes"/>
      <point x="398" y="443"/>
      <point x="363" y="411"/>
    </contour>
  </outline>
</glyph>
<glyph name="nine" format="1">
  <advance width="600"/>
  <unicode hex="0039"/>
  <outline>
    <contour>
      <point x="558" y="433" type="curve" smooth="yes" name="hr00"/>
      <point x="558" y="601"/>
      <point x="462" y="710"/>
      <point x="296" y="710" type="curve" smooth="yes"/>
      <point x="137" y="710"/>
      <point x="34" y="608"/>
      <point x="34" y="465" type="curve" smooth="yes"/>
      <point x="34" y="333"/>
      <point x="123" y="248"/>
      <point x="238" y="248" type="curve" smooth="yes"/>
      <point x="327" y="248"/>
      <point x="368" y="300"/>
      <point x="392" y="353" type="curve"/>
      <point x="401" y="350" type="line"/>
      <point x="373" y="217"/>
      <point x="271" y="122"/>
      <point x="101" y="0" type="curve"/>
      <point x="308" y="0" type="line"/>
      <point x="427" y="81"/>
      <point x="558" y="237"/>
    </contour>
    <contour>
      <point x="296" y="363" type="curve" smooth="yes"/>
      <point x="230" y="363"/>
      <point x="190" y="401"/>
      <point x="190" y="469" type="curve" smooth="yes"/>
      <point x="190" y="487" type="line" smooth="yes"/>
      <point x="190" y="555"/>
      <point x="230" y="593"/>
      <point x="296" y="593" type="curve" smooth="yes"/>
      <point x="362" y="593"/>
      <point x="402" y="555"/>
      <point x="402" y="487" type="curve" smooth="yes"/>
      <point x="402" y="469" type="line" smooth="yes"/>
      <point x="402" y="401"/>
      <point x="362" y="363"/>
    </contour>
  </outline>
</glyph>
<glyph name="less" format="1">
  <advance width="600"/>
  <unicode hex="003C"/>
  <outline>
    <contour>
      <point x="497" y="-2" type="line" name="hr00"/>
      <point x="497" y="148" type="line"/>
      <point x="259" y="298" type="line"/>
      <point x="259" y="305" type="line"/>
      <point x="497" y="455" type="line"/>
      <point x="497" y="604" type="line"/>
      <point x="103" y="345" type="line"/>
      <point x="103" y="258" type="line"/>
    </contour>
  </outline>
</glyph>
<glyph name="equal" format="1">
  <advance width="600"/>
  <unicode hex="003D"/>
  <outline>
    <contour>
      <point x="533" y="362" type="line" name="hr00"/>
      <point x="533" y="480" type="line"/>
      <point x="67" y="480" type="line"/>
      <point x="67" y="362" type="line"/>
    </contour>
    <contour>
      <point x="533" y="130" type="line"/>
      <point x="533" y="248" type="line"/>
      <point x="67" y="248" type="line"/>
      <point x="67" y="130" type="line"/>
    </contour>
  </outline>
</glyph>
<glyph name="greater" format="1">
  <advance width="600"/>
  <unicode hex="003E"/>
  <outline>
    <contour>
      <point x="103" y="-2" type="line" name="hr00"/>
      <point x="497" y="259" type="line"/>
      <point x="497" y="346" type="line"/>
      <point x="103" y="604" type="line"/>
      <point x="103" y="455" type="line"/>
      <point x="341" y="305" type="line"/>
      <point x="341" y="298" type="line"/>
      <point x="103" y="148" type="line"/>
    </contour>
  </outline>
</glyph>
<glyph name="A" format="1">
  <advance width="685"/>
  <unicode hex="0041"/>
  <outline>
    <contour>
      <point x="665" y="0" type="line" name="hr00"/>
      <point x="438" y="698" type="line"/>
      <point x="250" y="698" type="line"/>
      <point x="20" y="0" type="line"/>
      <point x="174" y="0" type="line"/>
      <point x="224" y="166" type="line"/>
      <point x="457" y="166" type="line"/>
      <point x="507" y="0" type="line"/>
    </contour>
    <contour>
      <point x="420" y="295" type="line"/>
      <point x="260" y="295" type="line"/>
      <point x="337" y="560" type="line"/>
      <point x="342" y="560" type="line"/>
    </contour>
    <contour>
      <point x="339.0" y="0.0" type="move" name="bottom"/>
    </contour>
    <contour>
      <point x="666.0" y="0.0" type="move" name="bottomright"/>
    </contour>
    <contour>
      <point x="339.0" y="698.0" type="move" name="top"/>
    </contour>
  </outline>
</glyph>
<glyph name="B" format="1">
  <advance width="667"/>
  <unicode hex="0042"/>
  <outline>
    <contour>
      <point x="77" y="0" type="line"/>
      <point x="447" y="0" type="line" smooth="yes"/>
      <point x="550" y="0"/>
      <point x="627" y="89"/>
      <point x="627" y="199" type="curve" smooth="yes"/>
      <point x="627" y="319"/>
      <point x="536" y="363"/>
      <point x="470" y="363" type="curve"/>
      <point x="470" y="369" type="line"/>
      <point x="541" y="372"/>
      <point x="600" y="412"/>
      <point x="600" y="519" type="curve" smooth="yes" name="hr01"/>
      <point x="600" y="627"/>
      <point x="531" y="698"/>
      <point x="416" y="698" type="curve" smooth="yes"/>
      <point x="77" y="698" type="line"/>
    </contour>
    <contour>
      <point x="229" y="288" type="line"/>
      <point x="404" y="288" type="line" smooth="yes"/>
      <point x="444" y="288"/>
      <point x="469" y="265"/>
      <point x="469" y="225" type="curve" smooth="yes" name="hr02"/>
      <point x="469" y="191" type="line" smooth="yes"/>
      <point x="469" y="151"/>
      <point x="444" y="128"/>
      <point x="404" y="128" type="curve" smooth="yes"/>
      <point x="229" y="128" type="line"/>
    </contour>
    <contour>
      <point x="229" y="570" type="line"/>
      <point x="380" y="570" type="line" smooth="yes"/>
      <point x="420" y="570"/>
      <point x="444" y="546"/>
      <point x="444" y="506" type="curve" smooth="yes" name="hr03"/>
      <point x="444" y="476" type="line" smooth="yes"/>
      <point x="444" y="436"/>
      <point x="420" y="412"/>
      <point x="380" y="412" type="curve" smooth="yes"/>
      <point x="229" y="412" type="line"/>
    </contour>
    <contour>
      <point x="353.0" y="0.0" type="move" name="bottom"/>
    </contour>
    <contour>
      <point x="353.0" y="698.0" type="move" name="top"/>
    </contour>
  </outline>
</glyph>
<glyph name="H" format="1">
  <advance width="724"/>
  <unicode hex="0048"/>
  <outline>
    <contour>
      <point x="495" y="0" type="line" name="hr00"/>
      <point x="647" y="0" type="line"/>
      <point x="647" y="698" type="line"/>
      <point x="495" y="698" type="line"/>
      <point x="495" y="420" type="line"/>
      <point x="229" y="420" type="line"/>
      <point x="229" y="698" type="line"/>
      <point x="77" y="698" type="line"/>
      <point x="77" y="0" type="line"/>
      <point x="229" y="0" type="line"/>
      <point x="229" y="286" type="line"/>
      <point x="495" y="286" type="line"/>
    </contour>
    <contour>
      <point x="362.0" y="0.0" type="move" name="bottom"/>
    </contour>
    <contour>
      <point x="362.0" y="698.0" type="move" name="top"/>
    </contour>
  </outline>
</glyph>
<glyph name="I" format="1">
  <advance width="432"/>
  <unicode hex="0049"/>
  <outline>
    <contour>
      <point x="382" y="0" type="line" name="hr00"/>
      <point x="382" y="121" type="line"/>
      <point x="292" y="121" type="line"/>
      <point x="292" y="577" type="line"/>
      <point x="382" y="577" type="line"/>
      <point x="382" y="698" type="line"/>
      <point x="50" y="698" type="line"/>
      <point x="50" y="577" type="line"/>
      <point x="140" y="577" type="line"/>
      <point x="140" y="121" type="line"/>
      <point x="50" y="121" type="line"/>
      <point x="50" y="0" type="line"/>
    </contour>
    <contour>
      <point x="216.0" y="0.0" type="move" name="bottom"/>
    </contour>
    <contour>
      <point x="384.0" y="0.0" type="move" name="bottomright"/>
    </contour>
    <contour>
      <point x="216.0" y="698.0" type="move" name="top"/>
    </contour>
  </outline>
</glyph>
<glyph name="K" format="1">
  <advance width="696"/>
  <unicode hex="004B"/>
  <outline>
    <contour>
      <point x="505" y="0" type="line" name="hr00"/>
      <point x="684" y="0" type="line"/>
      <point x="428" y="411" type="line"/>
      <point x="663" y="698" type="line"/>
      <point x="491" y="698" type="line"/>
      <point x="334" y="501" type="line"/>
      <point x="235" y="366" type="line"/>
      <point x="229" y="366" type="line"/>
      <point x="229" y="698" type="line"/>
      <point x="77" y="698" type="line"/>
      <point x="77" y="0" type="line"/>
      <point x="229" y="0" type="line"/>
      <point x="229" y="194" type="line"/>
      <point x="320" y="304" type="line"/>
    </contour>
    <contour>
      <point x="365.0" y="0.0" type="move" name="bottom"/>
    </contour>
    <contour>
      <point x="382.0" y="698.0" type="move" name="top"/>
    </contour>
  </outline>
</glyph>
<glyph name="N" format="1">
  <advance width="724"/>
  <unicode hex="004E"/>
  <outline>
    <contour>
      <point x="481" y="0" type="line" name="hr00"/>
      <point x="647" y="0" type="line"/>
      <point x="647" y="698" type="line"/>
      <point x="504" y="698" type="line"/>
      <point x="504" y="228" type="line"/>
      <point x="501" y="228" type="line"/>
      <point x="434" y="368" type="line"/>
      <point x="243" y="698" type="line"/>
      <point x="77" y="698" type="line"/>
      <point x="77" y="0" type="line"/>
      <point x="220" y="0" type="line"/>
      <point x="220" y="470" type="line"/>
      <point x="223" y="470" type="line"/>
      <point x="290" y="330" type="line"/>
    </contour>
    <contour>
      <point x="361.0" y="0.0" type="move" name="bottom"/>
    </contour>
    <contour>
      <point x="361.0" y="698.0" type="move" name="top"/>
    </contour>
  </outline>
</glyph>
<glyph name="O" format="1">
  <advance width="714"/>
  <unicode hex="004F"/>
  <outline>
    <contour>
      <point x="357" y="-12" type="curve" smooth="yes" name="hr00"/>
      <point x="542" y="-12"/>
      <point x="664" y="112"/>
      <point x="664" y="349" type="curve" smooth="yes"/>
      <point x="664" y="586"/>
      <point x="542" y="710"/>
      <point x="357" y="710" type="curve" smooth="yes"/>
      <point x="172" y="710"/>
      <point x="50" y="586"/>
      <point x="50" y="349" type="curve" smooth="yes"/>
      <point x="50" y="112"/>
      <point x="172" y="-12"/>
    </contour>
    <contour>
      <point x="357" y="123" type="curve" smooth="yes"/>
      <point x="266" y="123"/>
      <point x="211" y="186"/>
      <point x="211" y="297" type="curve" smooth="yes"/>
      <point x="211" y="401" type="line" smooth="yes"/>
      <point x="211" y="512"/>
      <point x="266" y="575"/>
      <point x="357" y="575" type="curve" smooth="yes"/>
      <point x="448" y="575"/>
      <point x="503" y="512"/>
      <point x="503" y="401" type="curve" smooth="yes"/>
      <point x="503" y="297" type="line" smooth="yes"/>
      <point x="503" y="186"/>
      <point x="448" y="123"/>
    </contour>
    <contour>
      <point x="357.0" y="0.0" type="move" name="bottom"/>
    </contour>
    <contour>
      <point x="357.0" y="698.0" type="move" name="top"/>
    </contour>
  </outline>
</glyph>
<glyph name="P" format="1">
  <advance width="656"/>
  <unicode hex="0050"/>
  <outline>
    <contour>
      <point x="229" y="0" type="line" name="hr00"/>
      <point x="229" y="252" type="line"/>
      <point x="407" y="252" type="line" smooth="yes"/>
      <point x="537" y="252"/>
      <point x="619" y="343"/>
      <point x="619" y="475" type="curve" smooth="yes"/>
      <point x="619" y="607"/>
      <point x="537" y="698"/>
      <point x="407" y="698" type="curve" smooth="yes"/>
      <point x="77" y="698" type="line"/>
      <point x="77" y="0" type="line"/>
    </contour>
    <contour>
      <point x="229" y="566" type="line"/>
      <point x="389" y="566" type="line" smooth="yes"/>
      <point x="434" y="566"/>
      <point x="462" y="542"/>
      <point x="462" y="497" type="curve" smooth="yes"/>
      <point x="462" y="453" type="line" smooth="yes"/>
      <point x="462" y="408"/>
      <point x="434" y="384"/>
      <point x="389" y="384" type="curve" smooth="yes"/>
      <point x="229" y="384" type="line"/>
    </contour>
    <contour>
      <point x="357.0" y="0.0" type="move" name="bottom"/>
    </contour>
    <contour>
      <point x="349.0" y="698.0" type="move" name="top"/>
    </contour>
  </outline>
</glyph>
<glyph name="V" format="1">
  <advance width="650"/>
  <unicode hex="0056"/>
  <outline>
    <contour>
      <point x="409" y="0" type="line" name="hr00"/>
      <point x="636" y="698" type="line"/>
      <point x="487" y="698" type="line"/>
      <point x="383" y="363" type="line"/>
      <point x="330" y="144" type="line"/>
      <point x="327" y="144" type="line"/>
      <point x="272" y="363" type="line"/>
      <point x="168" y="698" type="line"/>
      <point x="14" y="698" type="line"/>
      <point x="239" y="0" type="line"/>
    </contour>
    <contour>
      <point x="325.0" y="0.0" type="move" name="bottom"/>
    </contour>
    <contour>
      <point x="325.0" y="698.0" type="move" name="top"/>
    </contour>
  </outline>
</glyph>
<glyph name="Y" format="1">
  <advance width="649"/>
  <unicode hex="0059"/>
  <outline>
    <contour>
      <point x="401" y="0" type="line" name="hr00"/>
      <point x="401" y="274" type="line"/>
      <point x="640" y="698" type="line"/>
      <point x="475" y="698" type="line"/>
      <point x="331" y="420" type="line"/>
      <point x="329" y="420" type="line"/>
      <point x="179" y="698" type="line"/>
      <point x="9" y="698" type="line"/>
      <point x="248" y="273" type="line"/>
      <point x="248" y="0" type="line"/>
    </contour>
    <contour>
      <point x="323.0" y="0.0" type="move" name="bottom"/>
    </contour>
    <contour>
      <point x="325.0" y="698.0" type="move" name="top"/>
    </contour>
  </outline>
</glyph>
<glyph name="Z" format="1">
  <advance width="607"/>
  <unicode hex="005A"/>
  <outline>
    <contour>
      <point x="568" y="135" type="line" name="hr00"/>
      <point x="215" y="135" type="line"/>
      <point x="560" y="563" type="line"/>
      <point x="560" y="698" type="line"/>
      <point x="56" y="698" type="line"/>
      <point x="56" y="563" type="line"/>
      <point x="383" y="563" type="line"/>
      <point x="39" y="135" type="line"/>
      <point x="39" y="0" type="line"/>
      <point x="568" y="0" type="line"/>
    </contour>
    <contour>
      <point x="303.0" y="0.0" type="move" name="bottom"/>
    </contour>
    <contour>
      <point x="303.0" y="698.0" type="move" name="top"/>
    </contour>
  </outline>
</glyph>
<glyph name="bracketleft" format="1">
  <advance width="334"/>
  <unicode hex="005B"/>
  <outline>
    <contour>
      <point x="284" y="-138" type="line" name="hr00"/>
      <point x="284" y="-34" type="line"/>
      <point x="214" y="-34" type="line"/>
      <point x="214" y="656" type="line"/>
      <point x="284" y="656" type="line"/>
      <point x="284" y="760" type="line"/>
      <point x="77" y="760" type="line"/>
      <point x="77" y="-138" type="line"/>
    </contour>
  </outline>
</glyph>
<glyph name="backslash" format="1">
  <advance width="460"/>
  <unicode hex="005C"/>
  <outline>
    <contour>
      <point x="456" y="-151" type="line" name="hr00"/>
      <point x="158" y="740" type="line"/>
      <point x="36" y="740" type="line"/>
      <point x="334" y="-151" type="line"/>
    </contour>
  </outline>
</glyph>
<glyph name="bracketright" format="1">
  <advance width="334"/>
  <unicode hex="005D"/>
  <outline>
    <contour>
      <point x="50" y="760" type="line" name="hr00"/>
      <point x="50" y="656" type="line"/>
      <point x="120" y="656" type="line"/>
      <point x="120" y="-34" type="line"/>
      <point x="50" y="-34" type="line"/>
      <point x="50" y="-138" type="line"/>
      <point x="257" y="-138" type="line"/>
      <point x="257" y="760" type="line"/>
    </contour>
  </outline>
</glyph>
<glyph name="asciicircum" format="1">
  <advance width="600"/>
  <unicode hex="005E"/>
  <outline>
    <contour>
      <point x="559" y="334" type="line" name="hr00"/>
      <point x="362" y="698" type="line"/>
      <point x="242" y="698" type="line"/>
      <point x="42" y="334" type="line"/>
      <point x="154" y="277" type="line"/>
      <point x="294" y="537" type="line"/>
      <point x="300" y="537" type="line"/>
      <point x="440" y="277" type="line"/>
    </contour>
  </outline>
</glyph>
<glyph name="underscore" format="1">
  <advance width="556"/>
  <unicode hex="005F"/>
  <outline>
    <contour>
      <point x="526" y="-190" type="line" name="hr00"/>
      <point x="526" y="-67" type="line"/>
      <point x="30" y="-67" type="line"/>
      <point x="30" y="-190" type="line"/>
    </contour>
  </outline>
</glyph>
<glyph name="grave" format="1">
  <advance width="600"/>
  <unicode hex="0060"/>
  <outline>
    <contour>
      <point x="284" y="579" type="line" name="hr00"/>
      <point x="372" y="622" type="line"/>
      <point x="273" y="816" type="line"/>
      <point x="150" y="755" type="line"/>
    </contour>
    <contour>
      <point x="300.0" y="540.0" type="move" name="_top"/>
    </contour>
  </outline>
</glyph>
<glyph name="a" format="1">
  <advance width="569"/>
  <unicode hex="0061"/>
  <outline>
    <contour>
      <point x="539" y="0" type="line"/>
      <point x="539" y="115" type="line"/>
      <point x="490" y="115" type="line"/>
      <point x="490" y="345" type="line" smooth="yes"/>
      <point x="490" y="469"/>
      <point x="414" y="537"/>
      <point x="266" y="537" type="curve" smooth="yes"/>
      <point x="156" y="537"/>
      <point x="96" y="499"/>
      <point x="54" y="437" type="curve"/>
      <point x="142" y="359" type="line"/>
      <point x="165" y="391"/>
      <point x="196" y="421"/>
      <point x="255" y="421" type="curve" smooth="yes"/>
      <point x="317" y="421"/>
      <point x="342" y="389"/>
      <point x="342" y="338" type="curve" smooth="yes"/>
      <point x="342" y="305" type="line"/>
      <point x="259" y="305" type="line" smooth="yes"/>
      <point x="120" y="305"/>
      <point x="34" y="252"/>
      <point x="34" y="141" type="curve" smooth="yes"/>
      <point x="34" y="50"/>
      <point x="92" y="-12"/>
      <point x="197" y="-12" type="curve" smooth="yes" name="hr01"/>
      <point x="277" y="-12"/>
      <point x="335" y="24"/>
      <point x="351" y="92" type="curve"/>
      <point x="357" y="92" type="line"/>
      <point x="366" y="36"/>
      <point x="404" y="0"/>
      <point x="457" y="0" type="curve" smooth="yes" name="hr02"/>
    </contour>
    <contour>
      <point x="252" y="91" type="curve" smooth="yes" name="hr03"/>
      <point x="208" y="91"/>
      <point x="183" y="109"/>
      <point x="183" y="147" type="curve" smooth="yes"/>
      <point x="183" y="162" type="line" smooth="yes"/>
      <point x="183" y="200"/>
      <point x="213" y="221"/>
      <point x="270" y="221" type="curve" smooth="yes"/>
      <point x="342" y="221" type="line"/>
      <point x="342" y="159" type="line" smooth="yes"/>
      <point x="342" y="111"/>
      <point x="301" y="91"/>
    </contour>
    <contour>
      <point x="269.0" y="0.0" type="move" name="bottom"/>
    </contour>
    <contour>
      <point x="540.0" y="0.0" type="move" name="bottomright"/>
    </contour>
    <contour>
      <point x="268.0" y="540.0" type="move" name="top"/>
    </contour>
  </outline>
</glyph>
<glyph name="d" format="1">
  <advance width="608"/>
  <unicode hex="0064"/>
  <outline>
    <contour>
      <point x="391" y="0" type="line"/>
      <point x="539" y="0" type="line"/>
      <point x="539" y="740" type="line"/>
      <point x="391" y="740" type="line"/>
      <point x="391" y="437" type="line"/>
      <point x="386" y="437" type="line"/>
      <point x="371" y="495"/>
      <point x="313" y="537"/>
      <point x="245" y="537" type="curve" smooth="yes"/>
      <point x="112" y="537"/>
      <point x="43" y="441"/>
      <point x="43" y="263" type="curve" smooth="yes"/>
      <point x="43" y="85"/>
      <point x="112" y="-12"/>
      <point x="245" y="-12" type="curve" smooth="yes" name="hr01"/>
      <point x="313" y="-12"/>
      <point x="371" y="31"/>
      <point x="386" y="88" type="curve" name="hr02"/>
      <point x="391" y="88" type="line"/>
    </contour>
    <contour>
      <point x="294" y="108" type="curve" smooth="yes" name="hr03"/>
      <point x="238" y="108"/>
      <point x="197" y="151"/>
      <point x="197" y="217" type="curve" smooth="yes"/>
      <point x="197" y="308" type="line" smooth="yes"/>
      <point x="197" y="374"/>
      <point x="238" y="417"/>
      <point x="294" y="417" type="curve" smooth="yes"/>
      <point x="350" y="417"/>
      <point x="391" y="388"/>
      <point x="391" y="340" type="curve"/>
      <point x="391" y="185" type="line"/>
      <point x="391" y="137"/>
      <point x="350" y="108"/>
    </contour>
    <contour>
      <point x="291.0" y="0.0" type="move" name="bottom"/>
    </contour>
    <contour>
      <point x="602.0" y="740.0" type="move" name="topright"/>
    </contour>
  </outline>
</glyph>
<glyph name="j" format="1">
  <advance width="286"/>
  <unicode hex="006A"/>
  <outline>
    <contour>
      <point x="69" y="-85" type="line"/>
      <point x="-9" y="-85" type="line"/>
      <point x="-9" y="-200" type="line"/>
      <point x="69" y="-200" type="line" smooth="yes"/>
      <point x="172" y="-200"/>
      <point x="217" y="-149"/>
      <point x="217" y="-56" type="curve" smooth="yes"/>
      <point x="217" y="525" type="line"/>
      <point x="69" y="525" type="line"/>
    </contour>
    <contour>
      <point x="143" y="581" type="curve" smooth="yes"/>
      <point x="203" y="581"/>
      <point x="229" y="612"/>
      <point x="229" y="654" type="curve" smooth="yes" name="hr01"/>
      <point x="229" y="676" type="line" smooth="yes"/>
      <point x="229" y="718"/>
      <point x="203" y="749"/>
      <point x="143" y="749" type="curve" smooth="yes"/>
      <point x="83" y="749"/>
      <point x="57" y="718"/>
      <point x="57" y="676" type="curve" smooth="yes"/>
      <point x="57" y="654" type="line" smooth="yes"/>
      <point x="57" y="612"/>
      <point x="83" y="581"/>
    </contour>
  </outline>
</glyph>
<glyph name="k" format="1">
  <advance width="577"/>
  <unicode hex="006B"/>
  <outline>
    <contour>
      <point x="69" y="0" type="line" name="hr00"/>
      <point x="217" y="0" type="line"/>
      <point x="217" y="148" type="line"/>
      <point x="283" y="222" type="line"/>
      <point x="401" y="0" type="line"/>
      <point x="577" y="0" type="line"/>
      <point x="382" y="324" type="line"/>
      <point x="557" y="525" type="line"/>
      <point x="393" y="525" type="line"/>
      <point x="288" y="400" type="line"/>
      <point x="223" y="303" type="line"/>
      <point x="217" y="303" type="line"/>
      <point x="217" y="740" type="line"/>
      <point x="69" y="740" type="line"/>
    </contour>
    <contour>
      <point x="324.0" y="0.0" type="move" name="bottom"/>
    </contour>
  </outline>
</glyph>
<glyph name="v" format="1">
  <advance width="538"/>
  <unicode hex="0076"/>
  <outline>
    <contour>
      <point x="357" y="0" type="line" name="hr00"/>
      <point x="529" y="525" type="line"/>
      <point x="389" y="525" type="line"/>
      <point x="326" y="313" type="line"/>
      <point x="277" y="123" type="line"/>
      <point x="269" y="123" type="line"/>
      <point x="220" y="313" type="line"/>
      <point x="155" y="525" type="line"/>
      <point x="9" y="525" type="line"/>
      <point x="181" y="0" type="line"/>
    </contour>
    <contour>
      <point x="269.0" y="0.0" type="move" name="bottom"/>
    </contour>
    <contour>
      <point x="269.0" y="540.0" type="move" name="top"/>
    </contour>
  </outline>
</glyph>
<glyph name="braceleft" format="1">
  <advance width="372"/>
  <unicode hex="007B"/>
  <outline>
    <contour>
      <point x="322" y="-138" type="line" name="hr00"/>
      <point x="322" y="-34" type="line"/>
      <point x="253" y="-34" type="line"/>
      <point x="253" y="181" type="line" smooth="yes"/>
      <point x="253" y="246"/>
      <point x="205" y="298"/>
      <point x="149" y="309" type="curve"/>
      <point x="149" y="313" type="line"/>
      <point x="205" y="324"/>
      <point x="253" y="376"/>
      <point x="253" y="441" type="curve" smooth="yes"/>
      <point x="253" y="656" type="line"/>
      <point x="322" y="656" type="line"/>
      <point x="322" y="760" type="line"/>
      <point x="213" y="760" type="line" smooth="yes"/>
      <point x="159" y="760"/>
      <point x="116" y="724"/>
      <point x="116" y="659" type="curve" smooth="yes"/>
      <point x="116" y="457" type="line" smooth="yes"/>
      <point x="116" y="399"/>
      <point x="75" y="368"/>
      <point x="19" y="368" type="curve"/>
      <point x="19" y="255" type="line"/>
      <point x="75" y="255"/>
      <point x="116" y="224"/>
      <point x="116" y="166" type="curve" smooth="yes"/>
      <point x="116" y="-37" type="line" smooth="yes"/>
      <point x="116" y="-102"/>
      <point x="159" y="-138"/>
      <point x="213" y="-138" type="curve" smooth="yes"/>
    </contour>
  </outline>
</glyph>
<glyph name="bar" format="1">
  <advance width="402"/>
  <unicode hex="007C"/>
  <outline>
    <contour>
      <point x="264" y="-138" type="line" name="hr00"/>
      <point x="264" y="760" type="line"/>
      <point x="138" y="760" type="line"/>
      <point x="138" y="-138" type="line"/>
    </contour>
  </outline>
</glyph>
<glyph name="braceright" format="1">
  <advance width="372"/>
  <unicode hex="007D"/>
  <outline>
    <contour>
      <point x="50" y="760" type="line" name="hr00"/>
      <point x="50" y="656" type="line"/>
      <point x="119" y="656" type="line"/>
      <point x="119" y="442" type="line" smooth="yes"/>
      <point x="119" y="377"/>
      <point x="167" y="325"/>
      <point x="223" y="314" type="curve"/>
      <point x="223" y="310" type="line"/>
      <point x="167" y="299"/>
      <point x="119" y="247"/>
      <point x="119" y="182" type="curve" smooth="yes"/>
      <point x="119" y="-34" type="line"/>
      <point x="50" y="-34" type="line"/>
      <point x="50" y="-138" type="line"/>
      <point x="159" y="-138" type="line" smooth="yes"/>
      <point x="213" y="-138"/>
      <point x="256" y="-102"/>
      <point x="256" y="-37" type="curve" smooth="yes"/>
      <point x="256" y="166" type="line" smooth="yes"/>
      <point x="256" y="224"/>
      <point x="297" y="255"/>
      <point x="353" y="255" type="curve"/>
      <point x="353" y="368" type="line"/>
      <point x="297" y="368"/>
      <point x="256" y="399"/>
      <point x="256" y="457" type="curve" smooth="yes"/>
      <point x="256" y="659" type="line" smooth="yes"/>
      <point x="256" y="724"/>
      <point x="213" y="760"/>
      <point x="159" y="760" type="curve" smooth="yes"/>
    </contour>
  </outline>
</glyph>
<glyph name="cent" format="1">
  <advance width="552"/>
  <unicode hex="00A2"/>
  <outline>
    <contour>
      <point x="347" y="-114" type="line" name="hr00"/>
      <point x="347" y="-8" type="line"/>
      <point x="431" y="4"/>
      <point x="486" y="51"/>
      <point x="516" y="114" type="curve"/>
      <point x="411" y="173" type="line"/>
      <point x="395" y="143"/>
      <point x="372" y="116"/>
      <point x="338" y="104" type="curve"/>
      <point x="338" y="411" type="line"/>
      <point x="368" y="399"/>
      <point x="389" y="373"/>
      <point x="402" y="344" type="curve"/>
      <point x="508" y="402" type="line"/>
      <point x="479" y="465"/>
      <point x="428" y="511"/>
      <point x="347" y="524" type="curve"/>
      <point x="347" y="630" type="line"/>
      <point x="237" y="630" type="line"/>
      <point x="237" y="523" type="line"/>
      <point x="114" y="500"/>
      <point x="41" y="403"/>
      <point x="41" y="258" type="curve" smooth="yes"/>
      <point x="41" y="113"/>
      <point x="113" y="17"/>
      <point x="237" y="-7" type="curve"/>
      <point x="237" y="-114" type="line"/>
    </contour>
    <contour>
      <point x="182" y="216" type="curve" smooth="yes"/>
      <point x="182" y="300" type="line" smooth="yes"/>
      <point x="182" y="353"/>
      <point x="205" y="393"/>
      <point x="247" y="410" type="curve"/>
      <point x="247" y="106" type="line"/>
      <point x="204" y="123"/>
      <point x="182" y="163"/>
    </contour>
  </outline>
</glyph>
<glyph name="sterling" format="1">
  <advance width="582"/>
  <unicode hex="00A3"/>
  <outline>
    <contour>
      <point x="554" y="0" type="line"/>
      <point x="554" y="128" type="line"/>
      <point x="220" y="128" type="line"/>
      <point x="220" y="137" type="line"/>
      <point x="255" y="155"/>
      <point x="297" y="193"/>
      <point x="297" y="263" type="curve" smooth="yes"/>
      <point x="297" y="273"/>
      <point x="296" y="282"/>
      <point x="295" y="291" type="curve"/>
      <point x="445" y="291" type="line"/>
      <point x="445" y="411" type="line"/>
      <point x="249" y="411" type="line"/>
      <point x="241" y="433"/>
      <point x="235" y="455"/>
      <point x="235" y="481" type="curve" smooth="yes" name="hr01"/>
      <point x="235" y="543"/>
      <point x="271" y="579"/>
      <point x="336" y="579" type="curve" smooth="yes"/>
      <point x="384" y="579"/>
      <point x="421" y="560"/>
      <point x="458" y="512" type="curve"/>
      <point x="568" y="589" type="line"/>
      <point x="515" y="669"/>
      <point x="440" y="710"/>
      <point x="332" y="710" type="curve" smooth="yes"/>
      <point x="180" y="710"/>
      <point x="82" y="628"/>
      <point x="82" y="505" type="curve" smooth="yes"/>
      <point x="82" y="470"/>
      <point x="90" y="439"/>
      <point x="100" y="411" type="curve"/>
      <point x="34" y="411" type="line"/>
      <point x="34" y="291" type="line"/>
      <point x="145" y="291" type="line"/>
      <point x="148" y="280"/>
      <point x="149" y="269"/>
      <point x="149" y="258" type="curve" smooth="yes" name="hr02"/>
      <point x="149" y="201"/>
      <point x="117" y="159"/>
      <point x="66" y="136" type="curve"/>
      <point x="66" y="0" type="line"/>
    </contour>
  </outline>
</glyph>
<glyph name="currency" format="1">
  <advance width="628"/>
  <unicode hex="00A4"/>
  <outline>
    <contour>
      <point x="314" y="107" type="curve" smooth="yes" name="hr00"/>
      <point x="365" y="107"/>
      <point x="411" y="118"/>
      <point x="446" y="137" type="curve"/>
      <point x="537" y="45" type="line"/>
      <point x="618" y="125" type="line"/>
      <point x="527" y="216" type="line"/>
      <point x="548" y="252"/>
      <point x="559" y="297"/>
      <point x="559" y="349" type="curve" smooth="yes"/>
      <point x="559" y="401"/>
      <point x="548" y="446"/>
      <point x="527" y="482" type="curve"/>
      <point x="618" y="573" type="line"/>
      <point x="537" y="653" type="line"/>
      <point x="446" y="561" type="line"/>
      <point x="411" y="580"/>
      <point x="365" y="591"/>
      <point x="314" y="591" type="curve" smooth="yes"/>
      <point x="263" y="591"/>
      <point x="217" y="580"/>
      <point x="182" y="561" type="curve"/>
      <point x="91" y="653" type="line"/>
      <point x="10" y="573" type="line"/>
      <point x="101" y="482" type="line"/>
      <point x="80" y="446"/>
      <point x="69" y="401"/>
      <point x="69" y="349" type="curve" smooth="yes"/>
      <point x="69" y="297"/>
      <point x="80" y="252"/>
      <point x="101" y="216" type="curve"/>
      <point x="10" y="125" type="line"/>
      <point x="91" y="45" type="line"/>
      <point x="182" y="137" type="line"/>
      <point x="217" y="118"/>
      <point x="263" y="107"/>
    </contour>
    <contour>
      <point x="314" y="214" type="curve" smooth="yes"/>
      <point x="253" y="214"/>
      <point x="217" y="253"/>
      <point x="217" y="321" type="curve" smooth="yes"/>
      <point x="217" y="377" type="line" smooth="yes"/>
      <point x="217" y="445"/>
      <point x="253" y="484"/>
      <point x="314" y="484" type="curve" smooth="yes"/>
      <point x="375" y="484"/>
      <point x="411" y="445"/>
      <point x="411" y="377" type="curve" smooth="yes"/>
      <point x="411" y="321" type="line" smooth="yes"/>
      <point x="411" y="253"/>
      <point x="375" y="214"/>
    </contour>
  </outline>
</glyph>
<glyph name="yen" format="1">
  <advance width="650"/>
  <unicode hex="00A5"/>
  <outline>
    <contour>
      <point x="567" y="133" type="line" name="hr00"/>
      <point x="567" y="223" type="line"/>
      <point x="399" y="223" type="line"/>
      <point x="399" y="291" type="line"/>
      <point x="567" y="291" type="line"/>
      <point x="567" y="381" type="line"/>
      <point x="457" y="381" type="line"/>
      <point x="631" y="698" type="line"/>
      <point x="468" y="698" type="line"/>
      <point x="331" y="423" type="line"/>
      <point x="329" y="423" type="line"/>
      <point x="191" y="698" type="line"/>
      <point x="19" y="698" type="line"/>
      <point x="188" y="381" type="line"/>
      <point x="78" y="381" type="line"/>
      <point x="78" y="291" type="line"/>
      <point x="246" y="291" type="line"/>
      <point x="246" y="223" type="line"/>
      <point x="78" y="223" type="line"/>
      <point x="78" y="133" type="line"/>
      <point x="246" y="133" type="line"/>
      <point x="246" y="0" type="line"/>
      <point x="399" y="0" type="line"/>
      <point x="399" y="133" type="line"/>
    </contour>
  </outline>
</glyph>
<glyph name="section" format="1">
  <advance width="569"/>
  <unicode hex="00A7"/>
  <outline>
    <contour>
      <point x="488" y="13" type="curve" smooth="yes"/>
      <point x="488" y="76"/>
      <point x="458" y="122"/>
      <point x="411" y="153" type="curve"/>
      <point x="411" y="169" type="line"/>
      <point x="485" y="200"/>
      <point x="519" y="250"/>
      <point x="519" y="307" type="curve" smooth="yes" name="hr01"/>
      <point x="519" y="366"/>
      <point x="481" y="426"/>
      <point x="368" y="457" type="curve" smooth="yes"/>
      <point x="291" y="478" type="line" smooth="yes"/>
      <point x="231" y="494"/>
      <point x="204" y="511"/>
      <point x="204" y="546" type="curve" smooth="yes"/>
      <point x="204" y="588"/>
      <point x="242" y="605"/>
      <point x="293" y="605" type="curve" smooth="yes"/>
      <point x="351" y="605"/>
      <point x="389" y="584"/>
      <point x="424" y="550" type="curve"/>
      <point x="497" y="638" type="line"/>
      <point x="439" y="692"/>
      <point x="367" y="710"/>
      <point x="296" y="710" type="curve" smooth="yes"/>
      <point x="170" y="710"/>
      <point x="80" y="650"/>
      <point x="80" y="541" type="curve" smooth="yes"/>
      <point x="80" y="479"/>
      <point x="110" y="433"/>
      <point x="157" y="402" type="curve"/>
      <point x="157" y="385" type="line"/>
      <point x="84" y="354"/>
      <point x="50" y="304"/>
      <point x="50" y="247" type="curve" smooth="yes" name="hr02"/>
      <point x="50" y="189"/>
      <point x="87" y="130"/>
      <point x="200" y="99" type="curve" smooth="yes"/>
      <point x="277" y="78" type="line" smooth="yes"/>
      <point x="337" y="62"/>
      <point x="364" y="44"/>
      <point x="364" y="7" type="curve" smooth="yes"/>
      <point x="364" y="-34"/>
      <point x="327" y="-56"/>
      <point x="273" y="-56" type="curve" smooth="yes"/>
      <point x="221" y="-56"/>
      <point x="179" y="-36"/>
      <point x="144" y="-1" type="curve"/>
      <point x="72" y="-89" type="line"/>
      <point x="129" y="-142"/>
      <point x="202" y="-161"/>
      <point x="271" y="-161" type="curve" smooth="yes"/>
      <point x="399" y="-161"/>
      <point x="488" y="-96"/>
    </contour>
    <contour>
      <point x="396" y="262" type="curve" smooth="yes" name="hr03"/>
      <point x="396" y="232"/>
      <point x="383" y="205"/>
      <point x="361" y="179" type="curve"/>
      <point x="350" y="183"/>
      <point x="339" y="187"/>
      <point x="328" y="190" type="curve" smooth="yes"/>
      <point x="252" y="211" type="line" smooth="yes"/>
      <point x="188" y="229"/>
      <point x="172" y="259"/>
      <point x="172" y="292" type="curve" smooth="yes"/>
      <point x="172" y="323"/>
      <point x="185" y="350"/>
      <point x="208" y="376" type="curve"/>
      <point x="219" y="372"/>
      <point x="229" y="369"/>
      <point x="240" y="366" type="curve" smooth="yes"/>
      <point x="316" y="345" type="line" smooth="yes"/>
      <point x="380" y="327"/>
      <point x="396" y="296"/>
    </contour>
  </outline>
</glyph>
<glyph name="dieresis" format="1">
  <advance width="600"/>
  <unicode hex="00A8"/>
  <outline>
    <contour>
      <point x="190" y="600" type="curve" smooth="yes" name="hr00"/>
      <point x="250" y="600"/>
      <point x="270" y="628"/>
      <point x="270" y="663" type="curve" smooth="yes"/>
      <point x="270" y="688" type="line" smooth="yes"/>
      <point x="270" y="723"/>
      <point x="250" y="751"/>
      <point x="190" y="751" type="curve" smooth="yes"/>
      <point x="130" y="751"/>
      <point x="110" y="723"/>
      <point x="110" y="688" type="curve" smooth="yes"/>
      <point x="110" y="663" type="line" smooth="yes"/>
      <point x="110" y="628"/>
      <point x="130" y="600"/>
    </contour>
    <contour>
      <point x="410" y="600" type="curve" smooth="yes"/>
      <point x="470" y="600"/>
      <point x="490" y="628"/>
      <point x="490" y="663" type="curve" smooth="yes"/>
      <point x="490" y="688" type="line" smooth="yes"/>
      <point x="490" y="723"/>
      <point x="470" y="751"/>
      <point x="410" y="751" type="curve" smooth="yes"/>
      <point x="350" y="751"/>
      <point x="330" y="723"/>
      <point x="330" y="688" type="curve" smooth="yes"/>
      <point x="330" y="663" type="line" smooth="yes"/>
      <point x="330" y="628"/>
      <point x="350" y="600"/>
    </contour>
    <contour>
      <point x="300.0" y="540.0" type="move" name="_top"/>
    </contour>
  </outline>
</glyph>
<glyph name="ordfeminine" format="1">
  <advance width="449"/>
  <unicode hex="00AA"/>
  <outline>
    <contour>
      <point x="405" y="405" type="line"/>
      <point x="366" y="405" type="line"/>
      <point x="366" y="567" type="line" smooth="yes"/>
      <point x="366" y="658"/>
      <point x="307" y="704"/>
      <point x="211" y="704" type="curve" smooth="yes"/>
      <point x="131" y="704"/>
      <point x="80" y="675"/>
      <point x="56" y="633" type="curve"/>
      <point x="112" y="583" type="line"/>
      <point x="131" y="609"/>
      <point x="156" y="628"/>
      <point x="199" y="628" type="curve" smooth="yes"/>
      <point x="245" y="628"/>
      <point x="262" y="607"/>
      <point x="262" y="563" type="curve" smooth="yes"/>
      <point x="262" y="544" type="line"/>
      <point x="206" y="544" type="line" smooth="yes"/>
      <point x="102" y="544"/>
      <point x="46" y="508"/>
      <point x="46" y="433" type="curve" smooth="yes"/>
      <point x="46" y="364"/>
      <point x="92" y="324"/>
      <point x="160" y="324" type="curve" smooth="yes" name="hr01"/>
      <point x="214" y="324"/>
      <point x="255" y="348"/>
      <point x="268" y="394" type="curve"/>
      <point x="272" y="394" type="line"/>
      <point x="278" y="345"/>
      <point x="312" y="330"/>
      <point x="345" y="330" type="curve" smooth="yes" name="hr02"/>
      <point x="405" y="330" type="line"/>
    </contour>
    <contour>
      <point x="262" y="488" type="line"/>
      <point x="262" y="444" type="line" smooth="yes"/>
      <point x="262" y="409"/>
      <point x="235" y="392"/>
      <point x="200" y="392" type="curve" smooth="yes" name="hr03"/>
      <point x="168" y="392"/>
      <point x="147" y="404"/>
      <point x="147" y="431" type="curve" smooth="yes"/>
      <point x="147" y="445" type="line" smooth="yes"/>
      <point x="147" y="473"/>
      <point x="169" y="488"/>
      <point x="209" y="488" type="curve" smooth="yes"/>
    </contour>
  </outline>
</glyph>
<glyph name="logicalnot" format="1">
  <advance width="600"/>
  <unicode hex="00AC"/>
  <outline>
    <contour>
      <point x="533" y="78" type="line" name="hr00"/>
      <point x="533" y="365" type="line"/>
      <point x="52" y="365" type="line"/>
      <point x="52" y="247" type="line"/>
      <point x="412" y="247" type="line"/>
      <point x="412" y="78" type="line"/>
    </contour>
  </outline>
</glyph>
<glyph name="registered" format="1">
  <advance width="464"/>
  <unicode hex="00AE"/>
  <outline>
    <contour>
      <point x="232" y="298" type="curve" smooth="yes" name="hr00"/>
      <point x="345" y="298"/>
      <point x="434" y="386"/>
      <point x="434" y="504" type="curve" smooth="yes"/>
      <point x="434" y="622"/>
      <point x="345" y="710"/>
      <point x="232" y="710" type="curve" smooth="yes"/>
      <point x="119" y="710"/>
      <point x="30" y="622"/>
      <point x="30" y="504" type="curve" smooth="yes"/>
      <point x="30" y="386"/>
      <point x="119" y="298"/>
    </contour>
    <contour>
      <point x="232" y="345" type="curve" smooth="yes"/>
      <point x="152" y="345"/>
      <point x="84" y="398"/>
      <point x="84" y="488" type="curve" smooth="yes"/>
      <point x="84" y="520" type="line" smooth="yes"/>
      <point x="84" y="610"/>
      <point x="152" y="663"/>
      <point x="232" y="663" type="curve" smooth="yes"/>
      <point x="312" y="663"/>
      <point x="380" y="610"/>
      <point x="380" y="520" type="curve" smooth="yes"/>
      <point x="380" y="488" type="line" smooth="yes"/>
      <point x="380" y="398"/>
      <point x="312" y="345"/>
    </contour>
    <contour>
      <point x="209" y="461" type="line"/>
      <point x="232" y="461" type="line"/>
      <point x="264" y="400" type="line"/>
      <point x="333" y="400" type="line"/>
      <point x="290" y="473" type="line"/>
      <point x="313" y="484"/>
      <point x="327" y="506"/>
      <point x="327" y="539" type="curve" smooth="yes"/>
      <point x="327" y="579"/>
      <point x="303" y="609"/>
      <point x="247" y="609" type="curve" smooth="yes"/>
      <point x="145" y="609" type="line"/>
      <point x="145" y="400" type="line"/>
      <point x="209" y="400" type="line"/>
    </contour>
    <contour>
      <point x="209" y="508" type="line"/>
      <point x="209" y="561" type="line"/>
      <point x="234" y="561" type="line" smooth="yes"/>
      <point x="252" y="561"/>
      <point x="262" y="554"/>
      <point x="262" y="538" type="curve" smooth="yes"/>
      <point x="262" y="531" type="line" smooth="yes"/>
      <point x="262" y="515"/>
      <point x="252" y="508"/>
      <point x="234" y="508" type="curve" smooth="yes"/>
    </contour>
  </outline>
</glyph>
<glyph name="macron" format="1">
  <advance width="600"/>
  <unicode hex="00AF"/>
  <outline>
    <contour>
      <point x="147" y="624" type="line" name="hr00"/>
      <point x="453" y="624" type="line"/>
      <point x="453" y="727" type="line"/>
      <point x="147" y="727" type="line"/>
    </contour>
    <contour>
      <point x="300.0" y="540.0" type="move" name="_top"/>
    </contour>
  </outline>
</glyph>
<glyph name="degree" format="1">
  <advance width="470"/>
  <unicode hex="00B0"/>
  <outline>
    <contour>
      <point x="235" y="334" type="curve" smooth="yes" name="hr00"/>
      <point x="340" y="334"/>
      <point x="420" y="414"/>
      <point x="420" y="522" type="curve" smooth="yes"/>
      <point x="420" y="630"/>
      <point x="340" y="710"/>
      <point x="235" y="710" type="curve" smooth="yes"/>
      <point x="130" y="710"/>
      <point x="50" y="630"/>
      <point x="50" y="522" type="curve" smooth="yes"/>
      <point x="50" y="414"/>
      <point x="130" y="334"/>
    </contour>
    <contour>
      <point x="235" y="429" type="curve" smooth="yes"/>
      <point x="184" y="429"/>
      <point x="151" y="469"/>
      <point x="151" y="522" type="curve" smooth="yes"/>
      <point x="151" y="575"/>
      <point x="184" y="615"/>
      <point x="235" y="615" type="curve" smooth="yes"/>
      <point x="286" y="615"/>
      <point x="319" y="575"/>
      <point x="319" y="522" type="curve" smooth="yes"/>
      <point x="319" y="469"/>
      <point x="286" y="429"/>
    </contour>
  </outline>
</glyph>
<glyph name="plusminus" format="1">
  <advance width="600"/>
  <unicode hex="00B1"/>
  <outline>
    <contour>
      <point x="364" y="184" type="line" name="hr00"/>
      <point x="364" y="351" type="line"/>
      <point x="533" y="351" type="line"/>
      <point x="533" y="470" type="line"/>
      <point x="364" y="470" type="line"/>
      <point x="364" y="635" type="line"/>
      <point x="236" y="635" type="line"/>
      <point x="236" y="470" type="line"/>
      <point x="67" y="470" type="line"/>
      <point x="67" y="351" type="line"/>
      <point x="236" y="351" type="line"/>
      <point x="236" y="184" type="line"/>
    </contour>
    <contour>
      <point x="533" y="0" type="line"/>
      <point x="533" y="119" type="line"/>
      <point x="67" y="119" type="line"/>
      <point x="67" y="0" type="line"/>
    </contour>
  </outline>
</glyph>
<glyph name="threesuperior" format="1">
  <advance width="345"/>
  <unicode hex="00B3"/>
  <outline>
    <contour>
      <point x="117" y="558" type="line"/>
      <point x="117" y="476" type="line"/>
      <point x="148" y="476" type="line" smooth="yes"/>
      <point x="184" y="476"/>
      <point x="209" y="467"/>
      <point x="209" y="444" type="curve" smooth="yes"/>
      <point x="209" y="442" type="line" smooth="yes"/>
      <point x="209" y="418"/>
      <point x="190" y="402"/>
      <point x="159" y="402" type="curve" smooth="yes"/>
      <point x="119" y="402"/>
      <point x="95" y="425"/>
      <point x="80" y="456" type="curve"/>
      <point x="4" y="398" type="line"/>
      <point x="30" y="357"/>
      <point x="73" y="323"/>
      <point x="159" y="323" type="curve" smooth="yes"/>
      <point x="252" y="323"/>
      <point x="316" y="365"/>
      <point x="316" y="433" type="curve" smooth="yes"/>
      <point x="316" y="480"/>
      <point x="284" y="510"/>
      <point x="234" y="518" type="curve"/>
      <point x="234" y="522" type="line"/>
      <point x="275" y="527"/>
      <point x="310" y="557"/>
      <point x="310" y="603" type="curve" smooth="yes" name="hr01"/>
      <point x="310" y="663"/>
      <point x="254" y="704"/>
      <point x="160" y="704" type="curve" smooth="yes"/>
      <point x="90" y="704"/>
      <point x="50" y="682"/>
      <point x="15" y="641" type="curve"/>
      <point x="77" y="582" type="line"/>
      <point x="98" y="610"/>
      <point x="129" y="625"/>
      <point x="157" y="625" type="curve" smooth="yes"/>
      <point x="186" y="625"/>
      <point x="202" y="608"/>
      <point x="202" y="589" type="curve" smooth="yes"/>
      <point x="202" y="585" type="line" smooth="yes"/>
      <point x="202" y="570"/>
      <point x="187" y="558"/>
      <point x="151" y="558" type="curve" smooth="yes"/>
    </contour>
  </outline>
</glyph>
<glyph name="acute" format="1">
  <advance width="600"/>
  <unicode hex="00B4"/>
  <outline>
    <contour>
      <point x="450" y="755" type="line" name="hr00"/>
      <point x="327" y="816" type="line"/>
      <point x="228" y="622" type="line"/>
      <point x="316" y="579" type="line"/>
    </contour>
    <contour>
      <point x="300.0" y="540.0" type="move" name="_top"/>
    </contour>
  </outline>
</glyph>
<glyph name="mu" format="1">
  <advance width="602"/>
  <unicode hex="00B5"/>
  <outline>
    <contour>
      <point x="217" y="-200" type="line"/>
      <point x="217" y="-106" type="line"/>
      <point x="187" y="30" type="line"/>
      <point x="192" y="30" type="line"/>
      <point x="203" y="6"/>
      <point x="226" y="-12"/>
      <point x="264" y="-12" type="curve" smooth="yes"/>
      <point x="324" y="-12"/>
      <point x="363" y="34"/>
      <point x="380" y="88" type="curve"/>
      <point x="385" y="88" type="line"/>
      <point x="385" y="0" type="line" name="hr01"/>
      <point x="533" y="0" type="line"/>
      <point x="533" y="525" type="line"/>
      <point x="385" y="525" type="line"/>
      <point x="385" y="185" type="line"/>
      <point x="385" y="137"/>
      <point x="342" y="108"/>
      <point x="291" y="108" type="curve" smooth="yes" name="hr02"/>
      <point x="238" y="108"/>
      <point x="217" y="143"/>
      <point x="217" y="206" type="curve" smooth="yes"/>
      <point x="217" y="525" type="line"/>
      <point x="69" y="525" type="line"/>
      <point x="69" y="-200" type="line"/>
    </contour>
  </outline>
</glyph>
<glyph name="paragraph" format="1">
  <advance width="677"/>
  <unicode hex="00B6"/>
  <outline>
    <contour>
      <point x="242" y="-149" type="line" name="hr00"/>
      <point x="351" y="-149" type="line"/>
      <point x="351" y="592" type="line"/>
      <point x="449" y="592" type="line"/>
      <point x="449" y="-149" type="line"/>
      <point x="558" y="-149" type="line"/>
      <point x="558" y="592" type="line"/>
      <point x="624" y="592" type="line"/>
      <point x="624" y="698" type="line"/>
      <point x="242" y="698" type="line" smooth="yes"/>
      <point x="124" y="698"/>
      <point x="31" y="599"/>
      <point x="31" y="479" type="curve" smooth="yes"/>
      <point x="31" y="359"/>
      <point x="124" y="260"/>
      <point x="242" y="260" type="curve"/>
    </contour>
  </outline>
</glyph>
<glyph name="onesuperior" format="1">
  <advance width="344"/>
  <unicode hex="00B9"/>
  <outline>
    <contour>
      <point x="324" y="329" type="line" name="hr00"/>
      <point x="324" y="408" type="line"/>
      <point x="243" y="408" type="line"/>
      <point x="243" y="698" type="line"/>
      <point x="93" y="698" type="line"/>
      <point x="8" y="583" type="line"/>
      <point x="75" y="535" type="line"/>
      <point x="136" y="618" type="line"/>
      <point x="142" y="618" type="line"/>
      <point x="142" y="408" type="line"/>
      <point x="49" y="408" type="line"/>
      <point x="49" y="329" type="line"/>
    </contour>
  </outline>
</glyph>
<glyph name="ordmasculine" format="1">
  <advance width="433"/>
  <unicode hex="00BA"/>
  <outline>
    <contour>
      <point x="217" y="324" type="curve" smooth="yes" name="hr00"/>
      <point x="329" y="324"/>
      <point x="396" y="397"/>
      <point x="396" y="514" type="curve" smooth="yes"/>
      <point x="396" y="631"/>
      <point x="329" y="704"/>
      <point x="217" y="704" type="curve" smooth="yes"/>
      <point x="105" y="704"/>
      <point x="38" y="631"/>
      <point x="38" y="514" type="curve" smooth="yes"/>
      <point x="38" y="397"/>
      <point x="105" y="324"/>
    </contour>
    <contour>
      <point x="217" y="402" type="curve" smooth="yes"/>
      <point x="172" y="402"/>
      <point x="145" y="430"/>
      <point x="145" y="485" type="curve" smooth="yes"/>
      <point x="145" y="543" type="line" smooth="yes"/>
      <point x="145" y="598"/>
      <point x="172" y="626"/>
      <point x="217" y="626" type="curve" smooth="yes"/>
      <point x="262" y="626"/>
      <point x="289" y="598"/>
      <point x="289" y="543" type="curve" smooth="yes"/>
      <point x="289" y="485" type="line" smooth="yes"/>
      <point x="289" y="430"/>
      <point x="262" y="402"/>
    </contour>
  </outline>
</glyph>
<glyph name="questiondown" format="1">
  <advance width="494"/>
  <unicode hex="00BF"/>
  <outline>
    <contour>
      <point x="260" y="-185" type="curve" smooth="yes"/>
      <point x="396" y="-185"/>
      <point x="463" y="-105"/>
      <point x="486" y="-25" type="curve"/>
      <point x="364" y="26" type="line"/>
      <point x="352" y="-23"/>
      <point x="317" y="-59"/>
      <point x="265" y="-59" type="curve" smooth="yes"/>
      <point x="217" y="-59"/>
      <point x="184" y="-32"/>
      <point x="184" y="19" type="curve" smooth="yes"/>
      <point x="184" y="33" type="line" smooth="yes"/>
      <point x="184" y="107"/>
      <point x="237" y="135"/>
      <point x="342" y="139" type="curve"/>
      <point x="342" y="292" type="line"/>
      <point x="202" y="292" type="line"/>
      <point x="202" y="220" type="line"/>
      <point x="108" y="205"/>
      <point x="27" y="133"/>
      <point x="27" y="21" type="curve" smooth="yes"/>
      <point x="27" y="-101"/>
      <point x="120" y="-185"/>
    </contour>
    <contour>
      <point x="270" y="361" type="curve" smooth="yes"/>
      <point x="333" y="361"/>
      <point x="359" y="394"/>
      <point x="359" y="437" type="curve" smooth="yes" name="hr01"/>
      <point x="359" y="461" type="line" smooth="yes"/>
      <point x="359" y="504"/>
      <point x="333" y="537"/>
      <point x="270" y="537" type="curve" smooth="yes"/>
      <point x="207" y="537"/>
      <point x="181" y="504"/>
      <point x="181" y="461" type="curve" smooth="yes"/>
      <point x="181" y="437" type="line" smooth="yes"/>
      <point x="181" y="394"/>
      <point x="207" y="361"/>
    </contour>
  </outline>
</glyph>
<glyph name="AE" format="1">
  <advance width="968"/>
  <unicode hex="00C6"/>
  <outline>
    <contour>
      <point x="438" y="0" type="line"/>
      <point x="913" y="0" type="line"/>
      <point x="913" y="135" type="line"/>
      <point x="589" y="135" type="line"/>
      <point x="589" y="286" type="line"/>
      <point x="867" y="286" type="line"/>
      <point x="867" y="420" type="line"/>
      <point x="589" y="420" type="line"/>
      <point x="589" y="563" type="line"/>
      <point x="913" y="563" type="line"/>
      <point x="913" y="698" type="line"/>
      <point x="340" y="698" type="line"/>
      <point x="-1" y="0" type="line"/>
      <point x="151" y="0" type="line"/>
      <point x="229" y="166" type="line" name="hr01"/>
      <point x="438" y="166" type="line"/>
    </contour>
    <contour>
      <point x="438" y="563" type="line"/>
      <point x="438" y="295" type="line"/>
      <point x="290" y="295" type="line"/>
      <point x="415" y="563" type="line"/>
    </contour>
    <contour>
      <point x="645.0" y="698.0" type="move" name="top"/>
    </contour>
  </outline>
</glyph>
<glyph name="multiply" format="1">
  <advance width="600"/>
  <unicode hex="00D7"/>
  <outline>
    <contour>
      <point x="439" y="71" type="line" name="hr00"/>
      <point x="521" y="153" type="line"/>
      <point x="382" y="299" type="line"/>
      <point x="521" y="445" type="line"/>
      <point x="439" y="527" type="line"/>
      <point x="300" y="381" type="line"/>
      <point x="161" y="527" type="line"/>
      <point x="79" y="445" type="line"/>
      <point x="218" y="299" type="line"/>
      <point x="79" y="153" type="line"/>
      <point x="161" y="71" type="line"/>
      <point x="300" y="217" type="line"/>
    </contour>
  </outline>
</glyph>
<glyph name="Thorn" format="1">
  <advance width="656"/>
  <unicode hex="00DE"/>
  <outline>
    <contour>
      <point x="229" y="0" type="line" name="hr00"/>
      <point x="229" y="132" type="line"/>
      <point x="407" y="132" type="line" smooth="yes"/>
      <point x="537" y="132"/>
      <point x="619" y="225"/>
      <point x="619" y="355" type="curve" smooth="yes"/>
      <point x="619" y="485"/>
      <point x="537" y="578"/>
      <point x="407" y="578" type="curve" smooth="yes"/>
      <point x="229" y="578" type="line"/>
      <point x="229" y="698" type="line"/>
      <point x="77" y="698" type="line"/>
      <point x="77" y="0" type="line"/>
    </contour>
    <contour>
      <point x="229" y="446" type="line"/>
      <point x="389" y="446" type="line" smooth="yes"/>
      <point x="434" y="446"/>
      <point x="462" y="422"/>
      <point x="462" y="377" type="curve" smooth="yes"/>
      <point x="462" y="333" type="line" smooth="yes"/>
      <point x="462" y="288"/>
      <point x="434" y="264"/>
      <point x="389" y="264" type="curve" smooth="yes"/>
      <point x="229" y="264" type="line"/>
    </contour>
  </outline>
</glyph>
<glyph name="germandbls" format="1">
  <advance width="692"/>
  <unicode hex="00DF"/>
  <outline>
    <contour>
      <point x="667" y="173" type="curve" smooth="yes"/>
      <point x="667" y="255"/>
      <point x="623" y="298"/>
      <point x="551" y="321" type="curve" smooth="yes"/>
      <point x="520" y="331" type="line" smooth="yes"/>
      <point x="478" y="345"/>
      <point x="458" y="355"/>
      <point x="458" y="387" type="curve" smooth="yes"/>
      <point x="458" y="422"/>
      <point x="481" y="434"/>
      <point x="543" y="434" type="curve" smooth="yes"/>
      <point x="599" y="434" type="line" name="hr01"/>
      <point x="599" y="531" type="line" smooth="yes"/>
      <point x="599" y="671"/>
      <point x="499" y="752"/>
      <point x="349" y="752" type="curve" smooth="yes"/>
      <point x="199" y="752"/>
      <point x="95" y="669"/>
      <point x="95" y="529" type="curve" smooth="yes"/>
      <point x="95" y="525" type="line"/>
      <point x="21" y="525" type="line"/>
      <point x="21" y="410" type="line"/>
      <point x="95" y="410" type="line"/>
      <point x="95" y="0" type="line"/>
      <point x="243" y="0" type="line"/>
      <point x="243" y="531" type="line" smooth="yes"/>
      <point x="243" y="608"/>
      <point x="280" y="642"/>
      <point x="353" y="642" type="curve" smooth="yes"/>
      <point x="426" y="642"/>
      <point x="463" y="608"/>
      <point x="463" y="531" type="curve" smooth="yes"/>
      <point x="463" y="529" type="line"/>
      <point x="374" y="509"/>
      <point x="322" y="454"/>
      <point x="322" y="374" type="curve" smooth="yes"/>
      <point x="322" y="293"/>
      <point x="365" y="251"/>
      <point x="434" y="229" type="curve" smooth="yes"/>
      <point x="465" y="219" type="line" smooth="yes"/>
      <point x="511" y="204"/>
      <point x="531" y="189"/>
      <point x="531" y="155" type="curve" smooth="yes" name="hr02"/>
      <point x="531" y="118"/>
      <point x="507" y="98"/>
      <point x="471" y="98" type="curve" smooth="yes"/>
      <point x="433" y="98"/>
      <point x="401" y="113"/>
      <point x="371" y="149" type="curve"/>
      <point x="287" y="63" type="line"/>
      <point x="326" y="11"/>
      <point x="389" y="-12"/>
      <point x="473" y="-12" type="curve" smooth="yes"/>
      <point x="587" y="-12"/>
      <point x="667" y="59"/>
    </contour>
  </outline>
</glyph>
<glyph name="divide" format="1">
  <advance width="600"/>
  <unicode hex="00F7"/>
  <outline>
    <contour>
      <point x="532" y="247" type="line" name="hr00"/>
      <point x="532" y="365" type="line"/>
      <point x="67" y="365" type="line"/>
      <point x="67" y="247" type="line"/>
    </contour>
    <contour>
      <point x="300" y="28" type="curve" smooth="yes"/>
      <point x="362" y="28"/>
      <point x="387" y="60"/>
      <point x="387" y="97" type="curve" smooth="yes"/>
      <point x="387" y="121" type="line" smooth="yes"/>
      <point x="387" y="158"/>
      <point x="362" y="190"/>
      <point x="300" y="190" type="curve" smooth="yes"/>
      <point x="238" y="190"/>
      <point x="213" y="158"/>
      <point x="213" y="121" type="curve" smooth="yes"/>
      <point x="213" y="97" type="line" smooth="yes"/>
      <point x="213" y="60"/>
      <point x="238" y="28"/>
    </contour>
    <contour>
      <point x="300" y="420" type="curve" smooth="yes"/>
      <point x="362" y="420"/>
      <point x="387" y="452"/>
      <point x="387" y="489" type="curve" smooth="yes"/>
      <point x="387" y="513" type="line" smooth="yes"/>
      <point x="387" y="550"/>
      <point x="362" y="582"/>
      <point x="300" y="582" type="curve" smooth="yes"/>
      <point x="238" y="582"/>
      <point x="213" y="550"/>
      <point x="213" y="513" type="curve" smooth="yes"/>
      <point x="213" y="489" type="line" smooth="yes"/>
      <point x="213" y="452"/>
      <point x="238" y="420"/>
    </contour>
  </outline>
</glyph>
<glyph name="oslash" format="1">
  <advance width="572"/>
  <unicode hex="00F8"/>
  <outline>
    <contour>
      <point x="94" y="-50" type="line" name="hr00"/>
      <point x="154" y="21" type="line"/>
      <point x="190" y="0"/>
      <point x="235" y="-12"/>
      <point x="286" y="-12" type="curve" smooth="yes"/>
      <point x="440" y="-12"/>
      <point x="532" y="93"/>
      <point x="532" y="262" type="curve" smooth="yes"/>
      <point x="532" y="329"/>
      <point x="518" y="387"/>
      <point x="490" y="431" type="curve"/>
      <point x="558" y="515" type="line"/>
      <point x="478" y="575" type="line"/>
      <point x="418" y="503" type="line"/>
      <point x="381" y="525"/>
      <point x="337" y="537"/>
      <point x="286" y="537" type="curve" smooth="yes"/>
      <point x="132" y="537"/>
      <point x="40" y="432"/>
      <point x="40" y="263" type="curve" smooth="yes"/>
      <point x="40" y="195"/>
      <point x="54" y="138"/>
      <point x="81" y="93" type="curve"/>
      <point x="14" y="10" type="line"/>
    </contour>
    <contour>
      <point x="286" y="96" type="curve" smooth="yes"/>
      <point x="260" y="96"/>
      <point x="238" y="104"/>
      <point x="222" y="119" type="curve"/>
      <point x="383" y="312" type="line"/>
      <point x="383" y="214" type="line" smooth="yes"/>
      <point x="383" y="143"/>
      <point x="347" y="96"/>
    </contour>
    <contour>
      <point x="189" y="311" type="line" smooth="yes"/>
      <point x="189" y="382"/>
      <point x="225" y="429"/>
      <point x="286" y="429" type="curve" smooth="yes"/>
      <point x="311" y="429"/>
      <point x="333" y="421"/>
      <point x="349" y="406" type="curve"/>
      <point x="189" y="214" type="line"/>
    </contour>
    <contour>
      <point x="285.0" y="540.0" type="move" name="top"/>
    </contour>
  </outline>
</glyph>
<glyph name="thorn" format="1">
  <advance width="608"/>
  <unicode hex="00FE"/>
  <outline>
    <contour>
      <point x="69" y="-200" type="line" name="hr00"/>
      <point x="217" y="-200" type="line"/>
      <point x="217" y="88" type="line"/>
      <point x="222" y="88" type="line"/>
      <point x="237" y="31"/>
      <point x="295" y="-12"/>
      <point x="363" y="-12" type="curve" smooth="yes"/>
      <point x="496" y="-12"/>
      <point x="565" y="85"/>
      <point x="565" y="263" type="curve" smooth="yes"/>
      <point x="565" y="441"/>
      <point x="496" y="537"/>
      <point x="363" y="537" type="curve" smooth="yes"/>
      <point x="295" y="537"/>
      <point x="237" y="495"/>
      <point x="222" y="437" type="curve"/>
      <point x="217" y="437" type="line"/>
      <point x="217" y="740" type="line"/>
      <point x="69" y="740" type="line"/>
    </contour>
    <contour>
      <point x="314" y="108" type="curve" smooth="yes"/>
      <point x="258" y="108"/>
      <point x="217" y="137"/>
      <point x="217" y="185" type="curve"/>
      <point x="217" y="340" type="line"/>
      <point x="217" y="388"/>
      <point x="258" y="417"/>
      <point x="314" y="417" type="curve" smooth="yes"/>
      <point x="370" y="417"/>
      <point x="411" y="374"/>
      <point x="411" y="308" type="curve" smooth="yes"/>
      <point x="411" y="217" type="line" smooth="yes"/>
      <point x="411" y="151"/>
      <point x="370" y="108"/>
    </contour>
  </outline>
</glyph>
<glyph name="dotlessi" format="1">
  <advance width="286"/>
  <unicode hex="0131"/>
  <outline>
    <contour>
      <point x="217" y="0" type="line" name="hr00"/>
      <point x="217" y="525" type="line"/>
      <point x="69" y="525" type="line"/>
      <point x="69" y="0" type="line"/>
    </contour>
    <contour>
      <point x="143.0" y="540.0" type="move" name="top"/>
    </contour>
  </outline>
</glyph>
<glyph name="IJ" format="1">
  <advance width="656"/>
  <unicode hex="0132"/>
  <outline>
    <contour>
      <point x="330" y="-11" type="curve" smooth="yes" name="hr00"/>
      <point x="482" y="-11"/>
      <point x="583" y="74"/>
      <point x="583" y="210" type="curve" smooth="yes"/>
      <point x="583" y="698" type="line"/>
      <point x="343" y="698" type="line"/>
      <point x="343" y="576" type="line"/>
      <point x="431" y="576" type="line"/>
      <point x="431" y="219" type="line" smooth="yes"/>
      <point x="431" y="149"/>
      <point x="381" y="122"/>
      <point x="329" y="122" type="curve" smooth="yes"/>
      <point x="272" y="122"/>
      <point x="233" y="154"/>
      <point x="222" y="213" type="curve"/>
      <point x="80" y="185" type="line"/>
      <point x="100" y="68"/>
      <point x="182" y="-11"/>
    </contour>
    <contour>
      <point x="73" y="309" type="line"/>
      <point x="225" y="309" type="line"/>
      <point x="225" y="698" type="line"/>
      <point x="73" y="698" type="line"/>
    </contour>
  </outline>
</glyph>
<glyph name="Lslash" format="1">
  <advance width="540"/>
  <unicode hex="0141"/>
  <outline>
    <contour>
      <point x="500" y="135" type="line" name="hr00"/>
      <point x="234" y="135" type="line"/>
      <point x="234" y="291" type="line"/>
      <point x="392" y="342" type="line"/>
      <point x="392" y="455" type="line"/>
      <point x="234" y="404" type="line"/>
      <point x="234" y="698" type="line"/>
      <point x="82" y="698" type="line"/>
      <point x="82" y="356" type="line"/>
      <point x="-7" y="327" type="line"/>
      <point x="-7" y="214" type="line"/>
      <point x="82" y="243" type="line"/>
      <point x="82" y="0" type="line"/>
      <point x="500" y="0" type="line"/>
    </contour>
  </outline>
</glyph>
<glyph name="lslash" format="1">
  <advance width="314"/>
  <unicode hex="0142"/>
  <outline>
    <contour>
      <point x="289" y="115" type="line" name="hr00"/>
      <point x="223" y="115" type="line"/>
      <point x="223" y="343" type="line"/>
      <point x="327" y="377" type="line"/>
      <point x="327" y="486" type="line"/>
      <point x="223" y="452" type="line"/>
      <point x="223" y="740" type="line"/>
      <point x="75" y="740" type="line"/>
      <point x="75" y="404" type="line"/>
      <point x="-2" y="379" type="line"/>
      <point x="-2" y="270" type="line"/>
      <point x="75" y="295" type="line"/>
      <point x="75" y="144" type="line" smooth="yes"/>
      <point x="75" y="51"/>
      <point x="121" y="0"/>
      <point x="222" y="0" type="curve" smooth="yes"/>
      <point x="289" y="0" type="line"/>
    </contour>
  </outline>
</glyph>
<glyph name="OE" format="1">
  <advance width="998"/>
  <unicode hex="0152"/>
  <outline>
    <contour>
      <point x="943" y="0" type="line"/>
      <point x="943" y="135" type="line"/>
      <point x="619" y="135" type="line"/>
      <point x="619" y="286" type="line"/>
      <point x="897" y="286" type="line"/>
      <point x="897" y="420" type="line"/>
      <point x="619" y="420" type="line"/>
      <point x="619" y="563" type="line"/>
      <point x="943" y="563" type="line"/>
      <point x="943" y="698" type="line"/>
      <point x="480" y="698" type="line"/>
      <point x="443" y="706"/>
      <point x="402" y="710"/>
      <point x="357" y="710" type="curve" smooth="yes" name="hr01"/>
      <point x="172" y="710"/>
      <point x="50" y="586"/>
      <point x="50" y="349" type="curve" smooth="yes"/>
      <point x="50" y="112"/>
      <point x="172" y="-12"/>
      <point x="357" y="-12" type="curve" smooth="yes"/>
      <point x="402" y="-12"/>
      <point x="443" y="-8"/>
      <point x="472" y="0" type="curve" name="hr02"/>
    </contour>
    <contour>
      <point x="357" y="123" type="curve" smooth="yes" name="hr03"/>
      <point x="267" y="123"/>
      <point x="211" y="186"/>
      <point x="211" y="297" type="curve" smooth="yes"/>
      <point x="211" y="401" type="line" smooth="yes"/>
      <point x="211" y="512"/>
      <point x="267" y="575"/>
      <point x="357" y="575" type="curve" smooth="yes"/>
      <point x="396" y="575"/>
      <point x="433" y="571"/>
      <point x="467" y="565" type="curve"/>
      <point x="467" y="132" type="line"/>
      <point x="433" y="126"/>
      <point x="396" y="123"/>
    </contour>
  </outline>
</glyph>
<glyph name="florin" format="1">
  <advance width="484"/>
  <unicode hex="0192"/>
  <outline>
    <contour>
      <point x="5" y="-134" type="line" name="hr00"/>
      <point x="111" y="-134" type="line" smooth="yes"/>
      <point x="218" y="-134"/>
      <point x="274" y="-71"/>
      <point x="283" y="17" type="curve" smooth="yes"/>
      <point x="307" y="251" type="line"/>
      <point x="434" y="251" type="line"/>
      <point x="444" y="371" type="line"/>
      <point x="319" y="371" type="line"/>
      <point x="341" y="583" type="line"/>
      <point x="460" y="583" type="line"/>
      <point x="472" y="698" type="line"/>
      <point x="362" y="698" type="line" smooth="yes"/>
      <point x="256" y="698"/>
      <point x="199" y="634"/>
      <point x="190" y="546" type="curve" smooth="yes"/>
      <point x="172" y="371" type="line"/>
      <point x="66" y="371" type="line"/>
      <point x="54" y="251" type="line"/>
      <point x="160" y="251" type="line"/>
      <point x="132" y="-19" type="line"/>
      <point x="17" y="-19" type="line"/>
    </contour>
  </outline>
</glyph>
<glyph name="dotlessj" format="1">
  <advance width="286"/>
  <unicode hex="0237"/>
  <outline>
    <contour>
      <point x="-9" y="-200" type="line" name="hr00"/>
      <point x="69" y="-200" type="line" smooth="yes"/>
      <point x="172" y="-200"/>
      <point x="217" y="-149"/>
      <point x="217" y="-56" type="curve" smooth="yes"/>
      <point x="217" y="525" type="line"/>
      <point x="69" y="525" type="line"/>
      <point x="69" y="-85" type="line"/>
      <point x="-9" y="-85" type="line"/>
    </contour>
    <contour>
      <point x="143.0" y="540.0" type="move" name="top"/>
    </contour>
  </outline>
</glyph>
<glyph name="caronslovak" format="1">
  <advance width="600"/>
  <unicode hex="02BC"/>
  <outline>
    <contour>
      <point x="300" y="740" type="line" name="hr00"/>
      <point x="143" y="740" type="line"/>
      <point x="137" y="525" type="line"/>
      <point x="234" y="525" type="line"/>
    </contour>
    <contour>
      <point x="137.0" y="740.0" type="move" name="_topright"/>
    </contour>
  </outline>
</glyph>
<glyph name="caron" format="1">
  <advance width="600"/>
  <unicode hex="02C7"/>
  <outline>
    <contour>
      <point x="362" y="587" type="line" name="hr00"/>
      <point x="494" y="746" type="line"/>
      <point x="421" y="804" type="line"/>
      <point x="300" y="689" type="line"/>
      <point x="179" y="804" type="line"/>
      <point x="106" y="746" type="line"/>
      <point x="238" y="587" type="line"/>
    </contour>
    <contour>
      <point x="300.0" y="540.0" type="move" name="_top"/>
    </contour>
  </outline>
</glyph>
<glyph name="dotaccent" format="1">
  <advance width="600"/>
  <unicode hex="02D9"/>
  <outline>
    <contour>
      <point x="300" y="591" type="curve" smooth="yes" name="hr00"/>
      <point x="366" y="591"/>
      <point x="389" y="622"/>
      <point x="389" y="661" type="curve" smooth="yes"/>
      <point x="389" y="690" type="line" smooth="yes"/>
      <point x="389" y="729"/>
      <point x="366" y="760"/>
      <point x="300" y="760" type="curve" smooth="yes"/>
      <point x="234" y="760"/>
      <point x="211" y="729"/>
      <point x="211" y="690" type="curve" smooth="yes"/>
      <point x="211" y="661" type="line" smooth="yes"/>
      <point x="211" y="622"/>
      <point x="234" y="591"/>
    </contour>
    <contour>
      <point x="300.0" y="540.0" type="move" name="_top"/>
    </contour>
  </outline>
</glyph>
<glyph name="hungarumlaut" format="1">
  <advance width="600"/>
  <unicode hex="02DD"/>
  <outline>
    <contour>
      <point x="344" y="755" type="line" name="hr00"/>
      <point x="228" y="812" type="line"/>
      <point x="129" y="618" type="line"/>
      <point x="210" y="579" type="line"/>
    </contour>
    <contour>
      <point x="549" y="755" type="line"/>
      <point x="433" y="812" type="line"/>
      <point x="334" y="618" type="line"/>
      <point x="415" y="579" type="line"/>
    </contour>
    <contour>
      <point x="300.0" y="540.0" type="move" name="_top"/>
    </contour>
  </outline>
</glyph>
<glyph name="pi" format="1">
  <advance width="655"/>
  <unicode hex="03C0"/>
  <outline>
    <contour>
      <point x="526" y="410" type="line" name="hr00"/>
      <point x="621" y="410" type="line"/>
      <point x="621" y="525" type="line"/>
      <point x="23" y="525" type="line"/>
      <point x="23" y="410" type="line"/>
      <point x="103" y="410" type="line"/>
      <point x="103" y="0" type="line"/>
      <point x="251" y="0" type="line"/>
      <point x="251" y="410" type="line"/>
      <point x="378" y="410" type="line"/>
      <point x="378" y="153" type="line" smooth="yes"/>
      <point x="378" y="53"/>
      <point x="432" y="0"/>
      <point x="534" y="0" type="curve" smooth="yes"/>
      <point x="592" y="0" type="line"/>
      <point x="592" y="115" type="line"/>
      <point x="526" y="115" type="line"/>
    </contour>
  </outline>
</glyph>
<glyph name="sheva-hb" format="1">
  <advance width="0"/>
  <unicode hex="05B0"/>
  <outline>
    <contour>
      <point x="0" y="-165" type="curve" smooth="yes" name="hr00"/>
      <point x="39" y="-165"/>
      <point x="51" y="-146"/>
      <point x="51" y="-123" type="curve" smooth="yes"/>
      <point x="51" y="-107" type="line" smooth="yes"/>
      <point x="51" y="-84"/>
      <point x="39" y="-65"/>
      <point x="0" y="-65" type="curve" smooth="yes"/>
      <point x="-39" y="-65"/>
      <point x="-51" y="-84"/>
      <point x="-51" y="-107" type="curve" smooth="yes"/>
      <point x="-51" y="-123" type="line" smooth="yes"/>
      <point x="-51" y="-146"/>
      <point x="-39" y="-165"/>
    </contour>
    <contour>
      <point x="0" y="-302" type="curve" smooth="yes"/>
      <point x="39" y="-302"/>
      <point x="51" y="-283"/>
      <point x="51" y="-260" type="curve" smooth="yes"/>
      <point x="51" y="-244" type="line" smooth="yes"/>
      <point x="51" y="-221"/>
      <point x="39" y="-202"/>
      <point x="0" y="-202" type="curve" smooth="yes"/>
      <point x="-39" y="-202"/>
      <point x="-51" y="-221"/>
      <point x="-51" y="-244" type="curve" smooth="yes"/>
      <point x="-51" y="-260" type="line" smooth="yes"/>
      <point x="-51" y="-283"/>
      <point x="-39" y="-302"/>
    </contour>
    <contour>
      <point x="0.0" y="0.0" type="move" name="_bottom_hebr"/>
    </contour>
  </outline>
</glyph>
<glyph name="hatafsegol-hb" format="1">
  <advance width="0"/>
  <unicode hex="05B1"/>
  <outline>
    <contour>
      <point x="-149" y="-165" type="curve" smooth="yes"/>
      <point x="-110" y="-165"/>
      <point x="-98" y="-146"/>
      <point x="-98" y="-123" type="curve" smooth="yes"/>
      <point x="-98" y="-107" type="line" smooth="yes"/>
      <point x="-98" y="-84"/>
      <point x="-110" y="-65"/>
      <point x="-149" y="-65" type="curve" smooth="yes"/>
      <point x="-188" y="-65"/>
      <point x="-200" y="-84"/>
      <point x="-200" y="-107" type="curve" smooth="yes"/>
      <point x="-200" y="-123" type="line" smooth="yes"/>
      <point x="-200" y="-146"/>
      <point x="-188" y="-165"/>
    </contour>
    <contour>
      <point x="-69" y="-302" type="curve" smooth="yes"/>
      <point x="-30" y="-302"/>
      <point x="-18" y="-283"/>
      <point x="-18" y="-260" type="curve" smooth="yes" name="hr01"/>
      <point x="-18" y="-244" type="line" smooth="yes"/>
      <point x="-18" y="-221"/>
      <point x="-30" y="-202"/>
      <point x="-69" y="-202" type="curve" smooth="yes"/>
      <point x="-108" y="-202"/>
      <point x="-120" y="-221"/>
      <point x="-120" y="-244" type="curve" smooth="yes"/>
      <point x="-120" y="-260" type="line" smooth="yes"/>
      <point x="-120" y="-283"/>
      <point x="-108" y="-302"/>
    </contour>
    <contour>
      <point x="11" y="-165" type="curve" smooth="yes"/>
      <point x="50" y="-165"/>
      <point x="62" y="-146"/>
      <point x="62" y="-123" type="curve" smooth="yes" name="hr02"/>
      <point x="62" y="-107" type="line" smooth="yes"/>
      <point x="62" y="-84"/>
      <point x="50" y="-65"/>
      <point x="11" y="-65" type="curve" smooth="yes"/>
      <point x="-28" y="-65"/>
      <point x="-40" y="-84"/>
      <point x="-40" y="-107" type="curve" smooth="yes"/>
      <point x="-40" y="-123" type="line" smooth="yes"/>
      <point x="-40" y="-146"/>
      <point x="-28" y="-165"/>
    </contour>
    <contour>
      <point x="151" y="-302" type="curve" smooth="yes"/>
      <point x="190" y="-302"/>
      <point x="202" y="-283"/>
      <point x="202" y="-260" type="curve" smooth="yes"/>
      <point x="202" y="-244" type="line" smooth="yes"/>
      <point x="202" y="-221"/>
      <point x="190" y="-202"/>
      <point x="151" y="-202" type="curve" smooth="yes"/>
      <point x="112" y="-202"/>
      <point x="100" y="-221"/>
      <point x="100" y="-244" type="curve" smooth="yes"/>
      <point x="100" y="-260" type="line" smooth="yes"/>
      <point x="100" y="-283"/>
      <point x="112" y="-302"/>
    </contour>
    <contour>
      <point x="151" y="-165" type="curve" smooth="yes"/>
      <point x="190" y="-165"/>
      <point x="202" y="-146"/>
      <point x="202" y="-123" type="curve" smooth="yes"/>
      <point x="202" y="-107" type="line" smooth="yes"/>
      <point x="202" y="-84"/>
      <point x="190" y="-65"/>
      <point x="151" y="-65" type="curve" smooth="yes"/>
      <point x="112" y="-65"/>
      <point x="100" y="-84"/>
      <point x="100" y="-107" type="curve" smooth="yes"/>
      <point x="100" y="-123" type="line" smooth="yes"/>
      <point x="100" y="-146"/>
      <point x="112" y="-165"/>
    </contour>
    <contour>
      <point x="0.0" y="0.0" type="move" name="_bottom_hebr"/>
    </contour>
  </outline>
</glyph>
<glyph name="hatafpatah-hb" format="1">
  <advance width="0"/>
  <unicode hex="05B2"/>
  <outline>
    <contour>
      <point x="136" y="-302" type="curve" smooth="yes"/>
      <point x="175" y="-302"/>
      <point x="187" y="-283"/>
      <point x="187" y="-260" type="curve" smooth="yes"/>
      <point x="187" y="-244" type="line" smooth="yes"/>
      <point x="187" y="-221"/>
      <point x="175" y="-202"/>
      <point x="136" y="-202" type="curve" smooth="yes"/>
      <point x="97" y="-202"/>
      <point x="85" y="-221"/>
      <point x="85" y="-244" type="curve" smooth="yes"/>
      <point x="85" y="-260" type="line" smooth="yes"/>
      <point x="85" y="-283"/>
      <point x="97" y="-302"/>
    </contour>
    <contour>
      <point x="136" y="-165" type="curve" smooth="yes"/>
      <point x="175" y="-165"/>
      <point x="187" y="-146"/>
      <point x="187" y="-123" type="curve" smooth="yes"/>
      <point x="187" y="-107" type="line" smooth="yes"/>
      <point x="187" y="-84"/>
      <point x="175" y="-65"/>
      <point x="136" y="-65" type="curve" smooth="yes"/>
      <point x="97" y="-65"/>
      <point x="85" y="-84"/>
      <point x="85" y="-107" type="curve" smooth="yes"/>
      <point x="85" y="-123" type="line" smooth="yes"/>
      <point x="85" y="-146"/>
      <point x="97" y="-165"/>
    </contour>
    <contour>
      <point x="-189" y="-149" type="line" name="hr01"/>
      <point x="22" y="-149" type="line"/>
      <point x="22" y="-79" type="line"/>
      <point x="-189" y="-79" type="line"/>
    </contour>
    <contour>
      <point x="0.0" y="0.0" type="move" name="_bottom_hebr"/>
    </contour>
  </outline>
</glyph>
<glyph name="hatafqamats-hb" format="1">
  <advance width="0"/>
  <unicode hex="05B3"/>
  <outline>
    <contour>
      <point x="-189" y="-149" type="line"/>
      <point x="-119" y="-149" type="line"/>
      <point x="-119" y="-280" type="line"/>
      <point x="-49" y="-280" type="line"/>
      <point x="-49" y="-149" type="line"/>
      <point x="22" y="-149" type="line"/>
      <point x="22" y="-79" type="line"/>
      <point x="-189" y="-79" type="line"/>
    </contour>
    <contour>
      <point x="136" y="-302" type="curve" smooth="yes"/>
      <point x="175" y="-302"/>
      <point x="187" y="-283"/>
      <point x="187" y="-260" type="curve" smooth="yes"/>
      <point x="187" y="-244" type="line" smooth="yes"/>
      <point x="187" y="-221"/>
      <point x="175" y="-202"/>
      <point x="136" y="-202" type="curve" smooth="yes"/>
      <point x="97" y="-202"/>
      <point x="85" y="-221"/>
      <point x="85" y="-244" type="curve" smooth="yes"/>
      <point x="85" y="-260" type="line" smooth="yes"/>
      <point x="85" y="-283"/>
      <point x="97" y="-302"/>
    </contour>
    <contour>
      <point x="136" y="-165" type="curve" smooth="yes" name="hr01"/>
      <point x="175" y="-165"/>
      <point x="187" y="-146"/>
      <point x="187" y="-123" type="curve" smooth="yes"/>
      <point x="187" y="-107" type="line" smooth="yes"/>
      <point x="187" y="-84"/>
      <point x="175" y="-65"/>
      <point x="136" y="-65" type="curve" smooth="yes"/>
      <point x="97" y="-65"/>
      <point x="85" y="-84"/>
      <point x="85" y="-107" type="curve" smooth="yes"/>
      <point x="85" y="-123" type="line" smooth="yes"/>
      <point x="85" y="-146"/>
      <point x="97" y="-165"/>
    </contour>
    <contour>
      <point x="0.0" y="0.0" type="move" name="_bottom_hebr"/>
    </contour>
  </outline>
</glyph>
<glyph name="hiriq-hb" format="1">
  <advance width="0"/>
  <unicode hex="05B4"/>
  <outline>
    <contour>
      <point x="0" y="-165" type="curve" smooth="yes" name="hr00"/>
      <point x="39" y="-165"/>
      <point x="51" y="-146"/>
      <point x="51" y="-123" type="curve" smooth="yes"/>
      <point x="51" y="-107" type="line" smooth="yes"/>
      <point x="51" y="-84"/>
      <point x="39" y="-65"/>
      <point x="0" y="-65" type="curve" smooth="yes"/>
      <point x="-39" y="-65"/>
      <point x="-51" y="-84"/>
      <point x="-51" y="-107" type="curve" smooth="yes"/>
      <point x="-51" y="-123" type="line" smooth="yes"/>
      <point x="-51" y="-146"/>
      <point x="-39" y="-165"/>
    </contour>
    <contour>
      <point x="0.0" y="0.0" type="move" name="_bottom_hebr"/>
    </contour>
  </outline>
</glyph>
<glyph name="tsere-hb" format="1">
  <advance width="0"/>
  <unicode hex="05B5"/>
  <outline>
    <contour>
      <point x="-80" y="-165" type="curve" smooth="yes" name="hr00"/>
      <point x="-41" y="-165"/>
      <point x="-29" y="-146"/>
      <point x="-29" y="-123" type="curve" smooth="yes"/>
      <point x="-29" y="-107" type="line" smooth="yes"/>
      <point x="-29" y="-84"/>
      <point x="-41" y="-65"/>
      <point x="-80" y="-65" type="curve" smooth="yes"/>
      <point x="-119" y="-65"/>
      <point x="-131" y="-84"/>
      <point x="-131" y="-107" type="curve" smooth="yes"/>
      <point x="-131" y="-123" type="line" smooth="yes"/>
      <point x="-131" y="-146"/>
      <point x="-119" y="-165"/>
    </contour>
    <contour>
      <point x="80" y="-165" type="curve" smooth="yes"/>
      <point x="119" y="-165"/>
      <point x="131" y="-146"/>
      <point x="131" y="-123" type="curve" smooth="yes"/>
      <point x="131" y="-107" type="line" smooth="yes"/>
      <point x="131" y="-84"/>
      <point x="119" y="-65"/>
      <point x="80" y="-65" type="curve" smooth="yes"/>
      <point x="41" y="-65"/>
      <point x="29" y="-84"/>
      <point x="29" y="-107" type="curve" smooth="yes"/>
      <point x="29" y="-123" type="line" smooth="yes"/>
      <point x="29" y="-146"/>
      <point x="41" y="-165"/>
    </contour>
    <contour>
      <point x="0.0" y="0.0" type="move" name="_bottom_hebr"/>
    </contour>
  </outline>
</glyph>
<glyph name="segol-hb" format="1">
  <advance width="0"/>
  <unicode hex="05B6"/>
  <outline>
    <contour>
      <point x="-80" y="-165" type="curve" smooth="yes"/>
      <point x="-41" y="-165"/>
      <point x="-29" y="-146"/>
      <point x="-29" y="-123" type="curve" smooth="yes"/>
      <point x="-29" y="-107" type="line" smooth="yes"/>
      <point x="-29" y="-84"/>
      <point x="-41" y="-65"/>
      <point x="-80" y="-65" type="curve" smooth="yes"/>
      <point x="-119" y="-65"/>
      <point x="-131" y="-84"/>
      <point x="-131" y="-107" type="curve" smooth="yes"/>
      <point x="-131" y="-123" type="line" smooth="yes"/>
      <point x="-131" y="-146"/>
      <point x="-119" y="-165"/>
    </contour>
    <contour>
      <point x="0" y="-302" type="curve" smooth="yes"/>
      <point x="39" y="-302"/>
      <point x="51" y="-283"/>
      <point x="51" y="-260" type="curve" smooth="yes" name="hr01"/>
      <point x="51" y="-244" type="line" smooth="yes"/>
      <point x="51" y="-221"/>
      <point x="39" y="-202"/>
      <point x="0" y="-202" type="curve" smooth="yes"/>
      <point x="-39" y="-202"/>
      <point x="-51" y="-221"/>
      <point x="-51" y="-244" type="curve" smooth="yes"/>
      <point x="-51" y="-260" type="line" smooth="yes"/>
      <point x="-51" y="-283"/>
      <point x="-39" y="-302"/>
    </contour>
    <contour>
      <point x="80" y="-165" type="curve" smooth="yes"/>
      <point x="119" y="-165"/>
      <point x="131" y="-146"/>
      <point x="131" y="-123" type="curve" smooth="yes" name="hr02"/>
      <point x="131" y="-107" type="line" smooth="yes"/>
      <point x="131" y="-84"/>
      <point x="119" y="-65"/>
      <point x="80" y="-65" type="curve" smooth="yes"/>
      <point x="41" y="-65"/>
      <point x="29" y="-84"/>
      <point x="29" y="-107" type="curve" smooth="yes"/>
      <point x="29" y="-123" type="line" smooth="yes"/>
      <point x="29" y="-146"/>
      <point x="41" y="-165"/>
    </contour>
    <contour>
      <point x="0.0" y="0.0" type="move" name="_bottom_hebr"/>
    </contour>
  </outline>
</glyph>
<glyph name="patah-hb" format="1">
  <advance width="0"/>
  <unicode hex="05B7"/>
  <outline>
    <contour>
      <point x="-105" y="-149" type="line" name="hr00"/>
      <point x="105" y="-149" type="line"/>
      <point x="105" y="-79" type="line"/>
      <point x="-105" y="-79" type="line"/>
    </contour>
    <contour>
      <point x="0.0" y="0.0" type="move" name="_bottom_hebr"/>
    </contour>
  </outline>
</glyph>
<glyph name="qamats-hb" format="1">
  <advance width="0"/>
  <unicode hex="05B8"/>
  <outline>
    <contour>
      <point x="-105" y="-149" type="line" name="hr00"/>
      <point x="-35" y="-149" type="line"/>
      <point x="-35" y="-280" type="line"/>
      <point x="35" y="-280" type="line"/>
      <point x="35" y="-149" type="line"/>
      <point x="105" y="-149" type="line"/>
      <point x="105" y="-79" type="line"/>
      <point x="-105" y="-79" type="line"/>
    </contour>
    <contour>
      <point x="0.0" y="0.0" type="move" name="_bottom_hebr"/>
    </contour>
  </outline>
</glyph>
<glyph name="holamhaser-hb" format="1">
  <advance width="0"/>
  <unicode hex="05BA"/>
  <outline>
    <contour>
      <point x="0" y="680" type="curve" smooth="yes" name="hr00"/>
      <point x="39" y="680"/>
      <point x="51" y="699"/>
      <point x="51" y="722" type="curve" smooth="yes"/>
      <point x="51" y="738" type="line" smooth="yes"/>
      <point x="51" y="761"/>
      <point x="39" y="780"/>
      <point x="0" y="780" type="curve" smooth="yes"/>
      <point x="-39" y="780"/>
      <point x="-51" y="761"/>
      <point x="-51" y="738" type="curve" smooth="yes"/>
      <point x="-51" y="722" type="line" smooth="yes"/>
      <point x="-51" y="699"/>
      <point x="-39" y="680"/>
    </contour>
    <contour>
      <point x="0.0" y="525.0" type="move" name="_topleft_hebr"/>
    </contour>
  </outline>
</glyph>
<glyph name="qubuts-hb" format="1">
  <advance width="0"/>
  <unicode hex="05BB"/>
  <outline>
    <contour>
      <point x="-31" y="-165" type="curve" smooth="yes"/>
      <point x="8" y="-165"/>
      <point x="20" y="-146"/>
      <point x="20" y="-123" type="curve" smooth="yes"/>
      <point x="20" y="-107" type="line" smooth="yes"/>
      <point x="20" y="-84"/>
      <point x="8" y="-65"/>
      <point x="-31" y="-65" type="curve" smooth="yes"/>
      <point x="-70" y="-65"/>
      <point x="-82" y="-84"/>
      <point x="-82" y="-107" type="curve" smooth="yes"/>
      <point x="-82" y="-123" type="line" smooth="yes"/>
      <point x="-82" y="-146"/>
      <point x="-70" y="-165"/>
    </contour>
    <contour>
      <point x="50" y="-265" type="curve" smooth="yes" name="hr01"/>
      <point x="89" y="-265"/>
      <point x="101" y="-246"/>
      <point x="101" y="-223" type="curve" smooth="yes"/>
      <point x="101" y="-207" type="line" smooth="yes"/>
      <point x="101" y="-184"/>
      <point x="89" y="-165"/>
      <point x="50" y="-165" type="curve" smooth="yes"/>
      <point x="11" y="-165"/>
      <point x="-1" y="-184"/>
      <point x="-1" y="-207" type="curve" smooth="yes"/>
      <point x="-1" y="-223" type="line" smooth="yes"/>
      <point x="-1" y="-246"/>
      <point x="11" y="-265"/>
    </contour>
    <contour>
      <point x="131" y="-365" type="curve" smooth="yes" name="hr02"/>
      <point x="170" y="-365"/>
      <point x="182" y="-346"/>
      <point x="182" y="-323" type="curve" smooth="yes"/>
      <point x="182" y="-307" type="line" smooth="yes"/>
      <point x="182" y="-284"/>
      <point x="170" y="-265"/>
      <point x="131" y="-265" type="curve" smooth="yes"/>
      <point x="92" y="-265"/>
      <point x="80" y="-284"/>
      <point x="80" y="-307" type="curve" smooth="yes"/>
      <point x="80" y="-323" type="line" smooth="yes"/>
      <point x="80" y="-346"/>
      <point x="92" y="-365"/>
    </contour>
    <contour>
      <point x="0.0" y="0.0" type="move" name="_bottom_hebr"/>
    </contour>
  </outline>
</glyph>
<glyph name="dagesh-hb" format="1">
  <advance width="0"/>
  <unicode hex="05BC"/>
  <outline>
    <contour>
      <point x="0" y="265" type="curve" smooth="yes" name="hr00"/>
      <point x="39" y="265"/>
      <point x="51" y="284"/>
      <point x="51" y="307" type="curve" smooth="yes"/>
      <point x="51" y="323" type="line" smooth="yes"/>
      <point x="51" y="346"/>
      <point x="39" y="365"/>
      <point x="0" y="365" type="curve" smooth="yes"/>
      <point x="-39" y="365"/>
      <point x="-51" y="346"/>
      <point x="-51" y="323" type="curve" smooth="yes"/>
      <point x="-51" y="307" type="line" smooth="yes"/>
      <point x="-51" y="284"/>
      <point x="-39" y="265"/>
    </contour>
    <contour>
      <point x="0.0" y="315.0" type="move" name="_center_hebr"/>
    </contour>
  </outline>
</glyph>
<glyph name="maqaf-hb" format="1">
  <advance width="403"/>
  <unicode hex="05BE"/>
  <outline>
    <contour>
      <point x="53" y="492" type="line" name="hr00"/>
      <point x="350" y="492" type="line"/>
      <point x="350" y="610" type="line"/>
      <point x="53" y="610" type="line"/>
    </contour>
  </outline>
</glyph>
<glyph name="rafe-hb" format="1">
  <advance width="0"/>
  <unicode hex="05BF"/>
  <outline>
    <contour>
      <point x="-134" y="694" type="line" name="hr00"/>
      <point x="132" y="694" type="line"/>
      <point x="132" y="764" type="line"/>
      <point x="-134" y="764" type="line"/>
    </contour>
    <contour>
      <point x="0.0" y="525.0" type="move" name="_top_hebr"/>
    </contour>
  </outline>
</glyph>
<glyph name="sindot-hb" format="1">
  <advance width="0"/>
  <unicode hex="05C2"/>
  <outline>
    <contour>
      <point x="0" y="680" type="curve" smooth="yes" name="hr00"/>
      <point x="39" y="680"/>
      <point x="51" y="699"/>
      <point x="51" y="722" type="curve" smooth="yes"/>
      <point x="51" y="738" type="line" smooth="yes"/>
      <point x="51" y="761"/>
      <point x="39" y="780"/>
      <point x="0" y="780" type="curve" smooth="yes"/>
      <point x="-39" y="780"/>
      <point x="-51" y="761"/>
      <point x="-51" y="738" type="curve" smooth="yes"/>
      <point x="-51" y="722" type="line" smooth="yes"/>
      <point x="-51" y="699"/>
      <point x="-39" y="680"/>
    </contour>
    <contour>
      <point x="0.0" y="525.0" type="move" name="_top_hebr"/>
    </contour>
  </outline>
</glyph>
<glyph name="alef-hb" format="1">
  <advance width="681"/>
  <unicode hex="05D0"/>
  <outline>
    <contour>
      <point x="70" y="0" type="line" name="hr00"/>
      <point x="218" y="0" type="line"/>
      <point x="218" y="264" type="line"/>
      <point x="272" y="289" type="line"/>
      <point x="443" y="0" type="line"/>
      <point x="621" y="0" type="line"/>
      <point x="484" y="227" type="line"/>
      <point x="503" y="236" type="line" smooth="yes"/>
      <point x="574" y="269"/>
      <point x="610" y="304"/>
      <point x="610" y="392" type="curve" smooth="yes"/>
      <point x="610" y="610" type="line"/>
      <point x="462" y="610" type="line"/>
      <point x="462" y="346" type="line"/>
      <point x="409" y="321" type="line"/>
      <point x="238" y="610" type="line"/>
      <point x="60" y="610" type="line"/>
      <point x="197" y="383" type="line"/>
      <point x="177" y="374" type="line" smooth="yes"/>
      <point x="106" y="341"/>
      <point x="70" y="306"/>
      <point x="70" y="218" type="curve" smooth="yes"/>
    </contour>
    <contour>
      <point x="331.0" y="0.0" type="move" name="bottom_hebr"/>
    </contour>
    <contour>
      <point x="291.0" y="110.0" type="move" name="center_hebr"/>
    </contour>
    <contour>
      <point x="25.0" y="525.0" type="move" name="topleft_hebr"/>
    </contour>
  </outline>
</glyph>
<glyph name="bet-hb" format="1">
  <advance width="564"/>
  <unicode hex="05D1"/>
  <outline>
    <contour>
      <point x="31" y="0" type="line" name="hr00"/>
      <point x="541" y="0" type="line"/>
      <point x="541" y="133" type="line"/>
      <point x="461" y="133" type="line"/>
      <point x="461" y="466" type="line" smooth="yes"/>
      <point x="461" y="559"/>
      <point x="416" y="610"/>
      <point x="313" y="610" type="curve" smooth="yes"/>
      <point x="31" y="610" type="line"/>
      <point x="31" y="477" type="line"/>
      <point x="311" y="477" type="line"/>
      <point x="311" y="133" type="line"/>
      <point x="31" y="133" type="line"/>
    </contour>
    <contour>
      <point x="286.0" y="0.0" type="move" name="bottom_hebr"/>
    </contour>
    <contour>
      <point x="171.0" y="315.0" type="move" name="center_hebr"/>
    </contour>
    <contour>
      <point x="246.0" y="525.0" type="move" name="top_hebr"/>
    </contour>
    <contour>
      <point x="0.0" y="525.0" type="move" name="topleft_hebr"/>
    </contour>
  </outline>
</glyph>
<glyph name="gimel-hb" format="1">
  <advance width="453"/>
  <unicode hex="05D2"/>
  <outline>
    <contour>
      <point x="252" y="0" type="line"/>
      <point x="393" y="0" type="line"/>
      <point x="347" y="452" type="line" smooth="yes"/>
      <point x="337" y="550"/>
      <point x="280" y="610"/>
      <point x="169" y="610" type="curve" smooth="yes"/>
      <point x="60" y="610" type="line"/>
      <point x="60" y="477" type="line"/>
      <point x="197" y="477" type="line"/>
      <point x="222" y="236" type="line" smooth="yes"/>
      <point x="227" y="185"/>
      <point x="214" y="133"/>
      <point x="30" y="133" type="curve" name="hr01"/>
      <point x="30" y="-9" type="line"/>
      <point x="121" y="-9"/>
      <point x="189" y="43"/>
      <point x="232" y="135" type="curve" name="hr02"/>
      <point x="238" y="135" type="line"/>
    </contour>
    <contour>
      <point x="213.0" y="0.0" type="move" name="bottom_hebr"/>
    </contour>
    <contour>
      <point x="107.0" y="315.0" type="move" name="center_hebr"/>
    </contour>
    <contour>
      <point x="12.0" y="525.0" type="move" name="topleft_hebr"/>
    </contour>
  </outline>
</glyph>
<glyph name="dalet-hb" format="1">
  <advance width="548"/>
  <unicode hex="05D3"/>
  <outline>
    <contour>
      <point x="295" y="0" type="line" name="hr00"/>
      <point x="445" y="0" type="line"/>
      <point x="445" y="477" type="line"/>
      <point x="525" y="477" type="line"/>
      <point x="525" y="610" type="line"/>
      <point x="19" y="610" type="line"/>
      <point x="19" y="477" type="line"/>
      <point x="295" y="477" type="line"/>
    </contour>
    <contour>
      <point x="370.0" y="0.0" type="move" name="bottom_hebr"/>
    </contour>
    <contour>
      <point x="157.0" y="315.0" type="move" name="center_hebr"/>
    </contour>
    <contour>
      <point x="-1.0" y="525.0" type="move" name="topleft_hebr"/>
    </contour>
  </outline>
</glyph>
<glyph name="he-hb" format="1">
  <advance width="656"/>
  <unicode hex="05D4"/>
  <outline>
    <contour>
      <point x="439" y="0" type="line" name="hr00"/>
      <point x="589" y="0" type="line"/>
      <point x="589" y="431" type="line" smooth="yes"/>
      <point x="589" y="539"/>
      <point x="520" y="610"/>
      <point x="405" y="610" type="curve" smooth="yes"/>
      <point x="73" y="610" type="line"/>
      <point x="73" y="477" type="line"/>
      <point x="375" y="477" type="line" smooth="yes"/>
      <point x="415" y="477"/>
      <point x="439" y="453"/>
      <point x="439" y="413" type="curve" smooth="yes"/>
    </contour>
    <contour>
      <point x="73" y="0" type="line"/>
      <point x="223" y="0" type="line"/>
      <point x="223" y="334" type="line"/>
      <point x="73" y="334" type="line"/>
    </contour>
    <contour>
      <point x="331.0" y="0.0" type="move" name="bottom_hebr"/>
    </contour>
    <contour>
      <point x="331.0" y="315.0" type="move" name="center_hebr"/>
    </contour>
    <contour>
      <point x="20.0" y="525.0" type="move" name="topleft_hebr"/>
    </contour>
  </outline>
</glyph>
<glyph name="vav-hb" format="1">
  <advance width="296"/>
  <unicode hex="05D5"/>
  <outline>
    <contour>
      <point x="73" y="0" type="line" name="hr00"/>
      <point x="223" y="0" type="line"/>
      <point x="223" y="610" type="line"/>
      <point x="73" y="610" type="line"/>
    </contour>
    <contour>
      <point x="148.0" y="0.0" type="move" name="bottom_hebr"/>
    </contour>
    <contour>
      <point x="1.0" y="315.0" type="move" name="center_hebr"/>
    </contour>
    <contour>
      <point x="7.0" y="525.0" type="move" name="topleft_hebr"/>
    </contour>
  </outline>
</glyph>
<glyph name="zayin-hb" format="1">
  <advance width="405"/>
  <unicode hex="05D6"/>
  <outline>
    <contour>
      <point x="30" y="477" type="line" name="hr00"/>
      <point x="201" y="477" type="line"/>
      <point x="201" y="471" type="line"/>
      <point x="136" y="429"/>
      <point x="102" y="362"/>
      <point x="102" y="263" type="curve" smooth="yes"/>
      <point x="102" y="234"/>
      <point x="105" y="200"/>
      <point x="111" y="167" type="curve" smooth="yes"/>
      <point x="141" y="0" type="line"/>
      <point x="291" y="0" type="line"/>
      <point x="250" y="229" type="line" smooth="yes"/>
      <point x="237" y="301"/>
      <point x="230" y="349"/>
      <point x="230" y="382" type="curve" smooth="yes"/>
      <point x="230" y="417"/>
      <point x="236" y="438"/>
      <point x="261" y="477" type="curve"/>
      <point x="382" y="477" type="line"/>
      <point x="382" y="610" type="line"/>
      <point x="30" y="610" type="line"/>
    </contour>
    <contour>
      <point x="216.0" y="0.0" type="move" name="bottom_hebr"/>
    </contour>
    <contour>
      <point x="22.0" y="315.0" type="move" name="center_hebr"/>
    </contour>
    <contour>
      <point x="3.0" y="525.0" type="move" name="topleft_hebr"/>
    </contour>
  </outline>
</glyph>
<glyph name="het-hb" format="1">
  <advance width="679"/>
  <unicode hex="05D7"/>
  <outline>
    <contour>
      <point x="73" y="0" type="line" name="hr00"/>
      <point x="223" y="0" type="line"/>
      <point x="223" y="477" type="line"/>
      <point x="398" y="477" type="line" smooth="yes"/>
      <point x="438" y="477"/>
      <point x="462" y="453"/>
      <point x="462" y="413" type="curve" smooth="yes"/>
      <point x="462" y="0" type="line"/>
      <point x="612" y="0" type="line"/>
      <point x="612" y="431" type="line" smooth="yes"/>
      <point x="612" y="539"/>
      <point x="543" y="610"/>
      <point x="428" y="610" type="curve" smooth="yes"/>
      <point x="73" y="610" type="line"/>
    </contour>
    <contour>
      <point x="343.0" y="0.0" type="move" name="bottom_hebr"/>
    </contour>
    <contour>
      <point x="20.0" y="525.0" type="move" name="topleft_hebr"/>
    </contour>
  </outline>
</glyph>
<glyph name="tet-hb" format="1">
  <advance width="659"/>
  <unicode hex="05D8"/>
  <outline>
    <contour>
      <point x="332" y="-12" type="curve" smooth="yes" name="hr00"/>
      <point x="532" y="-12"/>
      <point x="606" y="89"/>
      <point x="606" y="286" type="curve" smooth="yes"/>
      <point x="606" y="426" type="line" smooth="yes"/>
      <point x="606" y="545"/>
      <point x="527" y="610"/>
      <point x="425" y="610" type="curve" smooth="yes"/>
      <point x="324" y="610" type="line"/>
      <point x="324" y="477" type="line"/>
      <point x="394" y="477" type="line" smooth="yes"/>
      <point x="433" y="477"/>
      <point x="458" y="456"/>
      <point x="458" y="417" type="curve" smooth="yes"/>
      <point x="458" y="270" type="line" smooth="yes"/>
      <point x="458" y="157"/>
      <point x="422" y="123"/>
      <point x="332" y="123" type="curve" smooth="yes"/>
      <point x="242" y="123"/>
      <point x="206" y="157"/>
      <point x="206" y="270" type="curve" smooth="yes"/>
      <point x="206" y="610" type="line"/>
      <point x="58" y="610" type="line"/>
      <point x="58" y="286" type="line" smooth="yes"/>
      <point x="58" y="89"/>
      <point x="132" y="-12"/>
    </contour>
    <contour>
      <point x="332.0" y="0.0" type="move" name="bottom_hebr"/>
    </contour>
    <contour>
      <point x="332.0" y="315.0" type="move" name="center_hebr"/>
    </contour>
    <contour>
      <point x="0.0" y="525.0" type="move" name="topleft_hebr"/>
    </contour>
  </outline>
</glyph>
<glyph name="yod-hb" format="1">
  <advance width="282"/>
  <unicode hex="05D9"/>
  <outline>
    <contour>
      <point x="66" y="251" type="line" name="hr00"/>
      <point x="216" y="251" type="line"/>
      <point x="216" y="610" type="line"/>
      <point x="66" y="610" type="line"/>
    </contour>
    <contour>
      <point x="141.0" y="0.0" type="move" name="bottom_hebr"/>
    </contour>
    <contour>
      <point x="0.0" y="357.0" type="move" name="center_hebr"/>
    </contour>
    <contour>
      <point x="3.0" y="525.0" type="move" name="topleft_hebr"/>
    </contour>
  </outline>
</glyph>
<glyph name="finalkaf-hb" format="1">
  <advance width="527"/>
  <unicode hex="05DA"/>
  <outline>
    <contour>
      <point x="320" y="-200" type="line" name="hr00"/>
      <point x="470" y="-200" type="line"/>
      <point x="470" y="375" type="line" smooth="yes"/>
      <point x="470" y="546"/>
      <point x="365" y="610"/>
      <point x="202" y="610" type="curve" smooth="yes"/>
      <point x="16" y="610" type="line"/>
      <point x="16" y="477" type="line"/>
      <point x="196" y="477" type="line" smooth="yes"/>
      <point x="291" y="477"/>
      <point x="320" y="423"/>
      <point x="320" y="350" type="curve" smooth="yes"/>
    </contour>
    <contour>
      <point x="167.0" y="419.0" type="move" name="bottom_hebr"/>
    </contour>
    <contour>
      <point x="168.0" y="315.0" type="move" name="center_hebr"/>
    </contour>
  </outline>
</glyph>
<glyph name="kaf-hb" format="1">
  <advance width="542"/>
  <unicode hex="05DB"/>
  <outline>
    <contour>
      <point x="31" y="0" type="line" name="hr00"/>
      <point x="231" y="0" type="line" smooth="yes"/>
      <point x="392" y="0"/>
      <point x="499" y="102"/>
      <point x="499" y="305" type="curve" smooth="yes"/>
      <point x="499" y="508"/>
      <point x="392" y="610"/>
      <point x="231" y="610" type="curve" smooth="yes"/>
      <point x="31" y="610" type="line"/>
      <point x="31" y="477" type="line"/>
      <point x="226" y="477" type="line" smooth="yes"/>
      <point x="298" y="477"/>
      <point x="343" y="428"/>
      <point x="343" y="349" type="curve" smooth="yes"/>
      <point x="343" y="261" type="line" smooth="yes"/>
      <point x="343" y="182"/>
      <point x="298" y="133"/>
      <point x="226" y="133" type="curve" smooth="yes"/>
      <point x="31" y="133" type="line"/>
    </contour>
    <contour>
      <point x="234.0" y="0.0" type="move" name="bottom_hebr"/>
    </contour>
    <contour>
      <point x="182.0" y="315.0" type="move" name="center_hebr"/>
    </contour>
    <contour>
      <point x="214.0" y="525.0" type="move" name="top_hebr"/>
    </contour>
    <contour>
      <point x="0.0" y="525.0" type="move" name="topleft_hebr"/>
    </contour>
  </outline>
</glyph>
<glyph name="lamed-hb" format="1">
  <advance width="516"/>
  <unicode hex="05DC"/>
  <outline>
    <contour>
      <point x="156" y="0" type="line" name="hr00"/>
      <point x="316" y="0" type="line"/>
      <point x="496" y="470" type="line"/>
      <point x="496" y="610" type="line"/>
      <point x="172" y="610" type="line"/>
      <point x="172" y="740" type="line"/>
      <point x="22" y="740" type="line"/>
      <point x="22" y="477" type="line"/>
      <point x="338" y="477" type="line"/>
    </contour>
    <contour>
      <point x="236.0" y="0.0" type="move" name="bottom_hebr"/>
    </contour>
    <contour>
      <point x="163.0" y="315.0" type="move" name="center_hebr"/>
    </contour>
    <contour>
      <point x="-39.0" y="525.0" type="move" name="topleft_hebr"/>
    </contour>
  </outline>
</glyph>
<glyph name="finalmem-hb" format="1">
  <advance width="679"/>
  <unicode hex="05DD"/>
  <outline>
    <contour>
      <point x="73" y="0" type="line" name="hr00"/>
      <point x="612" y="0" type="line"/>
      <point x="612" y="431" type="line" smooth="yes"/>
      <point x="612" y="539"/>
      <point x="543" y="610"/>
      <point x="428" y="610" type="curve" smooth="yes"/>
      <point x="73" y="610" type="line"/>
    </contour>
    <contour>
      <point x="223" y="133" type="line"/>
      <point x="223" y="477" type="line"/>
      <point x="398" y="477" type="line" smooth="yes"/>
      <point x="438" y="477"/>
      <point x="462" y="453"/>
      <point x="462" y="413" type="curve" smooth="yes"/>
      <point x="462" y="133" type="line"/>
    </contour>
  </outline>
</glyph>
<glyph name="mem-hb" format="1">
  <advance width="691"/>
  <unicode hex="05DE"/>
  <outline>
    <contour>
      <point x="46" y="0" type="line"/>
      <point x="196" y="0" type="line"/>
      <point x="262" y="378" type="line" smooth="yes"/>
      <point x="275" y="451"/>
      <point x="314" y="489"/>
      <point x="383" y="489" type="curve" smooth="yes"/>
      <point x="442" y="489"/>
      <point x="474" y="457"/>
      <point x="474" y="350" type="curve" smooth="yes"/>
      <point x="474" y="133" type="line"/>
      <point x="335" y="133" type="line"/>
      <point x="335" y="0" type="line"/>
      <point x="624" y="0" type="line"/>
      <point x="624" y="376" type="line" smooth="yes"/>
      <point x="624" y="567"/>
      <point x="538" y="622"/>
      <point x="442" y="622" type="curve" smooth="yes"/>
      <point x="335" y="622"/>
      <point x="285" y="557"/>
      <point x="259" y="487" type="curve"/>
      <point x="253" y="487" type="line"/>
      <point x="232" y="610" type="line" name="hr01"/>
      <point x="81" y="610" type="line"/>
      <point x="117" y="407" type="line"/>
    </contour>
    <contour>
      <point x="368.0" y="0.0" type="move" name="bottom_hebr"/>
    </contour>
    <contour>
      <point x="368.0" y="315.0" type="move" name="center_hebr"/>
    </contour>
    <contour>
      <point x="30.0" y="525.0" type="move" name="topleft_hebr"/>
    </contour>
  </outline>
</glyph>
<glyph name="finalnun-hb" format="1">
  <advance width="296"/>
  <unicode hex="05DF"/>
  <outline>
    <contour>
      <point x="73" y="-200" type="line" name="hr00"/>
      <point x="223" y="-200" type="line"/>
      <point x="223" y="610" type="line"/>
      <point x="73" y="610" type="line"/>
    </contour>
  </outline>
</glyph>
<glyph name="nun-hb" format="1">
  <advance width="399"/>
  <unicode hex="05E0"/>
  <outline>
    <contour>
      <point x="31" y="0" type="line" name="hr00"/>
      <point x="332" y="0" type="line"/>
      <point x="332" y="426" type="line" smooth="yes"/>
      <point x="332" y="545"/>
      <point x="253" y="610"/>
      <point x="151" y="610" type="curve" smooth="yes"/>
      <point x="44" y="610" type="line"/>
      <point x="44" y="477" type="line"/>
      <point x="118" y="477" type="line" smooth="yes"/>
      <point x="157" y="477"/>
      <point x="182" y="456"/>
      <point x="182" y="417" type="curve" smooth="yes"/>
      <point x="182" y="133" type="line"/>
      <point x="31" y="133" type="line"/>
    </contour>
    <contour>
      <point x="182.0" y="0.0" type="move" name="bottom_hebr"/>
    </contour>
    <contour>
      <point x="107.0" y="315.0" type="move" name="center_hebr"/>
    </contour>
    <contour>
      <point x="0.0" y="525.0" type="move" name="topleft_hebr"/>
    </contour>
  </outline>
</glyph>
<glyph name="samekh-hb" format="1">
  <advance width="662"/>
  <unicode hex="05E1"/>
  <outline>
    <contour>
      <point x="43" y="477" type="line" name="hr00"/>
      <point x="176" y="477" type="line"/>
      <point x="176" y="472" type="line"/>
      <point x="130" y="452"/>
      <point x="51" y="387"/>
      <point x="51" y="255" type="curve" smooth="yes"/>
      <point x="51" y="110"/>
      <point x="151" y="-12"/>
      <point x="335" y="-12" type="curve" smooth="yes"/>
      <point x="513" y="-12"/>
      <point x="619" y="109"/>
      <point x="619" y="305" type="curve" smooth="yes"/>
      <point x="619" y="508"/>
      <point x="512" y="610"/>
      <point x="351" y="610" type="curve" smooth="yes"/>
      <point x="43" y="610" type="line"/>
    </contour>
    <contour>
      <point x="335" y="119" type="curve" smooth="yes"/>
      <point x="254" y="119"/>
      <point x="207" y="172"/>
      <point x="207" y="259" type="curve" smooth="yes"/>
      <point x="207" y="375" type="line" smooth="yes"/>
      <point x="207" y="417"/>
      <point x="213" y="445"/>
      <point x="240" y="477" type="curve"/>
      <point x="346" y="477" type="line" smooth="yes"/>
      <point x="418" y="477"/>
      <point x="463" y="438"/>
      <point x="463" y="349" type="curve" smooth="yes"/>
      <point x="463" y="258" type="line" smooth="yes"/>
      <point x="463" y="172"/>
      <point x="416" y="119"/>
    </contour>
    <contour>
      <point x="335.0" y="0.0" type="move" name="bottom_hebr"/>
    </contour>
    <contour>
      <point x="335.0" y="315.0" type="move" name="center_hebr"/>
    </contour>
    <contour>
      <point x="0.0" y="525.0" type="move" name="topleft_hebr"/>
    </contour>
  </outline>
</glyph>
<glyph name="ayin-hb" format="1">
  <advance width="616"/>
  <unicode hex="05E2"/>
  <outline>
    <contour>
      <point x="29" y="-24" type="line" name="hr00"/>
      <point x="237" y="0" type="line" smooth="yes"/>
      <point x="405" y="19"/>
      <point x="563" y="106"/>
      <point x="563" y="387" type="curve" smooth="yes"/>
      <point x="563" y="610" type="line"/>
      <point x="413" y="610" type="line"/>
      <point x="413" y="375" type="line" smooth="yes"/>
      <point x="413" y="258"/>
      <point x="383" y="188"/>
      <point x="322" y="155" type="curve"/>
      <point x="259" y="365" type="line"/>
      <point x="178" y="610" type="line"/>
      <point x="28" y="610" type="line"/>
      <point x="189" y="127" type="line"/>
      <point x="29" y="110" type="line"/>
    </contour>
    <contour>
      <point x="299.0" y="0.0" type="move" name="bottom_hebr"/>
    </contour>
    <contour>
      <point x="0.0" y="525.0" type="move" name="topleft_hebr"/>
    </contour>
  </outline>
</glyph>
<glyph name="finalpe-hb" format="1">
  <advance width="648"/>
  <unicode hex="05E3"/>
  <outline>
    <contour>
      <point x="431" y="-200" type="line" name="hr00"/>
      <point x="581" y="-200" type="line"/>
      <point x="581" y="375" type="line" smooth="yes"/>
      <point x="581" y="546"/>
      <point x="476" y="610"/>
      <point x="313" y="610" type="curve" smooth="yes"/>
      <point x="53" y="610" type="line"/>
      <point x="53" y="352" type="line" smooth="yes"/>
      <point x="53" y="259"/>
      <point x="99" y="208"/>
      <point x="200" y="208" type="curve" smooth="yes"/>
      <point x="298" y="208" type="line"/>
      <point x="298" y="335" type="line"/>
      <point x="201" y="335" type="line"/>
      <point x="201" y="477" type="line"/>
      <point x="307" y="477" type="line" smooth="yes"/>
      <point x="402" y="477"/>
      <point x="431" y="423"/>
      <point x="431" y="350" type="curve" smooth="yes"/>
    </contour>
    <contour>
      <point x="365.0" y="315.0" type="move" name="center_hebr"/>
    </contour>
  </outline>
</glyph>
<glyph name="pe-hb" format="1">
  <advance width="654"/>
  <unicode hex="05E4"/>
  <outline>
    <contour>
      <point x="73" y="0" type="line" name="hr00"/>
      <point x="343" y="0" type="line" smooth="yes"/>
      <point x="504" y="0"/>
      <point x="611" y="102"/>
      <point x="611" y="305" type="curve" smooth="yes"/>
      <point x="611" y="508"/>
      <point x="504" y="610"/>
      <point x="343" y="610" type="curve" smooth="yes"/>
      <point x="73" y="610" type="line"/>
      <point x="73" y="380" type="line" smooth="yes"/>
      <point x="73" y="287"/>
      <point x="119" y="236"/>
      <point x="220" y="236" type="curve" smooth="yes"/>
      <point x="318" y="236" type="line"/>
      <point x="318" y="363" type="line"/>
      <point x="221" y="363" type="line"/>
      <point x="221" y="477" type="line"/>
      <point x="338" y="477" type="line" smooth="yes"/>
      <point x="410" y="477"/>
      <point x="455" y="428"/>
      <point x="455" y="349" type="curve" smooth="yes"/>
      <point x="455" y="261" type="line" smooth="yes"/>
      <point x="455" y="182"/>
      <point x="410" y="133"/>
      <point x="338" y="133" type="curve" smooth="yes"/>
      <point x="73" y="133" type="line"/>
    </contour>
    <contour>
      <point x="308.0" y="0.0" type="move" name="bottom_hebr"/>
    </contour>
    <contour>
      <point x="387.0" y="315.0" type="move" name="center_hebr"/>
    </contour>
    <contour>
      <point x="285.0" y="525.0" type="move" name="top_hebr"/>
    </contour>
    <contour>
      <point x="27.0" y="525.0" type="move" name="topleft_hebr"/>
    </contour>
  </outline>
</glyph>
<glyph name="finaltsadi-hb" format="1">
  <advance width="583"/>
  <unicode hex="05E5"/>
  <outline>
    <contour>
      <point x="277" y="-200" type="line" name="hr00"/>
      <point x="427" y="-200" type="line"/>
      <point x="313" y="147" type="line"/>
      <point x="421" y="198" type="line" smooth="yes"/>
      <point x="492" y="231"/>
      <point x="528" y="266"/>
      <point x="528" y="354" type="curve" smooth="yes"/>
      <point x="528" y="610" type="line"/>
      <point x="380" y="610" type="line"/>
      <point x="380" y="311" type="line"/>
      <point x="275" y="261" type="line"/>
      <point x="160" y="610" type="line"/>
      <point x="10" y="610" type="line"/>
    </contour>
  </outline>
</glyph>
<glyph name="tsadi-hb" format="1">
  <advance width="614"/>
  <unicode hex="05E6"/>
  <outline>
    <contour>
      <point x="38" y="0" type="line" name="hr00"/>
      <point x="513" y="0" type="line"/>
      <point x="513" y="133" type="line"/>
      <point x="413" y="268" type="line"/>
      <point x="447" y="284" type="line" smooth="yes"/>
      <point x="518" y="317"/>
      <point x="554" y="352"/>
      <point x="554" y="440" type="curve" smooth="yes"/>
      <point x="554" y="610" type="line"/>
      <point x="406" y="610" type="line"/>
      <point x="406" y="394" type="line"/>
      <point x="345" y="365" type="line"/>
      <point x="194" y="610" type="line"/>
      <point x="20" y="610" type="line"/>
      <point x="257" y="248" type="line"/>
      <point x="338" y="133" type="line"/>
      <point x="38" y="133" type="line"/>
    </contour>
    <contour>
      <point x="276.0" y="0.0" type="move" name="bottom_hebr"/>
    </contour>
    <contour>
      <point x="134.0" y="255.0" type="move" name="center_hebr"/>
    </contour>
    <contour>
      <point x="0.0" y="525.0" type="move" name="topleft_hebr"/>
    </contour>
  </outline>
</glyph>
<glyph name="qof-hb" format="1">
  <advance width="638"/>
  <unicode hex="05E7"/>
  <outline>
    <contour>
      <point x="279" y="0" type="line" name="hr00"/>
      <point x="439" y="0" type="line"/>
      <point x="618" y="469" type="line"/>
      <point x="618" y="610" type="line"/>
      <point x="73" y="610" type="line"/>
      <point x="73" y="477" type="line"/>
      <point x="460" y="477" type="line"/>
    </contour>
    <contour>
      <point x="73" y="-200" type="line"/>
      <point x="223" y="-200" type="line"/>
      <point x="223" y="334" type="line"/>
      <point x="73" y="334" type="line"/>
    </contour>
    <contour>
      <point x="433.0" y="0.0" type="move" name="bottom_hebr"/>
    </contour>
    <contour>
      <point x="305.0" y="315.0" type="move" name="center_hebr"/>
    </contour>
    <contour>
      <point x="0.0" y="525.0" type="move" name="topleft_hebr"/>
    </contour>
  </outline>
</glyph>
<glyph name="resh-hb" format="1">
  <advance width="536"/>
  <unicode hex="05E8"/>
  <outline>
    <contour>
      <point x="319" y="0" type="line" name="hr00"/>
      <point x="469" y="0" type="line"/>
      <point x="469" y="412" type="line" smooth="yes"/>
      <point x="469" y="540"/>
      <point x="391" y="610"/>
      <point x="238" y="610" type="curve" smooth="yes"/>
      <point x="19" y="610" type="line"/>
      <point x="19" y="477" type="line"/>
      <point x="229" y="477" type="line" smooth="yes"/>
      <point x="293" y="477"/>
      <point x="319" y="444"/>
      <point x="319" y="391" type="curve" smooth="yes"/>
    </contour>
    <contour>
      <point x="394.0" y="0.0" type="move" name="bottom_hebr"/>
    </contour>
    <contour>
      <point x="169.0" y="315.0" type="move" name="center_hebr"/>
    </contour>
    <contour>
      <point x="0.0" y="525.0" type="move" name="topleft_hebr"/>
    </contour>
  </outline>
</glyph>
<glyph name="shin-hb" format="1">
  <advance width="802"/>
  <unicode hex="05E9"/>
  <outline>
    <contour>
      <point x="401" y="-12" type="curve" smooth="yes" name="hr00"/>
      <point x="644" y="-12"/>
      <point x="744" y="112"/>
      <point x="744" y="362" type="curve" smooth="yes"/>
      <point x="744" y="610" type="line"/>
      <point x="596" y="610" type="line"/>
      <point x="596" y="346" type="line" smooth="yes"/>
      <point x="596" y="183"/>
      <point x="534" y="123"/>
      <point x="401" y="123" type="curve" smooth="yes"/>
      <point x="304" y="123"/>
      <point x="244" y="155"/>
      <point x="220" y="236" type="curve"/>
      <point x="328" y="236" type="line" smooth="yes"/>
      <point x="429" y="236"/>
      <point x="475" y="287"/>
      <point x="475" y="380" type="curve" smooth="yes"/>
      <point x="475" y="610" type="line"/>
      <point x="327" y="610" type="line"/>
      <point x="327" y="357" type="line"/>
      <point x="206" y="357" type="line"/>
      <point x="206" y="610" type="line"/>
      <point x="58" y="610" type="line"/>
      <point x="58" y="362" type="line" smooth="yes"/>
      <point x="58" y="112"/>
      <point x="158" y="-12"/>
    </contour>
    <contour>
      <point x="400.0" y="0.0" type="move" name="bottom_hebr"/>
    </contour>
    <contour>
      <point x="496.0" y="227.0" type="move" name="center_hebr"/>
    </contour>
    <contour>
      <point x="135.0" y="525.0" type="move" name="top_hebr"/>
    </contour>
    <contour>
      <point x="0.0" y="525.0" type="move" name="topleft_hebr"/>
    </contour>
    <contour>
      <point x="667.0" y="525.0" type="move" name="topright_hebr"/>
    </contour>
  </outline>
</glyph>
<glyph name="tav-hb" format="1">
  <advance width="666"/>
  <unicode hex="05EA"/>
  <outline>
    <contour>
      <point x="50" y="0" type="line" name="hr00"/>
      <point x="285" y="0" type="line"/>
      <point x="262" y="233" type="line" smooth="yes"/>
      <point x="258" y="274"/>
      <point x="254" y="316"/>
      <point x="254" y="349" type="curve" smooth="yes"/>
      <point x="254" y="401"/>
      <point x="264" y="437"/>
      <point x="283" y="470" type="curve" smooth="yes"/>
      <point x="287" y="477" type="line"/>
      <point x="359" y="477" type="line" smooth="yes"/>
      <point x="423" y="477"/>
      <point x="449" y="444"/>
      <point x="449" y="391" type="curve" smooth="yes"/>
      <point x="449" y="0" type="line"/>
      <point x="599" y="0" type="line"/>
      <point x="599" y="412" type="line" smooth="yes"/>
      <point x="599" y="540"/>
      <point x="521" y="610"/>
      <point x="368" y="610" type="curve" smooth="yes"/>
      <point x="50" y="610" type="line"/>
      <point x="50" y="477" type="line"/>
      <point x="227" y="477" type="line"/>
      <point x="227" y="471" type="line"/>
      <point x="209" y="462" type="line" smooth="yes"/>
      <point x="146" y="430"/>
      <point x="112" y="374"/>
      <point x="112" y="283" type="curve" smooth="yes"/>
      <point x="112" y="268"/>
      <point x="113" y="253"/>
      <point x="115" y="236" type="curve" smooth="yes"/>
      <point x="126" y="133" type="line"/>
      <point x="50" y="133" type="line"/>
    </contour>
    <contour>
      <point x="367.0" y="0.0" type="move" name="bottom_hebr"/>
    </contour>
    <contour>
      <point x="352.0" y="315.0" type="move" name="center_hebr"/>
    </contour>
    <contour>
      <point x="0.0" y="525.0" type="move" name="topleft_hebr"/>
    </contour>
  </outline>
</glyph>
<glyph name="geresh-hb" format="1">
  <advance width="300"/>
  <unicode hex="05F3"/>
  <outline>
    <contour>
      <point x="152" y="662" type="curve" smooth="yes" name="hr00"/>
      <point x="92" y="662"/>
      <point x="66" y="631"/>
      <point x="66" y="590" type="curve" smooth="yes"/>
      <point x="66" y="565" type="line" smooth="yes"/>
      <point x="66" y="530"/>
      <point x="85" y="500"/>
      <point x="128" y="492" type="curve"/>
      <point x="112" y="442"/>
      <point x="80" y="402"/>
      <point x="36" y="362" type="curve"/>
      <point x="129" y="362" type="line"/>
      <point x="190" y="409"/>
      <point x="238" y="491"/>
      <point x="238" y="569" type="curve" smooth="yes"/>
      <point x="238" y="590" type="line" smooth="yes"/>
      <point x="238" y="631"/>
      <point x="212" y="662"/>
    </contour>
  </outline>
</glyph>
<glyph name="gershayim-hb" format="1">
  <advance width="535"/>
  <unicode hex="05F4"/>
  <outline>
    <contour>
      <point x="152" y="662" type="curve" smooth="yes" name="hr00"/>
      <point x="92" y="662"/>
      <point x="66" y="631"/>
      <point x="66" y="590" type="curve" smooth="yes"/>
      <point x="66" y="565" type="line" smooth="yes"/>
      <point x="66" y="530"/>
      <point x="85" y="500"/>
      <point x="128" y="492" type="curve"/>
      <point x="112" y="442"/>
      <point x="80" y="402"/>
      <point x="36" y="362" type="curve"/>
      <point x="129" y="362" type="line"/>
      <point x="190" y="409"/>
      <point x="238" y="491"/>
      <point x="238" y="569" type="curve" smooth="yes"/>
      <point x="238" y="590" type="line" smooth="yes"/>
      <point x="238" y="631"/>
      <point x="212" y="662"/>
    </contour>
    <contour>
      <point x="387" y="662" type="curve" smooth="yes"/>
      <point x="327" y="662"/>
      <point x="301" y="631"/>
      <point x="301" y="590" type="curve" smooth="yes"/>
      <point x="301" y="565" type="line" smooth="yes"/>
      <point x="301" y="530"/>
      <point x="320" y="500"/>
      <point x="363" y="492" type="curve"/>
      <point x="347" y="442"/>
      <point x="315" y="402"/>
      <point x="271" y="362" type="curve"/>
      <point x="364" y="362" type="line"/>
      <point x="425" y="409"/>
      <point x="473" y="491"/>
      <point x="473" y="569" type="curve" smooth="yes"/>
      <point x="473" y="590" type="line" smooth="yes"/>
      <point x="473" y="631"/>
      <point x="447" y="662"/>
    </contour>
  </outline>
</glyph>
<glyph name="Germandbls" format="1">
  <advance width="731"/>
  <unicode hex="1E9E"/>
  <outline>
    <contour>
      <point x="701" y="216" type="curve" smooth="yes"/>
      <point x="701" y="350"/>
      <point x="595" y="405"/>
      <point x="513" y="411" type="curve"/>
      <point x="513" y="415" type="line"/>
      <point x="637" y="559" type="line"/>
      <point x="637" y="698" type="line"/>
      <point x="77" y="698" type="line"/>
      <point x="77" y="0" type="line"/>
      <point x="229" y="0" type="line"/>
      <point x="229" y="570" type="line"/>
      <point x="486" y="570" type="line"/>
      <point x="356" y="419" type="line"/>
      <point x="356" y="302" type="line"/>
      <point x="452" y="302" type="line" smooth="yes"/>
      <point x="521" y="302"/>
      <point x="548" y="271"/>
      <point x="548" y="228" type="curve" smooth="yes"/>
      <point x="548" y="192" type="line" smooth="yes"/>
      <point x="548" y="149"/>
      <point x="519" y="114"/>
      <point x="472" y="114" type="curve" smooth="yes" name="hr01"/>
      <point x="425" y="114"/>
      <point x="397" y="134"/>
      <point x="369" y="164" type="curve"/>
      <point x="274" y="67" type="line"/>
      <point x="318" y="18"/>
      <point x="385" y="-12"/>
      <point x="472" y="-12" type="curve" smooth="yes"/>
      <point x="614" y="-12"/>
      <point x="701" y="86"/>
    </contour>
  </outline>
</glyph>
<glyph name="endash" format="1">
  <advance width="588"/>
  <unicode hex="2013"/>
  <outline>
    <contour>
      <point x="552" y="244" type="line" name="hr00"/>
      <point x="552" y="364" type="line"/>
      <point x="36" y="364" type="line"/>
      <point x="36" y="244" type="line"/>
    </contour>
  </outline>
</glyph>
<glyph name="emdash" format="1">
  <advance width="780"/>
  <unicode hex="2014"/>
  <outline>
    <contour>
      <point x="744" y="244" type="line" name="hr00"/>
      <point x="744" y="364" type="line"/>
      <point x="36" y="364" type="line"/>
      <point x="36" y="244" type="line"/>
    </contour>
  </outline>
</glyph>
<glyph name="quoteleft" format="1">
  <advance width="300"/>
  <unicode hex="2018"/>
  <outline>
    <contour>
      <point x="148" y="440" type="curve" smooth="yes" name="hr00"/>
      <point x="208" y="440"/>
      <point x="234" y="471"/>
      <point x="234" y="512" type="curve" smooth="yes"/>
      <point x="234" y="537" type="line" smooth="yes"/>
      <point x="234" y="572"/>
      <point x="215" y="602"/>
      <point x="172" y="610" type="curve"/>
      <point x="188" y="660"/>
      <point x="220" y="700"/>
      <point x="264" y="740" type="curve"/>
      <point x="171" y="740" type="line"/>
      <point x="110" y="693"/>
      <point x="62" y="611"/>
      <point x="62" y="533" type="curve" smooth="yes"/>
      <point x="62" y="512" type="line" smooth="yes"/>
      <point x="62" y="471"/>
      <point x="88" y="440"/>
    </contour>
  </outline>
</glyph>
<glyph name="dagger" format="1">
  <advance width="522"/>
  <unicode hex="2020"/>
  <outline>
    <contour>
      <point x="324" y="-200" type="line" name="hr00"/>
      <point x="324" y="408" type="line"/>
      <point x="496" y="408" type="line"/>
      <point x="496" y="516" type="line"/>
      <point x="324" y="516" type="line"/>
      <point x="324" y="740" type="line"/>
      <point x="198" y="740" type="line"/>
      <point x="198" y="516" type="line"/>
      <point x="26" y="516" type="line"/>
      <point x="26" y="408" type="line"/>
      <point x="198" y="408" type="line"/>
      <point x="198" y="-200" type="line"/>
    </contour>
  </outline>
</glyph>
<glyph name="daggerdbl" format="1">
  <advance width="542"/>
  <unicode hex="2021"/>
  <outline>
    <contour>
      <point x="334" y="-200" type="line" name="hr00"/>
      <point x="334" y="24" type="line"/>
      <point x="506" y="24" type="line"/>
      <point x="506" y="132" type="line"/>
      <point x="334" y="132" type="line"/>
      <point x="334" y="408" type="line"/>
      <point x="506" y="408" type="line"/>
      <point x="506" y="516" type="line"/>
      <point x="334" y="516" type="line"/>
      <point x="334" y="740" type="line"/>
      <point x="208" y="740" type="line"/>
      <point x="208" y="516" type="line"/>
      <point x="36" y="516" type="line"/>
      <point x="36" y="408" type="line"/>
      <point x="208" y="408" type="line"/>
      <point x="208" y="132" type="line"/>
      <point x="36" y="132" type="line"/>
      <point x="36" y="24" type="line"/>
      <point x="208" y="24" type="line"/>
      <point x="208" y="-200" type="line"/>
    </contour>
  </outline>
</glyph>
<glyph name="bullet" format="1">
  <advance width="430"/>
  <unicode hex="2022"/>
  <outline>
    <contour>
      <point x="215" y="150" type="curve" smooth="yes" name="hr00"/>
      <point x="326" y="150"/>
      <point x="368" y="206"/>
      <point x="368" y="281" type="curve" smooth="yes"/>
      <point x="368" y="317" type="line" smooth="yes"/>
      <point x="368" y="392"/>
      <point x="326" y="448"/>
      <point x="215" y="448" type="curve" smooth="yes"/>
      <point x="104" y="448"/>
      <point x="62" y="392"/>
      <point x="62" y="317" type="curve" smooth="yes"/>
      <point x="62" y="281" type="line" smooth="yes"/>
      <point x="62" y="206"/>
      <point x="104" y="150"/>
    </contour>
  </outline>
</glyph>
<glyph name="guilsinglright" format="1">
  <advance width="317"/>
  <unicode hex="203A"/>
  <outline>
    <contour>
      <point x="50" y="141" type="line" name="hr00"/>
      <point x="93" y="49" type="line"/>
      <point x="279" y="209" type="line"/>
      <point x="279" y="335" type="line"/>
      <point x="93" y="495" type="line"/>
      <point x="50" y="403" type="line"/>
      <point x="170" y="272" type="line"/>
    </contour>
  </outline>
</glyph>
<glyph name="fraction" format="1">
  <advance width="147"/>
  <unicode hex="2044"/>
  <outline>
    <contour>
      <point x="-137" y="0" type="line" name="hr00"/>
      <point x="392" y="698" type="line"/>
      <point x="284" y="698" type="line"/>
      <point x="-245" y="0" type="line"/>
    </contour>
  </outline>
</glyph>
<glyph name="zerosuperior" format="1">
  <advance width="370"/>
  <unicode hex="2070"/>
  <outline>
    <contour>
      <point x="185" y="323" type="curve" smooth="yes" name="hr00"/>
      <point x="293" y="323"/>
      <point x="345" y="393"/>
      <point x="345" y="514" type="curve" smooth="yes"/>
      <point x="345" y="634"/>
      <point x="293" y="704"/>
      <point x="185" y="704" type="curve" smooth="yes"/>
      <point x="77" y="704"/>
      <point x="25" y="634"/>
      <point x="25" y="514" type="curve" smooth="yes"/>
      <point x="25" y="393"/>
      <point x="77" y="323"/>
    </contour>
    <contour>
      <point x="185" y="407" type="curve" smooth="yes"/>
      <point x="147" y="407"/>
      <point x="137" y="429"/>
      <point x="137" y="476" type="curve" smooth="yes"/>
      <point x="137" y="552" type="line" smooth="yes"/>
      <point x="137" y="598"/>
      <point x="147" y="620"/>
      <point x="185" y="620" type="curve" smooth="yes"/>
      <point x="223" y="620"/>
      <point x="233" y="598"/>
      <point x="233" y="552" type="curve" smooth="yes"/>
      <point x="233" y="476" type="line" smooth="yes"/>
      <point x="233" y="429"/>
      <point x="223" y="407"/>
    </contour>
  </outline>
</glyph>
<glyph name="foursuperior" format="1">
  <advance width="346"/>
  <unicode hex="2074"/>
  <outline>
    <contour>
      <point x="281" y="329" type="line" name="hr00"/>
      <point x="281" y="399" type="line"/>
      <point x="327" y="399" type="line"/>
      <point x="327" y="475" type="line"/>
      <point x="281" y="475" type="line"/>
      <point x="281" y="698" type="line"/>
      <point x="166" y="698" type="line"/>
      <point x="17" y="484" type="line"/>
      <point x="17" y="399" type="line"/>
      <point x="183" y="399" type="line"/>
      <point x="183" y="329" type="line"/>
    </contour>
    <contour>
      <point x="183" y="475" type="line"/>
      <point x="96" y="475" type="line"/>
      <point x="176" y="588" type="line"/>
      <point x="183" y="588" type="line"/>
    </contour>
  </outline>
</glyph>
<glyph name="sevensuperior" format="1">
  <advance width="325"/>
  <unicode hex="2077"/>
  <outline>
    <contour>
      <point x="189" y="329" type="line" name="hr00"/>
      <point x="306" y="612" type="line"/>
      <point x="306" y="698" type="line"/>
      <point x="17" y="698" type="line"/>
      <point x="17" y="551" type="line"/>
      <point x="103" y="551" type="line"/>
      <point x="103" y="618" type="line"/>
      <point x="205" y="618" type="line"/>
      <point x="81" y="329" type="line"/>
    </contour>
  </outline>
</glyph>
<glyph name="eightsuperior" format="1">
  <advance width="354"/>
  <unicode hex="2078"/>
  <outline>
    <contour>
      <point x="177" y="323" type="curve" smooth="yes"/>
      <point x="272" y="323"/>
      <point x="329" y="368"/>
      <point x="329" y="431" type="curve" smooth="yes"/>
      <point x="329" y="475"/>
      <point x="300" y="506"/>
      <point x="253" y="518" type="curve"/>
      <point x="253" y="522" type="line"/>
      <point x="290" y="535"/>
      <point x="318" y="561"/>
      <point x="318" y="604" type="curve" smooth="yes" name="hr01"/>
      <point x="318" y="661"/>
      <point x="269" y="704"/>
      <point x="177" y="704" type="curve" smooth="yes"/>
      <point x="86" y="704"/>
      <point x="37" y="661"/>
      <point x="37" y="604" type="curve" smooth="yes"/>
      <point x="37" y="561"/>
      <point x="65" y="535"/>
      <point x="102" y="522" type="curve"/>
      <point x="102" y="518" type="line"/>
      <point x="55" y="506"/>
      <point x="25" y="475"/>
      <point x="25" y="431" type="curve" smooth="yes" name="hr02"/>
      <point x="25" y="368"/>
      <point x="82" y="323"/>
    </contour>
    <contour>
      <point x="177" y="549" type="curve" smooth="yes"/>
      <point x="148" y="549"/>
      <point x="131" y="564"/>
      <point x="131" y="585" type="curve" smooth="yes" name="hr03"/>
      <point x="131" y="593" type="line" smooth="yes"/>
      <point x="131" y="615"/>
      <point x="148" y="630"/>
      <point x="177" y="630" type="curve" smooth="yes"/>
      <point x="207" y="630"/>
      <point x="223" y="615"/>
      <point x="223" y="593" type="curve" smooth="yes"/>
      <point x="223" y="585" type="line" smooth="yes"/>
      <point x="223" y="564"/>
      <point x="207" y="549"/>
    </contour>
    <contour>
      <point x="177" y="397" type="curve" smooth="yes"/>
      <point x="148" y="397"/>
      <point x="132" y="412"/>
      <point x="132" y="433" type="curve" smooth="yes" name="hr04"/>
      <point x="132" y="443" type="line" smooth="yes"/>
      <point x="132" y="464"/>
      <point x="147" y="479"/>
      <point x="177" y="479" type="curve" smooth="yes"/>
      <point x="208" y="479"/>
      <point x="223" y="464"/>
      <point x="223" y="443" type="curve" smooth="yes"/>
      <point x="223" y="433" type="line" smooth="yes"/>
      <point x="223" y="412"/>
      <point x="207" y="397"/>
    </contour>
  </outline>
</glyph>
<glyph name="ninesuperior" format="1">
  <advance width="356"/>
  <unicode hex="2079"/>
  <outline>
    <contour>
      <point x="332" y="555" type="curve" smooth="yes" name="hr00"/>
      <point x="332" y="644"/>
      <point x="276" y="704"/>
      <point x="176" y="704" type="curve" smooth="yes"/>
      <point x="81" y="704"/>
      <point x="21" y="648"/>
      <point x="21" y="570" type="curve" smooth="yes"/>
      <point x="21" y="500"/>
      <point x="71" y="454"/>
      <point x="135" y="454" type="curve" smooth="yes"/>
      <point x="187" y="454"/>
      <point x="207" y="485"/>
      <point x="219" y="512" type="curve"/>
      <point x="225" y="510" type="line"/>
      <point x="212" y="448"/>
      <point x="149" y="398"/>
      <point x="47" y="329" type="curve"/>
      <point x="190" y="329" type="line"/>
      <point x="260" y="374"/>
      <point x="332" y="454"/>
    </contour>
    <contour>
      <point x="176" y="529" type="curve" smooth="yes"/>
      <point x="145" y="529"/>
      <point x="127" y="545"/>
      <point x="127" y="573" type="curve" smooth="yes"/>
      <point x="127" y="583" type="line" smooth="yes"/>
      <point x="127" y="612"/>
      <point x="143" y="629"/>
      <point x="177" y="629" type="curve" smooth="yes"/>
      <point x="209" y="629"/>
      <point x="226" y="612"/>
      <point x="226" y="583" type="curve" smooth="yes"/>
      <point x="226" y="573" type="line" smooth="yes"/>
      <point x="226" y="545"/>
      <point x="207" y="529"/>
    </contour>
  </outline>
</glyph>
<glyph name="zeroinferior" format="1">
  <advance width="370"/>
  <unicode hex="2080"/>
  <outline>
    <contour>
      <point x="185" y="-6" type="curve" smooth="yes" name="hr00"/>
      <point x="293" y="-6"/>
      <point x="345" y="64"/>
      <point x="345" y="185" type="curve" smooth="yes"/>
      <point x="345" y="305"/>
      <point x="293" y="375"/>
      <point x="185" y="375" type="curve" smooth="yes"/>
      <point x="77" y="375"/>
      <point x="25" y="305"/>
      <point x="25" y="185" type="curve" smooth="yes"/>
      <point x="25" y="64"/>
      <point x="77" y="-6"/>
    </contour>
    <contour>
      <point x="185" y="78" type="curve" smooth="yes"/>
      <point x="147" y="78"/>
      <point x="137" y="100"/>
      <point x="137" y="147" type="curve" smooth="yes"/>
      <point x="137" y="223" type="line" smooth="yes"/>
      <point x="137" y="269"/>
      <point x="147" y="291"/>
      <point x="185" y="291" type="curve" smooth="yes"/>
      <point x="223" y="291"/>
      <point x="233" y="269"/>
      <point x="233" y="223" type="curve" smooth="yes"/>
      <point x="233" y="147" type="line" smooth="yes"/>
      <point x="233" y="100"/>
      <point x="223" y="78"/>
    </contour>
  </outline>
</glyph>
<glyph name="oneinferior" format="1">
  <advance width="344"/>
  <unicode hex="2081"/>
  <outline>
    <contour>
      <point x="324" y="0" type="line" name="hr00"/>
      <point x="324" y="79" type="line"/>
      <point x="243" y="79" type="line"/>
      <point x="243" y="369" type="line"/>
      <point x="93" y="369" type="line"/>
      <point x="8" y="254" type="line"/>
      <point x="75" y="206" type="line"/>
      <point x="136" y="289" type="line"/>
      <point x="142" y="289" type="line"/>
      <point x="142" y="79" type="line"/>
      <point x="49" y="79" type="line"/>
      <point x="49" y="0" type="line"/>
    </contour>
  </outline>
</glyph>
<glyph name="fourinferior" format="1">
  <advance width="346"/>
  <unicode hex="2084"/>
  <outline>
    <contour>
      <point x="281" y="0" type="line" name="hr00"/>
      <point x="281" y="70" type="line"/>
      <point x="327" y="70" type="line"/>
      <point x="327" y="146" type="line"/>
      <point x="281" y="146" type="line"/>
      <point x="281" y="369" type="line"/>
      <point x="166" y="369" type="line"/>
      <point x="17" y="155" type="line"/>
      <point x="17" y="70" type="line"/>
      <point x="183" y="70" type="line"/>
      <point x="183" y="0" type="line"/>
    </contour>
    <contour>
      <point x="183" y="146" type="line"/>
      <point x="96" y="146" type="line"/>
      <point x="176" y="259" type="line"/>
      <point x="183" y="259" type="line"/>
    </contour>
  </outline>
</glyph>
<glyph name="sixinferior" format="1">
  <advance width="356"/>
  <unicode hex="2086"/>
  <outline>
    <contour>
      <point x="179" y="-6" type="curve" smooth="yes" name="hr00"/>
      <point x="274" y="-6"/>
      <point x="334" y="50"/>
      <point x="334" y="128" type="curve" smooth="yes"/>
      <point x="334" y="198"/>
      <point x="284" y="243"/>
      <point x="220" y="243" type="curve" smooth="yes"/>
      <point x="168" y="243"/>
      <point x="147" y="213"/>
      <point x="136" y="186" type="curve"/>
      <point x="130" y="188" type="line"/>
      <point x="143" y="250"/>
      <point x="206" y="300"/>
      <point x="308" y="369" type="curve"/>
      <point x="165" y="369" type="line"/>
      <point x="95" y="324"/>
      <point x="23" y="244"/>
      <point x="23" y="143" type="curve" smooth="yes"/>
      <point x="23" y="54"/>
      <point x="79" y="-6"/>
    </contour>
    <contour>
      <point x="178" y="69" type="curve" smooth="yes"/>
      <point x="146" y="69"/>
      <point x="129" y="86"/>
      <point x="129" y="115" type="curve" smooth="yes"/>
      <point x="129" y="125" type="line" smooth="yes"/>
      <point x="129" y="153"/>
      <point x="148" y="169"/>
      <point x="179" y="169" type="curve" smooth="yes"/>
      <point x="210" y="169"/>
      <point x="227" y="153"/>
      <point x="227" y="125" type="curve" smooth="yes"/>
      <point x="227" y="115" type="line" smooth="yes"/>
      <point x="227" y="86"/>
      <point x="212" y="69"/>
    </contour>
  </outline>
</glyph>
<glyph name="seveninferior" format="1">
  <advance width="325"/>
  <unicode hex="2087"/>
  <outline>
    <contour>
      <point x="189" y="0" type="line" name="hr00"/>
      <point x="306" y="283" type="line"/>
      <point x="306" y="369" type="line"/>
      <point x="17" y="369" type="line"/>
      <point x="17" y="222" type="line"/>
      <point x="103" y="222" type="line"/>
      <point x="103" y="289" type="line"/>
      <point x="205" y="289" type="line"/>
      <point x="81" y="0" type="line"/>
    </contour>
  </outline>
</glyph>
<glyph name="eightinferior" format="1">
  <advance width="354"/>
  <unicode hex="2088"/>
  <outline>
    <contour>
      <point x="177" y="-6" type="curve" smooth="yes"/>
      <point x="272" y="-6"/>
      <point x="329" y="39"/>
      <point x="329" y="102" type="curve" smooth="yes"/>
      <point x="329" y="146"/>
      <point x="300" y="177"/>
      <point x="253" y="189" type="curve"/>
      <point x="253" y="193" type="line"/>
      <point x="290" y="206"/>
      <point x="318" y="232"/>
      <point x="318" y="275" type="curve" smooth="yes" name="hr01"/>
      <point x="318" y="332"/>
      <point x="269" y="375"/>
      <point x="177" y="375" type="curve" smooth="yes"/>
      <point x="86" y="375"/>
      <point x="37" y="332"/>
      <point x="37" y="275" type="curve" smooth="yes"/>
      <point x="37" y="232"/>
      <point x="65" y="206"/>
      <point x="102" y="193" type="curve"/>
      <point x="102" y="189" type="line"/>
      <point x="55" y="177"/>
      <point x="25" y="146"/>
      <point x="25" y="102" type="curve" smooth="yes" name="hr02"/>
      <point x="25" y="39"/>
      <point x="82" y="-6"/>
    </contour>
    <contour>
      <point x="177" y="68" type="curve" smooth="yes"/>
      <point x="148" y="68"/>
      <point x="132" y="83"/>
      <point x="132" y="104" type="curve" smooth="yes"/>
      <point x="132" y="114" type="line" smooth="yes"/>
      <point x="132" y="135"/>
      <point x="147" y="150"/>
      <point x="177" y="150" type="curve" smooth="yes"/>
      <point x="208" y="150"/>
      <point x="223" y="135"/>
      <point x="223" y="114" type="curve" smooth="yes"/>
      <point x="223" y="104" type="line" smooth="yes"/>
      <point x="223" y="83"/>
      <point x="207" y="68"/>
    </contour>
    <contour>
      <point x="177" y="220" type="curve" smooth="yes"/>
      <point x="148" y="220"/>
      <point x="131" y="235"/>
      <point x="131" y="256" type="curve" smooth="yes" name="hr03"/>
      <point x="131" y="264" type="line" smooth="yes"/>
      <point x="131" y="286"/>
      <point x="148" y="301"/>
      <point x="177" y="301" type="curve" smooth="yes"/>
      <point x="207" y="301"/>
      <point x="223" y="286"/>
      <point x="223" y="264" type="curve" smooth="yes"/>
      <point x="223" y="256" type="line" smooth="yes"/>
      <point x="223" y="235"/>
      <point x="207" y="220"/>
    </contour>
  </outline>
</glyph>
<glyph name="naira" format="1">
  <advance width="776"/>
  <unicode hex="20A6"/>
  <outline>
    <contour>
      <point x="495" y="0" type="line" name="hr00"/>
      <point x="670" y="0" type="line"/>
      <point x="670" y="228" type="line"/>
      <point x="759" y="228" type="line"/>
      <point x="759" y="318" type="line"/>
      <point x="670" y="318" type="line"/>
      <point x="670" y="386" type="line"/>
      <point x="759" y="386" type="line"/>
      <point x="759" y="476" type="line"/>
      <point x="670" y="476" type="line"/>
      <point x="670" y="698" type="line"/>
      <point x="539" y="698" type="line"/>
      <point x="539" y="476" type="line"/>
      <point x="391" y="476" type="line"/>
      <point x="279" y="698" type="line"/>
      <point x="105" y="698" type="line"/>
      <point x="105" y="476" type="line"/>
      <point x="17" y="476" type="line"/>
      <point x="17" y="386" type="line"/>
      <point x="105" y="386" type="line"/>
      <point x="105" y="318" type="line"/>
      <point x="17" y="318" type="line"/>
      <point x="17" y="228" type="line"/>
      <point x="105" y="228" type="line"/>
      <point x="105" y="0" type="line"/>
      <point x="238" y="0" type="line"/>
      <point x="238" y="228" type="line"/>
      <point x="381" y="228" type="line"/>
    </contour>
    <contour>
      <point x="238" y="314" type="line"/>
      <point x="238" y="514" type="line"/>
      <point x="241" y="514" type="line"/>
      <point x="338" y="314" type="line"/>
    </contour>
    <contour>
      <point x="435" y="390" type="line"/>
      <point x="539" y="390" type="line"/>
      <point x="539" y="184" type="line"/>
      <point x="536" y="184" type="line"/>
    </contour>
  </outline>
</glyph>
<glyph name="sheqel" format="1">
  <advance width="916"/>
  <unicode hex="20AA"/>
  <outline>
    <contour>
      <point x="286" y="0" type="line" name="hr00"/>
      <point x="657" y="0" type="line" smooth="yes"/>
      <point x="765" y="0"/>
      <point x="839" y="65"/>
      <point x="839" y="198" type="curve" smooth="yes"/>
      <point x="839" y="698" type="line"/>
      <point x="704" y="698" type="line"/>
      <point x="704" y="199" type="line" smooth="yes"/>
      <point x="704" y="155"/>
      <point x="683" y="123"/>
      <point x="637" y="123" type="curve" smooth="yes"/>
      <point x="421" y="123" type="line"/>
      <point x="421" y="505" type="line"/>
      <point x="286" y="505" type="line"/>
    </contour>
    <contour>
      <point x="212" y="0" type="line"/>
      <point x="212" y="575" type="line"/>
      <point x="428" y="575" type="line" smooth="yes"/>
      <point x="477" y="575"/>
      <point x="495" y="543"/>
      <point x="495" y="499" type="curve" smooth="yes"/>
      <point x="495" y="191" type="line"/>
      <point x="630" y="191" type="line"/>
      <point x="630" y="500" type="line" smooth="yes"/>
      <point x="630" y="633"/>
      <point x="556" y="698"/>
      <point x="448" y="698" type="curve" smooth="yes"/>
      <point x="77" y="698" type="line"/>
      <point x="77" y="0" type="line"/>
    </contour>
  </outline>
</glyph>
<glyph name="dong" format="1">
  <advance width="576"/>
  <unicode hex="20AB"/>
  <outline>
    <contour>
      <point x="338" y="165" type="line" name="hr00"/>
      <point x="486" y="165" type="line"/>
      <point x="486" y="593" type="line"/>
      <point x="545" y="593" type="line"/>
      <point x="545" y="683" type="line"/>
      <point x="486" y="683" type="line"/>
      <point x="486" y="740" type="line"/>
      <point x="338" y="740" type="line"/>
      <point x="338" y="683" type="line"/>
      <point x="216" y="683" type="line"/>
      <point x="216" y="593" type="line"/>
      <point x="338" y="593" type="line"/>
      <point x="338" y="459" type="line"/>
      <point x="332" y="459" type="line"/>
      <point x="311" y="505"/>
      <point x="274" y="541"/>
      <point x="198" y="541" type="curve" smooth="yes"/>
      <point x="103" y="541"/>
      <point x="36" y="483"/>
      <point x="36" y="349" type="curve" smooth="yes"/>
      <point x="36" y="215"/>
      <point x="103" y="157"/>
      <point x="198" y="157" type="curve" smooth="yes"/>
      <point x="274" y="157"/>
      <point x="311" y="195"/>
      <point x="332" y="238" type="curve"/>
      <point x="338" y="238" type="line"/>
    </contour>
    <contour>
      <point x="259" y="261" type="curve" smooth="yes"/>
      <point x="207" y="261"/>
      <point x="180" y="290"/>
      <point x="180" y="333" type="curve" smooth="yes"/>
      <point x="180" y="366" type="line" smooth="yes"/>
      <point x="180" y="409"/>
      <point x="207" y="438"/>
      <point x="259" y="438" type="curve" smooth="yes"/>
      <point x="311" y="438"/>
      <point x="338" y="411"/>
      <point x="338" y="383" type="curve"/>
      <point x="338" y="316" type="line"/>
      <point x="338" y="288"/>
      <point x="311" y="261"/>
    </contour>
    <contour>
      <point x="504" y="0" type="line"/>
      <point x="504" y="105" type="line"/>
      <point x="53" y="105" type="line"/>
      <point x="53" y="0" type="line"/>
    </contour>
  </outline>
</glyph>
<glyph name="kip" format="1">
  <advance width="684"/>
  <unicode hex="20AD"/>
  <outline>
    <contour>
      <point x="247" y="291" type="line" name="hr00"/>
      <point x="287" y="291" type="line"/>
      <point x="492" y="0" type="line"/>
      <point x="672" y="0" type="line"/>
      <point x="456" y="291" type="line"/>
      <point x="624" y="291" type="line"/>
      <point x="624" y="411" type="line"/>
      <point x="443" y="411" type="line"/>
      <point x="645" y="698" type="line"/>
      <point x="473" y="698" type="line"/>
      <point x="285" y="411" type="line"/>
      <point x="247" y="411" type="line"/>
      <point x="247" y="698" type="line"/>
      <point x="95" y="698" type="line"/>
      <point x="95" y="411" type="line"/>
      <point x="6" y="411" type="line"/>
      <point x="6" y="291" type="line"/>
      <point x="95" y="291" type="line"/>
      <point x="95" y="0" type="line"/>
      <point x="247" y="0" type="line"/>
    </contour>
  </outline>
</glyph>
<glyph name="tugrik" format="1">
  <advance width="604"/>
  <unicode hex="20AE"/>
  <outline>
    <contour>
      <point x="499" y="265" type="line" name="hr00"/>
      <point x="499" y="355" type="line"/>
      <point x="378" y="298" type="line"/>
      <point x="378" y="365" type="line"/>
      <point x="499" y="422" type="line"/>
      <point x="499" y="512" type="line"/>
      <point x="378" y="455" type="line"/>
      <point x="378" y="575" type="line"/>
      <point x="567" y="575" type="line"/>
      <point x="567" y="698" type="line"/>
      <point x="37" y="698" type="line"/>
      <point x="37" y="575" type="line"/>
      <point x="226" y="575" type="line"/>
      <point x="226" y="383" type="line"/>
      <point x="106" y="326" type="line"/>
      <point x="106" y="237" type="line"/>
      <point x="226" y="293" type="line"/>
      <point x="226" y="226" type="line"/>
      <point x="106" y="169" type="line"/>
      <point x="106" y="79" type="line"/>
      <point x="226" y="136" type="line"/>
      <point x="226" y="0" type="line"/>
      <point x="378" y="0" type="line"/>
      <point x="378" y="208" type="line"/>
    </contour>
  </outline>
</glyph>
<glyph name="peso" format="1">
  <advance width="698"/>
  <unicode hex="20B1"/>
  <outline>
    <contour>
      <point x="257" y="151" type="line" name="hr00"/>
      <point x="386" y="151" type="line" smooth="yes"/>
      <point x="485" y="151"/>
      <point x="553" y="203"/>
      <point x="580" y="311" type="curve"/>
      <point x="682" y="311" type="line"/>
      <point x="682" y="391" type="line"/>
      <point x="592" y="391" type="line"/>
      <point x="593" y="403"/>
      <point x="593" y="415"/>
      <point x="593" y="428" type="curve" smooth="yes"/>
      <point x="593" y="439"/>
      <point x="593" y="449"/>
      <point x="592" y="459" type="curve"/>
      <point x="682" y="459" type="line"/>
      <point x="682" y="539" type="line"/>
      <point x="583" y="539" type="line"/>
      <point x="558" y="654"/>
      <point x="489" y="698"/>
      <point x="387" y="698" type="curve" smooth="yes"/>
      <point x="105" y="698" type="line"/>
      <point x="105" y="539" type="line"/>
      <point x="16" y="539" type="line"/>
      <point x="16" y="459" type="line"/>
      <point x="105" y="459" type="line"/>
      <point x="105" y="391" type="line"/>
      <point x="16" y="391" type="line"/>
      <point x="16" y="311" type="line"/>
      <point x="105" y="311" type="line"/>
      <point x="105" y="0" type="line"/>
      <point x="257" y="0" type="line"/>
    </contour>
    <contour>
      <point x="257" y="596" type="line"/>
      <point x="368" y="596" type="line" smooth="yes"/>
      <point x="406" y="596"/>
      <point x="432" y="572"/>
      <point x="439" y="533" type="curve"/>
      <point x="257" y="533" type="line"/>
    </contour>
    <contour>
      <point x="257" y="387" type="line"/>
      <point x="257" y="463" type="line"/>
      <point x="441" y="463" type="line"/>
      <point x="441" y="387" type="line"/>
    </contour>
    <contour>
      <point x="257" y="251" type="line"/>
      <point x="257" y="317" type="line"/>
      <point x="439" y="317" type="line"/>
      <point x="433" y="276"/>
      <point x="407" y="251"/>
      <point x="368" y="251" type="curve" smooth="yes"/>
    </contour>
  </outline>
</glyph>
<glyph name="tenge" format="1">
  <advance width="604"/>
  <unicode hex="20B8"/>
  <outline>
    <contour>
      <point x="567" y="593" type="line" name="hr00"/>
      <point x="567" y="698" type="line"/>
      <point x="37" y="698" type="line"/>
      <point x="37" y="593" type="line"/>
    </contour>
    <contour>
      <point x="567" y="406" type="line"/>
      <point x="567" y="511" type="line"/>
      <point x="37" y="511" type="line"/>
      <point x="37" y="406" type="line"/>
      <point x="226" y="406" type="line"/>
      <point x="226" y="0" type="line"/>
      <point x="378" y="0" type="line"/>
      <point x="378" y="406" type="line"/>
    </contour>
  </outline>
</glyph>
<glyph name="rupeeindian" format="1">
  <advance width="629"/>
  <unicode hex="20B9"/>
  <outline>
    <contour>
      <point x="531" y="0" type="line" name="hr00"/>
      <point x="342" y="235" type="line"/>
      <point x="417" y="264"/>
      <point x="457" y="328"/>
      <point x="469" y="406" type="curve"/>
      <point x="592" y="406" type="line"/>
      <point x="592" y="511" type="line"/>
      <point x="465" y="511" type="line"/>
      <point x="450" y="555"/>
      <point x="419" y="585"/>
      <point x="388" y="589" type="curve"/>
      <point x="388" y="593" type="line"/>
      <point x="592" y="593" type="line"/>
      <point x="592" y="698" type="line"/>
      <point x="62" y="698" type="line"/>
      <point x="62" y="593" type="line"/>
      <point x="223" y="593" type="line" smooth="yes"/>
      <point x="284" y="593"/>
      <point x="316" y="576"/>
      <point x="321" y="511" type="curve"/>
      <point x="62" y="511" type="line"/>
      <point x="62" y="406" type="line"/>
      <point x="321" y="406" type="line"/>
      <point x="316" y="351"/>
      <point x="285" y="324"/>
      <point x="223" y="324" type="curve" smooth="yes"/>
      <point x="62" y="324" type="line"/>
      <point x="62" y="219" type="line"/>
      <point x="181" y="219" type="line"/>
      <point x="346" y="0" type="line"/>
    </contour>
  </outline>
</glyph>
<glyph name="liraturkish" format="1">
  <advance width="611"/>
  <unicode hex="20BA"/>
  <outline>
    <contour>
      <point x="105" y="0" type="line" name="hr00"/>
      <point x="325" y="0" type="line" smooth="yes"/>
      <point x="507" y="0"/>
      <point x="585" y="135"/>
      <point x="585" y="305" type="curve"/>
      <point x="440" y="305" type="line"/>
      <point x="440" y="161"/>
      <point x="396" y="123"/>
      <point x="306" y="123" type="curve" smooth="yes"/>
      <point x="257" y="123" type="line"/>
      <point x="257" y="285" type="line"/>
      <point x="408" y="357" type="line"/>
      <point x="408" y="446" type="line"/>
      <point x="257" y="375" type="line"/>
      <point x="257" y="443" type="line"/>
      <point x="408" y="514" type="line"/>
      <point x="408" y="604" type="line"/>
      <point x="257" y="532" type="line"/>
      <point x="257" y="698" type="line"/>
      <point x="105" y="698" type="line"/>
      <point x="105" y="460" type="line"/>
      <point x="17" y="418" type="line"/>
      <point x="17" y="329" type="line"/>
      <point x="105" y="371" type="line"/>
      <point x="105" y="303" type="line"/>
      <point x="17" y="261" type="line"/>
      <point x="17" y="171" type="line"/>
      <point x="105" y="213" type="line"/>
    </contour>
  </outline>
</glyph>
<glyph name="ruble" format="1">
  <advance width="661"/>
  <unicode hex="20BD"/>
  <outline>
    <contour>
      <point x="470" y="103" type="line" name="hr00"/>
      <point x="470" y="208" type="line"/>
      <point x="256" y="208" type="line"/>
      <point x="256" y="290" type="line"/>
      <point x="415" y="290" type="line" smooth="yes"/>
      <point x="545" y="290"/>
      <point x="625" y="364"/>
      <point x="625" y="494" type="curve" smooth="yes"/>
      <point x="625" y="624"/>
      <point x="545" y="698"/>
      <point x="415" y="698" type="curve" smooth="yes"/>
      <point x="104" y="698" type="line"/>
      <point x="104" y="395" type="line"/>
      <point x="16" y="395" type="line"/>
      <point x="16" y="290" type="line"/>
      <point x="104" y="290" type="line"/>
      <point x="104" y="208" type="line"/>
      <point x="16" y="208" type="line"/>
      <point x="16" y="103" type="line"/>
      <point x="104" y="103" type="line"/>
      <point x="104" y="0" type="line"/>
      <point x="256" y="0" type="line"/>
      <point x="256" y="103" type="line"/>
    </contour>
    <contour>
      <point x="256" y="575" type="line"/>
      <point x="396" y="575" type="line" smooth="yes"/>
      <point x="441" y="575"/>
      <point x="469" y="555"/>
      <point x="469" y="510" type="curve" smooth="yes"/>
      <point x="469" y="466" type="line" smooth="yes"/>
      <point x="469" y="421"/>
      <point x="442" y="395"/>
      <point x="396" y="395" type="curve" smooth="yes"/>
      <point x="256" y="395" type="line"/>
    </contour>
  </outline>
</glyph>
<glyph name="bitcoin" format="1">
  <advance width="665"/>
  <unicode hex="20BF"/>
  <outline>
    <contour>
      <point x="354" y="-82" type="line"/>
      <point x="464" y="-82" type="line"/>
      <point x="464" y="20" type="line"/>
      <point x="556" y="25"/>
      <point x="625" y="107"/>
      <point x="625" y="208" type="curve" smooth="yes"/>
      <point x="625" y="311"/>
      <point x="563" y="357"/>
      <point x="472" y="362" type="curve"/>
      <point x="472" y="368" type="line"/>
      <point x="559" y="379"/>
      <point x="600" y="418"/>
      <point x="600" y="509" type="curve" smooth="yes" name="hr01"/>
      <point x="600" y="599"/>
      <point x="550" y="661"/>
      <point x="464" y="675" type="curve" name="hr02"/>
      <point x="464" y="780" type="line"/>
      <point x="354" y="780" type="line"/>
      <point x="354" y="678" type="line"/>
      <point x="287" y="678" type="line"/>
      <point x="287" y="780" type="line"/>
      <point x="177" y="780" type="line"/>
      <point x="177" y="678" type="line"/>
      <point x="77" y="678" type="line"/>
      <point x="77" y="20" type="line"/>
      <point x="177" y="20" type="line"/>
      <point x="177" y="-82" type="line"/>
      <point x="287" y="-82" type="line"/>
      <point x="287" y="20" type="line"/>
      <point x="354" y="20" type="line"/>
    </contour>
    <contour>
      <point x="220" y="557" type="line"/>
      <point x="391" y="557" type="line" smooth="yes"/>
      <point x="429" y="557"/>
      <point x="452" y="537"/>
      <point x="452" y="499" type="curve" smooth="yes" name="hr03"/>
      <point x="452" y="466" type="line" smooth="yes"/>
      <point x="452" y="428"/>
      <point x="429" y="408"/>
      <point x="391" y="408" type="curve" smooth="yes"/>
      <point x="220" y="408" type="line"/>
    </contour>
    <contour>
      <point x="220" y="292" type="line"/>
      <point x="415" y="292" type="line" smooth="yes"/>
      <point x="453" y="292"/>
      <point x="477" y="271"/>
      <point x="477" y="233" type="curve" smooth="yes" name="hr04"/>
      <point x="477" y="200" type="line" smooth="yes"/>
      <point x="477" y="162"/>
      <point x="453" y="141"/>
      <point x="415" y="141" type="curve" smooth="yes"/>
      <point x="220" y="141" type="line"/>
    </contour>
  </outline>
</glyph>
<glyph name="litre" format="1">
  <advance width="553"/>
  <unicode hex="2113"/>
  <outline>
    <contour>
      <point x="314" y="-12" type="curve" smooth="yes" name="hr00"/>
      <point x="425" y="-12"/>
      <point x="494" y="57"/>
      <point x="532" y="158" type="curve"/>
      <point x="412" y="219" type="line"/>
      <point x="373" y="139"/>
      <point x="350" y="116"/>
      <point x="312" y="116" type="curve" smooth="yes"/>
      <point x="276" y="116"/>
      <point x="254" y="137"/>
      <point x="254" y="187" type="curve" smooth="yes"/>
      <point x="254" y="228" type="line"/>
      <point x="404" y="345"/>
      <point x="477" y="436"/>
      <point x="477" y="561" type="curve" smooth="yes"/>
      <point x="477" y="679"/>
      <point x="412" y="752"/>
      <point x="296" y="752" type="curve" smooth="yes"/>
      <point x="194" y="752"/>
      <point x="114" y="695"/>
      <point x="114" y="545" type="curve" smooth="yes"/>
      <point x="114" y="302" type="line"/>
      <point x="93" y="287"/>
      <point x="52" y="258"/>
      <point x="16" y="238" type="curve"/>
      <point x="80" y="135" type="line"/>
      <point x="121" y="162" type="line"/>
      <point x="121" y="159" type="line" smooth="yes"/>
      <point x="121" y="53"/>
      <point x="207" y="-12"/>
    </contour>
    <contour>
      <point x="300" y="621" type="curve" smooth="yes"/>
      <point x="323" y="621"/>
      <point x="341" y="602"/>
      <point x="341" y="559" type="curve" smooth="yes"/>
      <point x="341" y="549" type="line" smooth="yes"/>
      <point x="341" y="477"/>
      <point x="304" y="423"/>
      <point x="254" y="378" type="curve"/>
      <point x="254" y="550" type="line" smooth="yes"/>
      <point x="254" y="602"/>
      <point x="278" y="621"/>
    </contour>
  </outline>
</glyph>
<glyph name="numerosign" format="1">
  <advance width="1060"/>
  <unicode hex="2116"/>
  <outline>
    <contour>
      <point x="857" y="358" type="curve" smooth="yes"/>
      <point x="962" y="358"/>
      <point x="1023" y="423"/>
      <point x="1023" y="534" type="curve" smooth="yes"/>
      <point x="1023" y="645"/>
      <point x="962" y="710"/>
      <point x="857" y="710" type="curve" smooth="yes"/>
      <point x="752" y="710"/>
      <point x="691" y="645"/>
      <point x="691" y="534" type="curve" smooth="yes"/>
      <point x="691" y="423"/>
      <point x="752" y="358"/>
    </contour>
    <contour>
      <point x="220" y="0" type="line"/>
      <point x="220" y="472" type="line"/>
      <point x="223" y="472" type="line"/>
      <point x="290" y="320" type="line"/>
      <point x="455" y="0" type="line"/>
      <point x="621" y="0" type="line"/>
      <point x="621" y="698" type="line" name="hr01"/>
      <point x="478" y="698" type="line"/>
      <point x="478" y="226" type="line"/>
      <point x="475" y="226" type="line"/>
      <point x="408" y="378" type="line"/>
      <point x="243" y="698" type="line"/>
      <point x="77" y="698" type="line"/>
      <point x="77" y="0" type="line"/>
    </contour>
    <contour>
      <point x="857" y="437" type="curve" smooth="yes"/>
      <point x="820" y="437"/>
      <point x="797" y="462"/>
      <point x="797" y="507" type="curve" smooth="yes"/>
      <point x="797" y="561" type="line" smooth="yes"/>
      <point x="797" y="606"/>
      <point x="820" y="631"/>
      <point x="857" y="631" type="curve" smooth="yes" name="hr02"/>
      <point x="894" y="631"/>
      <point x="917" y="606"/>
      <point x="917" y="561" type="curve" smooth="yes"/>
      <point x="917" y="507" type="line" smooth="yes"/>
      <point x="917" y="462"/>
      <point x="894" y="437"/>
    </contour>
    <contour>
      <point x="1016" y="218" type="line"/>
      <point x="1016" y="297" type="line"/>
      <point x="698" y="297" type="line"/>
      <point x="698" y="218" type="line"/>
    </contour>
  </outline>
</glyph>
<glyph name="trademark" format="1">
  <advance width="614"/>
  <unicode hex="2122"/>
  <outline>
    <contour>
      <point x="177" y="409" type="line" name="hr00"/>
      <point x="177" y="637" type="line"/>
      <point x="243" y="637" type="line"/>
      <point x="243" y="698" type="line"/>
      <point x="24" y="698" type="line"/>
      <point x="24" y="637" type="line"/>
      <point x="91" y="637" type="line"/>
      <point x="91" y="409" type="line"/>
    </contour>
    <contour>
      <point x="345" y="409" type="line"/>
      <point x="345" y="504" type="line"/>
      <point x="336" y="598" type="line"/>
      <point x="340" y="598" type="line"/>
      <point x="418" y="453" type="line"/>
      <point x="495" y="598" type="line"/>
      <point x="499" y="598" type="line"/>
      <point x="491" y="504" type="line"/>
      <point x="491" y="409" type="line"/>
      <point x="562" y="409" type="line"/>
      <point x="562" y="698" type="line"/>
      <point x="478" y="698" type="line"/>
      <point x="424" y="591" type="line"/>
      <point x="418" y="591" type="line"/>
      <point x="363" y="698" type="line"/>
      <point x="273" y="698" type="line"/>
      <point x="273" y="409" type="line"/>
    </contour>
  </outline>
</glyph>
<glyph name="estimated" format="1">
  <advance width="714"/>
  <unicode hex="212E"/>
  <outline>
    <contour>
      <point x="214" y="349" type="line" name="hr00"/>
      <point x="684" y="349" type="line"/>
      <point x="684" y="569"/>
      <point x="545" y="710"/>
      <point x="357" y="710" type="curve" smooth="yes"/>
      <point x="169" y="710"/>
      <point x="30" y="569"/>
      <point x="30" y="349" type="curve" smooth="yes"/>
      <point x="30" y="129"/>
      <point x="169" y="-12"/>
      <point x="357" y="-12" type="curve" smooth="yes"/>
      <point x="499" y="-12"/>
      <point x="603" y="65"/>
      <point x="656" y="166" type="curve"/>
      <point x="601" y="198" type="line"/>
      <point x="553" y="109"/>
      <point x="477" y="49"/>
      <point x="357" y="49" type="curve" smooth="yes"/>
      <point x="299" y="49"/>
      <point x="252" y="64"/>
      <point x="214" y="88" type="curve"/>
    </contour>
    <contour>
      <point x="214" y="407" type="line"/>
      <point x="214" y="613" type="line"/>
      <point x="252" y="636"/>
      <point x="299" y="652"/>
      <point x="357" y="652" type="curve"/>
      <point x="415" y="652"/>
      <point x="462" y="636"/>
      <point x="500" y="613" type="curve"/>
      <point x="500" y="407" type="line"/>
    </contour>
  </outline>
</glyph>
<glyph name="arrowleft" format="1">
  <advance width="900"/>
  <unicode hex="2190"/>
  <outline>
    <contour>
      <point x="95" y="349" type="line" name="hr00"/>
      <point x="334" y="110" type="line"/>
      <point x="414" y="190" type="line"/>
      <point x="354" y="250" type="line"/>
      <point x="310" y="288" type="line"/>
      <point x="311" y="292" type="line"/>
      <point x="391" y="288" type="line"/>
      <point x="805" y="288" type="line"/>
      <point x="805" y="410" type="line"/>
      <point x="391" y="410" type="line"/>
      <point x="311" y="406" type="line"/>
      <point x="310" y="410" type="line"/>
      <point x="354" y="448" type="line"/>
      <point x="414" y="508" type="line"/>
      <point x="334" y="588" type="line"/>
    </contour>
  </outline>
</glyph>
<glyph name="arrowup" format="1">
  <advance width="900"/>
  <unicode hex="2191"/>
  <outline>
    <contour>
      <point x="450" y="710" type="line" name="hr00"/>
      <point x="211" y="471" type="line"/>
      <point x="291" y="391" type="line"/>
      <point x="351" y="451" type="line"/>
      <point x="389" y="495" type="line"/>
      <point x="393" y="494" type="line"/>
      <point x="389" y="414" type="line"/>
      <point x="389" y="0" type="line"/>
      <point x="511" y="0" type="line"/>
      <point x="511" y="414" type="line"/>
      <point x="507" y="494" type="line"/>
      <point x="511" y="495" type="line"/>
      <point x="549" y="451" type="line"/>
      <point x="609" y="391" type="line"/>
      <point x="689" y="471" type="line"/>
    </contour>
  </outline>
</glyph>
<glyph name="arrowdown" format="1">
  <advance width="900"/>
  <unicode hex="2193"/>
  <outline>
    <contour>
      <point x="450" y="-12" type="line" name="hr00"/>
      <point x="689" y="227" type="line"/>
      <point x="609" y="307" type="line"/>
      <point x="549" y="247" type="line"/>
      <point x="511" y="203" type="line"/>
      <point x="507" y="204" type="line"/>
      <point x="511" y="284" type="line"/>
      <point x="511" y="698" type="line"/>
      <point x="389" y="698" type="line"/>
      <point x="389" y="284" type="line"/>
      <point x="393" y="204" type="line"/>
      <point x="389" y="203" type="line"/>
      <point x="351" y="247" type="line"/>
      <point x="291" y="307" type="line"/>
      <point x="211" y="227" type="line"/>
    </contour>
  </outline>
</glyph>
<glyph name="arrowleftright" format="1">
  <advance width="900"/>
  <unicode hex="2194"/>
  <outline>
    <contour>
      <point x="79" y="349" type="line" name="hr00"/>
      <point x="318" y="110" type="line"/>
      <point x="398" y="190" type="line"/>
      <point x="338" y="250" type="line"/>
      <point x="294" y="288" type="line"/>
      <point x="295" y="292" type="line"/>
      <point x="375" y="288" type="line"/>
      <point x="525" y="288" type="line"/>
      <point x="605" y="292" type="line"/>
      <point x="606" y="288" type="line"/>
      <point x="562" y="250" type="line"/>
      <point x="502" y="190" type="line"/>
      <point x="582" y="110" type="line"/>
      <point x="821" y="349" type="line"/>
      <point x="582" y="588" type="line"/>
      <point x="502" y="508" type="line"/>
      <point x="562" y="448" type="line"/>
      <point x="606" y="410" type="line"/>
      <point x="605" y="406" type="line"/>
      <point x="525" y="410" type="line"/>
      <point x="375" y="410" type="line"/>
      <point x="295" y="406" type="line"/>
      <point x="294" y="410" type="line"/>
      <point x="338" y="448" type="line"/>
      <point x="398" y="508" type="line"/>
      <point x="318" y="588" type="line"/>
    </contour>
  </outline>
</glyph>
<glyph name="arrowupdown" format="1">
  <advance width="900"/>
  <unicode hex="2195"/>
  <outline>
    <contour>
      <point x="450" y="-12" type="line" name="hr00"/>
      <point x="689" y="227" type="line"/>
      <point x="609" y="307" type="line"/>
      <point x="549" y="247" type="line"/>
      <point x="511" y="203" type="line"/>
      <point x="507" y="204" type="line"/>
      <point x="511" y="284" type="line"/>
      <point x="511" y="414" type="line"/>
      <point x="507" y="494" type="line"/>
      <point x="511" y="495" type="line"/>
      <point x="549" y="451" type="line"/>
      <point x="609" y="391" type="line"/>
      <point x="689" y="471" type="line"/>
      <point x="450" y="710" type="line"/>
      <point x="211" y="471" type="line"/>
      <point x="291" y="391" type="line"/>
      <point x="351" y="451" type="line"/>
      <point x="389" y="495" type="line"/>
      <point x="393" y="494" type="line"/>
      <point x="389" y="414" type="line"/>
      <point x="389" y="284" type="line"/>
      <point x="393" y="204" type="line"/>
      <point x="389" y="203" type="line"/>
      <point x="351" y="247" type="line"/>
      <point x="291" y="307" type="line"/>
      <point x="211" y="227" type="line"/>
    </contour>
  </outline>
</glyph>
<glyph name="arrowhookright" format="1">
  <advance width="900"/>
  <unicode hex="21AA"/>
  <outline>
    <contour>
      <point x="805" y="298" type="line" name="hr00"/>
      <point x="566" y="537" type="line"/>
      <point x="486" y="457" type="line"/>
      <point x="546" y="397" type="line"/>
      <point x="590" y="359" type="line"/>
      <point x="589" y="355" type="line"/>
      <point x="509" y="359" type="line"/>
      <point x="327" y="359" type="line" smooth="yes"/>
      <point x="278" y="359"/>
      <point x="234" y="383"/>
      <point x="234" y="442" type="curve" smooth="yes"/>
      <point x="234" y="501"/>
      <point x="278" y="525"/>
      <point x="327" y="525" type="curve"/>
      <point x="327" y="639" type="line"/>
      <point x="203" y="639"/>
      <point x="95" y="571"/>
      <point x="95" y="438" type="curve" smooth="yes"/>
      <point x="95" y="305"/>
      <point x="203" y="237"/>
      <point x="327" y="237" type="curve" smooth="yes"/>
      <point x="509" y="237" type="line"/>
      <point x="589" y="241" type="line"/>
      <point x="590" y="237" type="line"/>
      <point x="546" y="199" type="line"/>
      <point x="486" y="139" type="line"/>
      <point x="566" y="59" type="line"/>
    </contour>
  </outline>
</glyph>
<glyph name="arrowupleftcorner" format="1">
  <advance width="900"/>
  <unicode hex="21B0"/>
  <outline>
    <contour>
      <point x="183" y="471" type="line" name="hr00"/>
      <point x="422" y="232" type="line"/>
      <point x="502" y="312" type="line"/>
      <point x="442" y="372" type="line"/>
      <point x="398" y="410" type="line"/>
      <point x="399" y="414" type="line"/>
      <point x="479" y="410" type="line"/>
      <point x="594" y="410" type="line"/>
      <point x="594" y="0" type="line"/>
      <point x="716" y="0" type="line"/>
      <point x="716" y="532" type="line"/>
      <point x="479" y="532" type="line"/>
      <point x="399" y="528" type="line"/>
      <point x="398" y="532" type="line"/>
      <point x="442" y="570" type="line"/>
      <point x="502" y="630" type="line"/>
      <point x="422" y="710" type="line"/>
    </contour>
  </outline>
</glyph>
<glyph name="arrowuprightcorner" format="1">
  <advance width="900"/>
  <unicode hex="21B1"/>
  <outline>
    <contour>
      <point x="717" y="471" type="line" name="hr00"/>
      <point x="478" y="710" type="line"/>
      <point x="398" y="630" type="line"/>
      <point x="458" y="570" type="line"/>
      <point x="502" y="532" type="line"/>
      <point x="501" y="528" type="line"/>
      <point x="421" y="532" type="line"/>
      <point x="184" y="532" type="line"/>
      <point x="184" y="0" type="line"/>
      <point x="306" y="0" type="line"/>
      <point x="306" y="410" type="line"/>
      <point x="421" y="410" type="line"/>
      <point x="501" y="414" type="line"/>
      <point x="502" y="410" type="line"/>
      <point x="458" y="372" type="line"/>
      <point x="398" y="312" type="line"/>
      <point x="478" y="232" type="line"/>
    </contour>
  </outline>
</glyph>
<glyph name="arrowdownleftcorner" format="1">
  <advance width="900"/>
  <unicode hex="21B2"/>
  <outline>
    <contour>
      <point x="183" y="227" type="line" name="hr00"/>
      <point x="422" y="-12" type="line"/>
      <point x="502" y="68" type="line"/>
      <point x="442" y="128" type="line"/>
      <point x="398" y="166" type="line"/>
      <point x="399" y="170" type="line"/>
      <point x="479" y="166" type="line"/>
      <point x="716" y="166" type="line"/>
      <point x="716" y="698" type="line"/>
      <point x="594" y="698" type="line"/>
      <point x="594" y="288" type="line"/>
      <point x="479" y="288" type="line"/>
      <point x="399" y="284" type="line"/>
      <point x="398" y="288" type="line"/>
      <point x="442" y="326" type="line"/>
      <point x="502" y="386" type="line"/>
      <point x="422" y="466" type="line"/>
    </contour>
  </outline>
</glyph>
<glyph name="arrowdownrightcorner" format="1">
  <advance width="900"/>
  <unicode hex="21B3"/>
  <outline>
    <contour>
      <point x="717" y="227" type="line" name="hr00"/>
      <point x="478" y="466" type="line"/>
      <point x="398" y="386" type="line"/>
      <point x="458" y="326" type="line"/>
      <point x="502" y="288" type="line"/>
      <point x="501" y="284" type="line"/>
      <point x="421" y="288" type="line"/>
      <point x="306" y="288" type="line"/>
      <point x="306" y="698" type="line"/>
      <point x="184" y="698" type="line"/>
      <point x="184" y="166" type="line"/>
      <point x="421" y="166" type="line"/>
      <point x="501" y="170" type="line"/>
      <point x="502" y="166" type="line"/>
      <point x="458" y="128" type="line"/>
      <point x="398" y="68" type="line"/>
      <point x="478" y="-12" type="line"/>
    </contour>
  </outline>
</glyph>
